<?xml version="1.0" encoding="utf-8"?>
<!-- Generator: Adobe Illustrator 16.2.1, SVG Export Plug-In . SVG Version: 6.00 Build 0)  -->
<!DOCTYPE svg PUBLIC "-//W3C//DTD SVG 1.1//EN" "http://www.w3.org/Graphics/SVG/1.1/DTD/svg11.dtd">
<svg version="1.1" id="svg2363" xmlns:svg="http://www.w3.org/2000/svg"
	 xmlns="http://www.w3.org/2000/svg" xmlns:xlink="http://www.w3.org/1999/xlink" x="0px" y="0px" width="1058.252px"
	 height="595.268px" viewBox="0 0 1058.252 595.268" enable-background="new 0 0 1058.252 595.268" xml:space="preserve">
<polygon id="polygon10" fill="#FEFEE9" stroke="#0978AB" stroke-width="1.2756" stroke-linejoin="round" stroke-miterlimit="3.8637" points="
	318.625,229.947 319.3,229.183 320.683,227.653 320.446,222.18 319.364,219.362 318.644,217.482 317.915,214.848 317.552,213.721 
	317.192,212.97 315.412,210.349 315.014,206.012 316.037,203.731 316.726,202.59 320.873,198.005 323.304,196.273 326.947,193.394 
	330.266,192.596 332.359,192.003 335.851,191.203 338.123,190.797 340.744,190.387 342.145,190.181 344.765,189.958 
	358.775,190.355 361.754,190.696 362.457,190.689 365.089,191.413 367.719,191.76 368.771,191.937 370.873,192.289 374.033,193.007 
	377.022,194.484 387.576,199.84 395.111,200.702 399.826,199.706 401.578,199.876 405.264,201.159 406.316,201.335 409.3,202.25 
	410.527,202.425 413.681,202.771 416.132,202.934 420.322,202.136 422.766,201.167 424.862,200.58 429.057,199.594 435.01,200.103 
	437.288,200.459 439.396,201.193 440.621,201.371 443.599,201.72 450.062,200.338 456.004,198.962 462.137,199.851 465.473,201.332 
	467.584,202.823 471.445,204.679 473.555,205.605 477.587,206.703 480.038,206.871 488.439,207.369 503.623,201.021 
	513.934,199.055 520.934,198.627 532.677,201.755 534.958,202.496 535.307,202.493 539.506,202.655 542.654,202.067 
	543.703,201.871 549.302,201.459 555.604,202.364 557.707,202.729 563.496,205.526 570.152,207 572.955,207.55 576.809,208.284 
	580.137,208.833 582.76,208.819 584.508,208.622 585.381,208.427 586.954,207.854 588.869,205.578 589.909,203.307 590.082,202.55 
	590.431,202.171 590.955,201.98 592.179,201.597 599,200.998 606.169,198.698 607.045,198.884 614.053,201.118 615.104,201.302 
	624.557,201.829 629.283,202.189 635.594,205.752 637.694,206.123 646.271,207.225 647.672,207.599 649.072,207.594 650.12,206.835 
	652.565,204.751 654.486,204.179 655.714,204.553 659.916,206.051 662.37,207.553 663.246,207.928 664.997,208.68 665.873,208.866 
	673.223,209.79 676.723,209.782 677.247,209.781 680.047,209.774 680.922,209.772 682.847,209.957 684.246,209.577 685.295,209.196 
	685.994,208.439 686.344,207.494 686.164,206.74 685.988,206.362 685.988,206.173 686.164,205.984 687.913,205.98 689.141,206.167 
	688.791,207.111 687.564,207.114 686.867,207.682 686.519,209.005 686.521,209.759 687.049,212.025 687.4,212.589 688.1,213.344 
	688.627,213.722 688.803,214.098 690.205,215.04 691.605,215.604 692.306,215.791 693.705,215.789 695.103,215.785 695.453,215.598 
	695.627,215.595 696.154,215.594 697.026,215.216 698.426,214.647 699.999,213.511 700.172,213.322 703.145,210.485 
	704.541,208.971 703.662,206.519 703.662,206.141 705.938,206.893 706.113,207.647 705.941,209.348 705.941,209.914 
	704.896,212.182 704.556,212.792 704.616,213.565 704.723,215.202 705.426,216.901 706.129,217.655 707.004,218.597 
	708.928,219.351 709.453,219.35 709.977,219.538 711.027,219.537 711.9,219.347 712.076,219.347 712.252,219.157 712.951,218.779 
	714,218.21 714.7,218.588 714.7,218.776 714.7,220.287 714.879,221.231 714.706,224.629 715.058,224.819 715.93,225.006 
	716.105,225.006 718.379,223.492 723.1,220.656 724.672,221.031 725.372,220.275 725.721,219.898 725.721,218.954 725.545,218.576 
	725.545,218.388 724.493,217.442 724.145,217.255 723.793,217.066 722.745,216.88 721.697,217.257 720.997,217.258 720.82,217.259 
	718.719,215.938 718.021,215.562 716.795,214.619 716.27,213.864 716.27,213.298 716.791,212.354 718.719,212.54 719.066,212.162 
	716.264,210.844 714.516,210.845 714.168,210.846 713.467,211.036 713.116,211.036 712.943,211.414 712.943,211.982 
	712.943,212.359 712.595,212.736 712.244,212.548 711.893,211.793 711.717,211.04 711.365,210.472 710.492,209.907 709.613,209.152 
	709.441,208.776 709.265,208.209 709.438,207.643 711.889,208.395 715.04,208.956 716.088,208.956 718.016,209.331 723.088,209.137 
	723.963,209.324 727.463,212.343 728.689,213.096 732.714,214.037 734.289,214.414 736.389,214.413 740.762,214.788 741.986,214.41 
	742.686,216.109 744.086,217.431 745.837,218.186 747.586,218.563 748.81,218.562 752.484,218.75 753.709,218.562 754.058,218.373 
	756.682,217.05 757.905,215.917 758.605,214.973 758.957,213.651 759.13,212.896 759.48,211.952 759.83,211.952 760.182,211.952 
	761.229,212.519 768.229,214.409 771.725,215.543 778.021,217.058 780.997,217.626 783.97,218.005 786.945,218.197 790.27,217.255 
	792.193,216.88 796.041,217.263 797.963,218.397 800.062,219.534 800.936,220.102 802.335,220.668 803.035,220.86 804.432,221.428 
	815.098,223.333 815.449,223.523 821.215,226.744 822.262,227.878 824.703,230.906 825.229,231.474 825.928,231.853 
	827.324,232.233 828.9,232.048 833.279,229.225 835.205,227.53 835.73,227.531 836.078,227.72 836.251,228.098 835.9,229.608 
	833.797,231.303 833.273,231.869 832.57,232.811 832.57,233.189 833.615,234.135 834.666,233.948 835.539,233.763 837.467,233.201 
	840.441,231.319 840.969,230.755 841.845,230.378 842.542,230.569 843.068,230.759 843.242,231.137 843.414,231.705 
	843.414,232.271 843.236,232.836 842.885,233.213 842.533,235.101 842.706,235.669 843.402,236.426 850.908,241.924 853.18,243.441 
	854.052,243.822 855.449,243.826 857.203,243.076 858.43,242.135 858.781,241.38 860.529,240.442 861.58,240.256 861.93,240.445 
	862.102,241.013 861.924,242.146 862.096,242.713 862.271,243.092 863.666,244.605 865.061,246.123 866.108,246.692 
	870.121,248.594 872.742,249.17 881.3,251.091 882,251.094 883.399,250.909 885.496,250.352 886.199,250.164 887.072,249.601 
	887.775,248.848 888.656,247.341 889.008,246.587 889.359,245.833 889.535,245.645 890.765,243.571 891.289,243.763 
	891.461,243.952 891.637,244.142 892.508,245.09 892.68,245.279 892.152,246.6 892.152,246.788 892.326,246.978 892.674,247.734 
	893.022,247.925 893.721,248.117 894.071,248.119 894.596,247.933 894.947,247.744 895.822,246.991 897.406,243.599 
	897.582,243.221 897.934,242.845 898.109,242.656 898.285,242.658 898.634,243.227 898.455,243.604 896.871,247.375 
	896.868,247.752 897.043,247.753 897.568,247.945 897.74,247.945 899.494,246.63 900.543,246.635 900.893,246.825 900.717,247.392 
	900.713,247.58 900.537,247.956 900.359,248.711 900.008,249.466 899.832,249.654 899.132,249.84 898.783,249.838 898.607,249.838 
	897.908,250.023 897.908,250.59 898.426,252.104 898.424,252.482 898.072,253.048 897.369,253.988 896.666,254.741 895.793,255.303 
	893.863,257.185 894.729,260.022 895.596,261.915 897.338,263.057 897.51,263.246 897.334,263.812 896.978,266.078 896.79,268.911 
	896.785,271.177 898.003,271.938 898.17,274.208 897.816,275.339 897.115,276.281 896.589,277.035 894.662,278.728 894.135,279.293 
	893.956,280.047 893.953,280.804 894.647,282.129 895.168,283.265 895.689,283.456 896.041,283.458 896.391,283.083 897.032,282.59 
	897.617,282.142 898.314,282.711 898.486,283.09 898.656,284.225 898.48,284.979 897.436,284.03 896.561,284.783 896.453,285.344 
	895.849,288.561 895.846,289.504 896.188,290.45 896.713,291.208 897.928,292.538 899.494,293.678 902.115,293.5 902.992,292.747 
	903.344,291.994 903.346,291.426 904.919,290.866 905.615,291.058 905.615,291.437 904.912,292.567 903.861,292.94 903.855,294.641 
	903.855,294.831 904.901,295.78 906.113,298.243 906.627,300.514 906.799,300.893 907.324,301.083 910.281,302.987 911.324,304.044 
	909.925,305.821 909.573,305.63 906.963,303.351 906.267,303.348 905.915,303.913 905.564,304.288 905.037,305.231 905.209,305.8 
	905.904,307.125 905.898,308.449 904.588,309.854 903.619,310.896 903.271,311.083 902.926,310.326 902.752,309.38 903.109,307.68 
	901.551,304.46 899.111,302.56 896.848,301.604 895.799,301.789 893,303.668 892.651,303.856 893.342,305.749 894.9,309.346 
	896.811,312.001 897.158,312.19 896.805,313.324 895.578,315.021 894.705,315.395 890.862,315.946 887.901,315.178 886.51,313.472 
	886.162,313.281 884.94,312.898 882.498,313.267 880.396,315.338 878.826,315.521 877.256,315.705 875.334,315.887 874.11,316.637 
	873.238,317.203 873.238,317.393 872.011,319.088 871.659,320.223 872.699,321.928 873.217,323.631 872.521,324.007 
	872.169,324.195 871.299,323.436 871.127,323.436 869.908,322.106 869.035,321.727 867.293,321.342 865.55,320.391 865.029,319.633 
	862.938,319.248 860.492,319.998 856.646,323.197 855.068,325.84 854.541,327.352 854.189,328.674 853.838,329.24 853.142,329.805 
	851.045,330.555 848.951,331.686 847.727,332.438 845.281,334.699 844.581,335.831 844.229,336.588 840.027,344.52 839.676,345.652 
	836.686,358.506 836.686,358.694 836.51,358.883 836.162,359.072 833.195,361.335 833.189,364.362 833.184,367.01 833.005,368.522 
	833.005,368.9 832.132,370.223 830.56,371.732 829.166,372.108 828.469,372.105 826.729,370.777 826.381,370.398 825.859,369.641 
	825.51,369.451 824.812,369.64 823.94,370.395 821.498,372.66 820.801,373.604 820.273,374.549 819.576,376.439 819.049,379.275 
	819.223,379.655 819.744,380.979 820.438,382.115 820.611,382.495 820.43,386.468 819.729,388.737 819.205,389.872 812.938,390.049 
	807.709,391.744 803.876,393.441 790.809,402.318 788.89,403.83 787.15,404.396 779.664,405.717 765.387,407.412 763.992,407.412 
	762.252,406.843 760.686,405.141 759.815,403.815 758.597,403.058 758.248,403.059 756.332,402.868 752.33,402.68 751.809,402.68 
	749.02,403.06 745.367,406.088 743.973,407.982 743.104,409.875 740.318,412.146 738.406,413.472 738.232,413.472 738.057,413.283 
	732.311,410.07 730.047,408.18 728.131,407.423 725.87,407.805 722.912,409.132 720.303,410.838 719.605,411.217 717.344,412.545 
	716.129,413.492 714.041,414.82 713.691,415.009 710.559,415.013 708.473,415.584 707.949,415.773 707.254,416.154 702.038,419.568 
	698.041,422.793 696.474,422.985 692.294,420.723 690.902,419.59 681.162,422.639 680.641,422.641 678.373,420.754 675.931,418.108 
	675.928,416.594 680.104,416.395 685.156,418.465 690.721,416.371 690.721,415.993 690.197,414.671 689.324,414.104 
	688.455,414.295 686.715,413.92 685.496,413.354 683.402,412.034 682.012,411.092 680.441,409.96 679.223,409.773 678.699,409.586 
	678.178,409.396 675.744,410.539 675.219,410.919 674.18,411.678 672.268,413.387 671.051,414.145 668.441,415.856 668.621,416.613 
	669.496,419.449 670.021,420.395 669.848,421.152 668.98,421.912 668.632,421.723 667.586,420.969 667.41,420.59 667.062,420.023 
	666.711,418.322 666.359,417.754 662.707,418.71 664.277,420.411 664.107,422.114 662.191,421.741 660.625,421.178 659.752,419.855 
	657.133,417.213 655.74,416.272 654.173,415.52 652.605,415.146 650.865,415.529 649.823,415.912 648.084,417.052 647.564,417.622 
	644.062,410.82 638.308,407.244 637.256,404.789 636.732,403.844 635.338,403.093 633.771,403.096 632.377,403.292 630.289,403.678 
	628.898,403.873 628.549,403.874 627.682,404.447 625.248,406.348 621.253,408.445 617.612,412.813 612.759,417.756 
	611.195,418.898 609.625,417.77 600.725,411.564 598.634,410.818 597.764,410.633 595.327,411.023 594.979,411.025 593.578,409.139 
	589.897,404.236 587.798,401.598 586.752,400.848 583.086,398.596 581.691,398.414 579.254,398.427 574.379,398.264 573.157,398.27 
	567.938,399.057 563.768,400.404 559.77,401.941 553.17,405.011 536.487,410.037 534.033,407.027 531.939,406.283 528.984,406.871 
	526.383,408.592 522.906,409.563 522.02,406.92 524.274,405.958 523.215,403.316 520.072,401.637 515.547,402.047 511.201,402.836 
	506.355,407.225 502.01,408.203 492.752,403.736 488.559,401.687 487.322,399.236 485.753,398.492 483.135,397.758 480.176,398.16 
	474.784,398.585 471.686,403.721 471.343,404.291 470.297,404.301 468.367,402.235 468.531,400.721 471.311,399.939 
	471.622,395.016 470.746,394.457 468.484,394.476 468.477,393.342 467.943,392.21 467.238,390.893 460.139,396.252 458.059,397.407 
	456.664,397.419 455.961,396.67 455.613,396.482 455.264,396.486 454.922,397.058 454.934,398.57 455.993,400.643 455.823,401.022 
	455.478,401.594 454.959,401.787 454.607,401.602 452.684,400.483 452.162,400.488 451.482,402.576 452.018,404.275 
	452.367,404.461 455.67,403.863 456.886,403.662 457.407,403.469 458.441,402.135 458.787,401.564 459.127,400.805 459.473,400.422 
	460.17,400.227 460.691,400.222 460.693,400.602 460.873,400.978 460.709,402.494 459.337,405.344 457.084,406.689 448.755,410.172 
	444.25,412.675 442.52,413.638 440.781,414.222 439.739,414.422 439.042,414.43 437.648,414.062 436.076,413.32 434.676,412.577 
	433.275,411.834 432.066,412.604 430.877,416.211 430.355,416.217 425.303,415.51 424.775,415.138 423.37,413.447 421.982,413.84 
	417.465,415.021 416.071,414.848 415.547,414.664 415.02,414.101 414.3,411.457 414.625,408.805 414.625,408.615 414.273,408.43 
	412.191,409.021 410.089,407.717 408.859,406.216 408.508,406.03 407.808,405.47 407.632,405.282 407.283,405.286 406.766,405.67 
	406.074,406.435 405.904,406.814 405.062,409.853 406.973,409.643 408.543,409.815 410.639,410.739 412.572,412.611 
	413.453,413.928 412.938,414.88 410.861,415.848 409.648,416.617 407.561,416.829 405.996,416.846 405.475,417.041 404.956,417.424 
	404.443,418.375 404.446,418.943 404.449,419.133 406.371,419.869 408.467,420.795 409.164,420.975 409.519,421.729 
	409.003,422.302 408.314,423.256 407.793,423.45 406.575,423.463 404.656,422.916 395.396,418.852 386.824,414.216 386.119,413.277 
	385.591,412.716 385.565,409.877 384.491,406.86 381.695,405.566 376.645,405.625 377.89,408.26 378.604,409.956 376.685,409.789 
	373.529,407.364 364.631,405.576 356.788,404.535 354.873,404.559 352.963,405.15 351.577,405.734 349.853,407.459 349.167,408.604 
	350.227,409.727 349.893,411.054 349.022,411.255 348.144,410.697 346.551,408.068 346.208,408.64 345.696,409.592 345.543,411.676 
	345.045,413.764 341.059,415.518 340.54,415.713 340.194,415.907 339.846,416.1 337.585,416.13 336.36,415.766 333.054,415.619 
	330.787,415.271 321.184,412.557 318.905,411.072 317.676,410.144 315.925,409.221 314.873,408.666 314,408.488 312.779,408.315 
	311.563,408.521 309.66,409.492 307.079,412.178 306.414,414.647 306.955,416.344 307.667,417.848 308.894,418.589 309.597,418.957 
	309.962,420.656 309.801,421.795 309.631,421.985 308.758,421.998 308.407,421.436 308.226,421.06 308.393,420.488 308.217,420.112 
	307.689,419.93 307.174,420.314 307.177,420.505 307.183,421.07 306.664,421.27 306.315,421.273 305.446,421.285 305.268,420.91 
	304.913,420.348 304.734,420.159 304.553,419.404 305.071,419.02 305.42,419.203 305.941,419.008 306.111,418.626 306.103,417.869 
	306.085,416.545 304.662,413.725 303.611,413.172 302.041,413.004 298.919,413.807 298.392,413.434 298.179,410.218 
	297.727,401.141 298.225,399.24 299.93,396.189 300.791,395.231 301.482,394.844 303.559,393.869 308.764,391.906 310.149,391.319 
	312.234,390.913 311.374,391.871 309.982,391.889 309.812,392.459 310.858,392.445 311.561,393.003 312.949,392.605 
	314.507,391.828 316.08,392.186 316.596,391.611 316.593,391.422 315.357,389.923 316.204,387.643 315.855,387.646 315.343,388.6 
	314.83,389.553 312.935,391.281 312.581,390.719 313.096,390.144 313.778,389 313.926,386.537 313.914,385.592 313.735,385.026 
	312.678,384.094 302.361,380.64 300.097,380.671 299.921,380.673 299.746,380.486 301.462,378.381 302.32,377.234 303.53,376.273 
	303.873,375.889 304.037,374.94 302.972,373.253 302.784,372.121 302.781,371.931 303.297,371.167 304.832,368.308 305.532,368.678 
	306.756,369.038 307.104,369.034 307.799,368.836 307.972,368.644 309.354,367.68 309.521,366.92 309.337,365.977 308.104,365.049 
	305.99,362.996 305.639,362.811 304.953,363.766 306.016,365.265 304.979,366.035 303.911,363.969 303.726,363.217 303.671,358.488 
	307.122,355.414 308.851,354.066 310.216,351.59 308.914,344.42 308.528,341.211 308.692,340.452 308.692,340.263 310.08,339.865 
	310.769,339.1 311.454,337.956 312.29,334.729 309.084,328.911 310.639,327.756 312.367,326.22 317.877,319.906 318.396,319.332 
	319.605,318.371 320.294,317.417 320.807,316.464 321.144,315.515 321.302,314.001 321.118,313.058 320.395,310.988 
	315.642,307.271 313.52,304.841 313.456,299.36 313.084,297.285 312.719,295.967 311.293,293.528 310.055,291.846 308.102,289.036 
	307.9,286.771 307.52,284.129 306.442,281.5 305.198,279.626 303.79,278.7 303.266,278.707 302.562,278.339 301.687,278.162 
	300.111,277.996 293.812,276.948 291.183,276.23 290.658,276.048 290.304,275.675 289.42,274.743 289.06,273.991 287.625,270.988 
	286.381,269.117 285.669,267.993 285.312,267.431 283.336,263.114 280.481,258.242 279.768,257.118 278.877,255.809 277.99,254.688 
	277.455,253.561 277.092,252.623 276.547,251.12 276.544,250.742 277.573,249.216 278.442,248.825 280.701,247.659 281.749,247.645 
	286.453,246.256 288.738,245.845 291.329,244.863 295.512,243.673 298.294,242.311 302.816,240.36 305.944,238.806 309.242,236.494 
	312.886,234.179 318.264,230.33 "/>
<polygon id="polygon40" fill="#FEFEE9" stroke="#0978AB" stroke-width="1.2756" stroke-linejoin="round" stroke-miterlimit="3.8637" points="
	974.703,331.706 977.149,331.155 979.943,330.795 980.467,330.799 981.861,330.619 982.559,330.623 983.955,330.444 
	984.479,330.259 985.701,330.268 986.049,330.459 986.57,330.651 991.099,331.818 992.842,332.209 995.459,331.848 996.329,332.045 
	996.676,332.614 997.021,333.185 997.193,333.376 997.888,333.756 998.236,333.76 1001.203,333.593 1002.418,334.548 
	1004.158,335.127 1005.031,335.323 1005.553,335.516 1007.471,335.342 1011.482,335.373 1012.871,336.518 1019.658,338.65 
	1022.806,337.164 1022.98,336.976 1024.209,336.229 1025.257,335.859 1027.166,337.01 1027.336,337.768 1028.027,338.529 
	1028.371,339.478 1029.237,340.241 1029.583,340.812 1030.449,341.387 1032.723,340.648 1033.068,340.84 1033.065,341.406 
	1031.135,343.094 1030.613,342.9 1027.483,341.929 1027.132,341.926 1023.986,343.035 1022.411,344.156 1021.549,342.26 
	1020.861,340.93 1018.246,340.909 1017.547,341.282 1017.195,341.847 1016.84,342.41 1016.838,342.977 1017.881,343.363 
	1018.229,343.744 1017.701,344.308 1017.525,344.496 1015.084,344.854 1012.119,344.453 1008.455,344.615 1008.107,344.801 
	1007.758,344.986 1007.58,345.364 1006.859,348.951 1004.76,350.45 1003.188,350.627 1001.275,350.234 1000.926,349.854 
	1000.756,349.285 1000.932,349.287 1001.629,349.103 1003.201,348.547 1003.551,348.549 1004.424,348.178 1005.65,347.619 
	1005.65,347.43 1005.48,346.862 1003.217,346.467 1001.649,345.888 998.693,344.541 998.176,343.972 997.484,342.832 
	996.258,343.578 996.604,344.527 996.412,346.984 995.892,346.791 995.203,345.273 993.809,345.073 993.109,345.257 992.41,345.631 
	992.406,346.389 992.223,347.899 991.51,350.354 992.029,351.113 992.547,351.873 992.369,352.25 991.848,352.057 991.329,351.676 
	990.289,350.345 989.771,349.962 987.852,349.949 986.805,349.941 986.283,350.127 986.104,350.504 985.746,352.015 
	983.135,351.619 981.74,351.609 980.867,351.604 980.883,349.523 979.484,349.512 978.958,350.266 980.344,351.789 978.598,352.533 
	978.425,351.775 977.383,351.58 976.158,352.139 975.979,352.895 976.672,353.845 975.974,354.219 975.102,354.212 974.926,354.211 
	974.406,353.641 974.066,352.314 974.066,351.747 974.07,351.368 973.902,350.232 971.812,350.029 969.536,351.906 969.361,352.096 
	970.055,352.666 971.443,353.621 972.838,353.631 974.746,355.156 974.217,356.477 973.518,357.039 973.168,357.227 972.99,357.414 
	972.293,357.6 971.944,357.596 971.072,357.969 970.375,357.965 969.85,358.15 968.629,358.331 967.936,357.569 968.289,356.627 
	967.947,355.301 968.128,354.355 967.785,353.22 966.391,353.021 964.646,353.199 963.773,353.762 963.77,354.328 964.115,355.088 
	965.161,354.904 966.379,355.291 967.771,355.866 967.416,356.811 967.062,357.754 966.008,359.449 964.787,360.009 
	963.911,360.382 961.65,359.801 961.65,359.611 962.704,357.916 962.534,357.537 962.013,356.966 961.143,356.394 960.449,356.2 
	959.576,356.194 958.703,356.379 957.83,356.751 957.301,357.883 956.258,357.309 952.254,356.339 949.46,357.27 945.451,357.624 
	944.057,357.615 942.66,358.176 941.611,358.547 940.738,359.109 940.391,359.108 939.166,359.857 937.242,361.36 936.193,361.923 
	935.842,362.109 932.878,362.851 929.568,362.455 923.129,360.529 920.519,359.193 919.127,358.24 916.008,354.065 916.893,351.043 
	916.893,350.854 916.725,349.15 916.207,347.824 916.037,347.257 916.734,347.069 920.046,346.896 922.662,346.91 923.707,347.105 
	927.195,347.312 927.893,347.126 934.354,344.703 939.24,343.594 941.691,341.717 943.786,341.35 945.881,340.983 946.928,340.611 
	952.865,338.944 953.913,338.762 954.613,338.387 955.311,338.202 956.184,338.02 957.928,337.461 961.246,336.914 963.514,336.929 
	964.211,336.744 964.738,336.559 965.436,336.373 966.135,335.812 966.84,334.303 967.722,332.605 968.945,332.047 970.343,331.867 
	"/>
<path id="path46" fill="#FEFEE9" stroke="#0978AB" stroke-width="1.2756" stroke-linejoin="round" stroke-miterlimit="3.8637" d="
	M26.04,350.688c0.653-0.387,8.674-3.249,8.699-3.251c1.544-0.037,2.514,1.035,3.796,1.55c2.386,0.958,7.278,1.618,9.695,0.542
	c0.81-0.361,1.444-1.188,2.192-1.631c0.839-0.496,1.906-0.695,2.783-1.199c1.163,0.262,2.07,2.066,2.609,3.039
	c0.455,0.179,1.84,0.955,2.114,1.352c1.205,1.74,3.047,8.941,1.702,10.661c-0.179,0.229-2.671,1.307-3.56,2.108
	c-1.857,1.678-5.201,6.908-6.746,7.779c-2.044,1.152-5.066,1.936-7.4,2.004c-0.711,0.021-1.2-0.206-1.95,0.07
	c-0.509-0.262-3.027-2.17-3.381-2.641c-1.033-0.201-1.979-0.688-2.981-0.999c-0.929-0.288-2.923-0.726-3.669-1.331
	c-1.201-0.972-4.809-5.246-5.266-5.443c-0.546-0.236-1.135-0.395-1.739-0.191l-1.006-0.529l-0.322-0.789
	c0.359-0.389,2.043-1.852,2.151-2.156c0.875-2.463,1.722-4.799,1.83-7.43C25.614,351.668,25.718,351.142,26.04,350.688z"/>
</svg>
