<?xml version="1.0" encoding="utf-8"?>
<!-- Generator: Adobe Illustrator 16.2.1, SVG Export Plug-In . SVG Version: 6.00 Build 0)  -->
<!DOCTYPE svg PUBLIC "-//W3C//DTD SVG 1.1//EN" "http://www.w3.org/Graphics/SVG/1.1/DTD/svg11.dtd">
<svg version="1.1"
	 id="svg2275" sodipodi:docname="Map_of_USA_with_state_names.svg" inkscape:version="0.48.0 r9654" xmlns:dc="http://purl.org/dc/elements/1.1/" xmlns:cc="http://creativecommons.org/ns#" xmlns:rdf="http://www.w3.org/1999/02/22-rdf-syntax-ns#" xmlns:svg="http://www.w3.org/2000/svg" xmlns:sodipodi="http://sodipodi.sourceforge.net/DTD/sodipodi-0.dtd" xmlns:inkscape="http://www.inkscape.org/namespaces/inkscape"
	 xmlns="http://www.w3.org/2000/svg" xmlns:xlink="http://www.w3.org/1999/xlink" x="0px" y="0px" width="958.689px"
	 height="592.79px" viewBox="0 0 958.689 592.79" enable-background="new 0 0 958.689 592.79" xml:space="preserve">
<g id="States" transform="matrix(1.00433, 0, 0, 1.00906, -19.9329, -136.405)">
	<path id="HI" fill="#FFFFD0" d="M242.961,653.593l1.875-3.438l2.187-0.314l0.313,0.782l-2.031,2.969H242.961z M252.805,649.999
		l5.938,2.501l2.031-0.314l1.563-3.749l-0.625-3.281l-4.062-0.47l-3.906,1.719L252.805,649.999L252.805,649.999z M282.493,659.687
		l3.594,5.313l2.344-0.314l1.093-0.468l1.407,1.25l3.594-0.157l0.937-1.405l-2.813-1.719l-1.875-3.594l-2.031-3.438l-5.625,2.812
		L282.493,659.687L282.493,659.687z M302.024,668.281l1.25-1.876l4.532,0.939l0.625-0.47l5.938,0.625l-0.313,1.25l-2.5,1.407
		l-4.219-0.314L302.024,668.281z M307.18,673.28l1.875,3.751l2.969-1.096l0.313-1.562l-1.563-2.03l-3.594-0.314V673.28
		L307.18,673.28z M313.899,672.187l2.187-2.812l4.531,2.344l4.219,1.094l4.219,2.656v1.876l-3.437,1.719l-4.688,0.937l-2.344-1.405
		L313.899,672.187L313.899,672.187z M329.993,687.187l1.563-1.25l3.281,1.562l7.344,3.438l3.281,2.032l1.563,2.342l1.875,4.22
		l3.906,2.501l-0.312,1.248l-3.75,3.126l-4.062,1.405l-1.406-0.625l-2.969,1.719l-2.344,3.126l-2.187,2.812l-1.719-0.157
		l-3.438-2.499l-0.312-4.376l0.625-2.344l-1.563-5.468l-2.031-1.719l-0.156-2.499l2.187-0.939l2.031-2.969l0.469-0.937l-1.562-1.719
		L329.993,687.187L329.993,687.187z"/>
	<path id="AK" fill="#F2D0FF" d="M170.461,590.154l-0.312,82.501l1.562,0.939l2.969,0.155l1.406-1.094h2.5l0.156,2.812l6.719,6.564
		l0.469,2.499l3.281-1.874l0.625-0.157l0.313-2.969l1.407-1.562l1.093-0.157l1.875-1.405l2.969,2.03l0.625,2.812l1.875,1.094
		l1.093,2.344l3.75,1.719l3.281,5.782l2.656,3.749l2.188,2.658l1.406,3.592l4.844,1.719l5,2.032l0.937,4.218l0.469,2.969
		l-0.937,3.281l-1.719,2.187l-1.563-0.78l-1.407-2.969l-2.656-1.407l-1.719-1.094l-0.781,0.782l1.407,2.656l0.156,3.594
		l-1.093,0.468l-1.875-1.876l-2.031-1.248l0.469,1.562l1.25,1.719l-0.781,0.78c0,0-0.781-0.312-1.25-0.937s-2.031-3.281-2.031-3.281
		l-0.937-2.187c0,0-0.313,1.25-0.938,0.937c-0.625-0.312-1.25-1.405-1.25-1.405l1.719-1.876l-1.407-1.407v-4.843h-0.781
		l-0.781,3.281l-1.093,0.468l-0.938-3.592l-0.625-3.594l-0.781-0.468l0.313,5.468v1.094l-1.407-1.25l-3.438-5.78l-2.031-0.47
		l-0.625-3.592l-1.563-2.812l-1.563-1.094v-2.189l2.031-1.248l-0.469-0.314l-2.5,0.625l-3.281-2.344l-2.5-2.812l-4.687-2.499
		l-3.906-2.501l1.25-3.124v-1.564l-1.719,1.564l-2.813,1.094l-3.594-1.094l-5.469-2.344h-5.313l-0.625,0.468l-6.25-3.751
		l-2.031-0.312l-2.656-5.625l-3.438,0.312l-3.437,1.407l0.469,4.374l1.094-2.812l0.937,0.314l-1.407,4.218l3.125-2.656l0.625,1.562
		l-3.75,4.22l-1.25-0.314l-0.469-1.876l-1.25-0.78l-1.25,1.094l-2.656-1.719l-2.969,2.03l-1.719,2.032l-3.281,2.03l-4.532-0.157
		l-0.469-2.03l3.594-0.625v-1.25l-2.187-0.625l0.937-2.342l2.188-3.751v-1.719l0.156-0.78l4.219-2.189l0.938,1.25h2.656l-1.25-2.499
		l-3.594-0.314l-4.844,2.658l-2.344,3.281l-1.719,2.499l-1.093,2.187l-4.063,1.407l-2.969,2.501l-0.313,1.562l2.188,0.937
		l0.781,2.032l-2.656,3.124l-6.25,4.063l-7.5,4.063l-2.031,1.094l-5.156,1.094l-5.156,2.187l1.719,1.25l-1.407,1.405l-0.469,1.096
		l-2.656-0.939l-3.125,0.157l-0.781,2.187h-0.938l0.313-2.344l-3.437,1.25l-2.813,0.937l-3.281-1.248l-2.813,1.874h-3.125
		l-2.031,1.25l-1.563,0.782l-2.031-0.314l-2.5-1.094l-2.188,0.625l-0.937,0.937l-1.563-1.094v-1.874l2.969-1.25l6.094,0.625
		l4.219-1.564l2.031-2.03l2.813-0.625l1.719-0.782l2.656,0.157l1.563,1.25l0.937-0.312l2.187-2.658l2.969-0.937l3.281-0.625
		l1.25-0.312l0.625,0.468h0.781l1.25-3.594l3.906-1.405l1.875-3.594l2.187-4.374l1.563-1.407l0.313-2.501l-1.563,1.25l-3.281,0.625
		l-0.625-2.344l-1.25-0.312l-0.937,0.937l-0.156,2.812l-1.407-0.157l-1.406-5.625l-1.25,1.25l-1.094-0.468l-0.313-1.876
		l-3.906,0.157l-2.031,1.094l-2.5-0.312l1.407-1.407l0.469-2.499l-0.625-1.876l1.407-0.937l1.25-0.157l-0.625-1.719v-4.22
		l-0.937-0.937l-0.781,1.405h-5.938l-1.406-1.248l-0.625-3.751l-2.031-3.438v-0.937l2.031-0.782l0.157-2.03l1.094-1.094
		l-0.781-0.468l-1.25,0.468l-1.093-2.658l0.937-4.843l4.375-3.124l2.5-1.564l1.875-3.592l2.656-1.25l2.5,1.094l0.312,2.344
		l2.344-0.314l3.125-2.344l1.563,0.625l0.937,0.625h1.563l2.187-1.25l0.781-4.218c0,0,0.313-2.812,0.938-3.281
		c0.625-0.47,0.937-0.939,0.937-0.939l-1.094-1.874l-2.5,0.78l-3.125,0.782l-1.875-0.468l-3.438-1.719l-4.844-0.157l-3.437-3.594
		l0.469-3.749l0.625-2.344l-2.031-1.719l-1.875-3.594l0.469-0.78l6.562-0.468h2.031l0.937,0.937h0.625l-0.156-1.562l3.75-0.625
		l2.5,0.312l1.406,1.094l-1.406,2.032l-0.469,1.405l2.656,1.564l4.844,1.717l1.719-0.937l-2.188-4.218l-0.937-3.126l0.937-0.782
		l-3.281-1.874l-0.469-1.094l0.469-1.564l-0.781-3.749l-2.813-4.531l-2.344-4.063l2.813-1.876h3.125l1.719,0.625l4.062-0.155
		l3.594-3.438l1.094-2.969l3.594-2.344l1.563,0.937l2.656-0.625l3.594-2.03l1.094-0.157l0.937,0.782l4.375-0.157l2.656-2.969h1.093
		l3.438,2.344l1.875,2.032l-0.469,1.094l0.625,1.094l1.563-1.562l3.75,0.312l0.313,3.594l1.875,1.405l6.875,0.625l6.094,4.063
		l1.406-0.937l5,2.499l2.031-0.625l1.875-0.78l4.688,1.874l4.219,2.814V590.154z M59.211,618.124l2.031,5.156l-0.157,0.937
		l-2.813-0.312l-1.719-3.906l-1.719-1.407h-2.344l-0.156-2.499l1.719-2.344l1.094,2.344l1.406,1.405L59.211,618.124z
		 M56.711,650.467l3.594,0.782l3.593,0.937l0.781,0.939l-1.563,3.592l-2.969-0.155l-3.281-3.438L56.711,650.467z M36.71,636.874
		l1.094,2.501l1.093,1.562l-1.093,0.782l-2.031-2.969v-1.876H36.71z M23.429,707.499l3.281-2.187l3.281-0.939l2.5,0.314l0.469,1.562
		l1.875,0.468l1.875-1.874l-0.313-1.564l2.656-0.625l2.813,2.501l-1.094,1.719l-4.219,1.094l-2.656-0.468l-3.594-1.094l-4.219,1.405
		l-1.563,0.314L23.429,707.499z M70.773,703.125l1.563,1.874l2.031-1.562l-1.406-1.25L70.773,703.125z M73.585,706.092l1.094-2.187
		l2.031,0.314l-0.781,1.874H73.585z M96.398,704.219l1.406,1.719l0.938-1.094l-0.781-1.876L96.398,704.219z M104.836,692.187
		l1.094,5.625l2.813,0.782l4.843-2.812l4.219-2.501l-1.563-2.344l0.469-2.344l-2.031,1.25l-2.813-0.782l1.563-1.094l1.875,0.782
		l3.75-1.719l0.469-1.407l-2.344-0.78l0.781-1.876l-2.656,1.876l-4.531,3.438l-4.688,2.812L104.836,692.187L104.836,692.187z
		 M145.773,672.969l2.344-1.407l-0.937-1.719l-1.719,0.939L145.773,672.969z"/>
	<path id="FL" fill="#F2D0FF" d="M747.962,581.406l2.019,7.928l3.604,9.417l5.156,9.062l3.594,6.093l4.688,5.313l3.906,3.592
		l1.563,2.812l-1.094,1.25l-0.781,1.25l2.812,7.187l2.813,2.812l2.5,5.156l3.437,5.625l4.376,7.969l1.249,7.346l0.469,11.561
		l0.625,1.719l-0.313,3.281l-2.343,1.25l0.313,1.876l-0.625,1.876l0.312,2.342L786.71,690l-2.656,3.126l-2.969,1.405l-3.749,0.157
		l-1.407,1.562l-2.343,0.937l-1.25-0.468l-1.093-0.937l-0.313-2.812l-0.781-3.281l-3.282-5.002l-3.437-2.187l-3.75-0.312
		l-0.781,1.25l-2.969-4.22l-0.625-3.438l-2.5-3.906l-1.719-1.094l-1.563,2.03l-1.718-0.312l-2.031-4.845l-2.813-3.749l-2.812-5.156
		l-2.5-2.969l-3.438-3.592l2.031-2.344l3.125-5.313l-0.156-1.562l-4.376-0.937l-1.563,0.625l0.313,0.623l2.5,0.939l-1.406,4.374
		l-0.782,0.468l-1.719-3.906l-1.25-4.688l-0.313-2.656l1.407-4.531v-9.219l-2.969-3.592l-1.25-2.969l-5-1.25l-1.876-0.625
		l-1.562-2.499l-3.282-1.564l-1.094-3.281l-2.656-0.937l-2.343-3.594l-4.062-1.405l-2.812-1.407h-2.501l-3.906,0.782l-0.157,1.874
		l0.782,0.939l-0.469,1.094l-2.969-0.157l-3.594,3.438l-3.437,1.876h-3.75l-3.125,1.248l-0.312-2.656l-1.563-1.876l-2.813-1.094
		L673.741,605l-7.812-3.751l-7.344-1.719l-4.219,0.625l-5.781,0.47l-5.782,2.03l-3.362,0.592l-0.23-7.781l-2.5-1.874l-1.719-1.719
		l0.313-2.969l9.844-1.25l24.687-2.812l6.562-0.625l5.937-0.155l2.501,3.749l1.406,1.405l7.656,0.157l10.458-0.625l20.792-1.25
		l5.264-0.65l4.423,0.027l0.157,2.812l2.5,0.78l0.312-4.218l-1.562-4.376l1.093-1.562l5.625,0.782L747.962,581.406L747.962,581.406z
		 M759.916,710.234l2.343-0.625l1.25-0.234l1.406-2.267l2.266-1.562l1.25,0.468l1.64,0.314l0.391,1.014l-3.359,1.173l-4.062,1.405
		l-2.266,1.173L759.916,710.234z M772.963,705.39l1.172,1.016l2.656-2.03l5.156-4.063l3.594-3.751l2.422-6.405l0.937-1.641
		l0.156-3.281l-0.703,0.468l-0.937,2.735l-1.406,4.452l-3.125,5.079l-4.219,4.063l-3.281,1.874L772.963,705.39z"/>
	<path id="SC" fill="#FFD0D0" d="M753.429,550.781l-1.718,0.937l-2.5-1.248l-0.625-2.032l-1.25-3.438l-2.188-2.03l-2.5-0.625
		l-1.563-4.688l-2.656-5.782L734.367,530l-2.031-1.876l-1.25-2.501l-2.031-1.874l-2.188-1.25l-2.188-2.812l-2.969-2.187
		l-4.375-1.719l-0.469-1.407l-2.344-2.812l-0.469-1.405l-3.281-5.002l-3.282,0.157l-3.906-2.344l-1.25-1.248L702.024,500
		l0.781-1.876l2.188-0.939l-0.312-2.03l5.937-2.501l8.75-4.374l7.031-0.78l15.938-0.47l2.187,1.876l1.563,3.126l4.219-0.47
		l12.187-1.405l2.812,0.78l12.187,7.346l9.77,7.849l-5.24,5.276l-2.5,5.936l-0.469,6.095l-1.563,0.78l-1.094,2.656l-2.343,0.625
		l-2.031,3.438l-2.656,2.658l-2.187,3.281l-1.563,0.78l-3.438,3.283l-2.812,0.155l0.937,3.126l-4.843,5.313L753.429,550.781
		L753.429,550.781z"/>
	<path id="GA" fill="#D7FFD0" d="M684.211,497.656l-4.688,0.78l-8.125,1.094l-8.282,0.859v2.11l0.157,2.032l0.625,3.281l3.281,7.655
		l2.344,9.531l1.406,5.938l1.563,4.688l1.406,6.718l2.031,6.093l2.5,3.281l0.469,3.283l1.876,0.78l0.156,2.032l-1.718,4.686
		l-0.47,3.126l-0.156,1.876l1.563,4.218l0.312,5.156l-0.781,2.344l0.624,0.782l1.407,0.78l0.624,3.281l2.501,3.751l1.406,1.405
		l7.656,0.157l10.458-0.625l20.792-1.25l5.264-0.65l4.423,0.025l0.157,2.814l2.5,0.78l0.312-4.218l-1.562-4.376l1.093-1.562
		l5.625,0.782l4.811,0.306l-0.75-6.087l2.188-9.688l1.406-4.063l-0.469-2.499l3.906-6.718l-0.579-1.564l-1.764,0.937l-2.5-1.248
		l-0.625-2.032l-1.25-3.438l-2.188-2.03l-2.5-0.625l-1.563-4.688l-2.656-5.782L734.367,530l-2.031-1.876l-1.25-2.501l-2.031-1.874
		l-2.188-1.25l-2.188-2.812l-2.969-2.187l-4.375-1.719l-0.469-1.407l-2.344-2.812l-0.469-1.405l-3.281-5.002l-3.282,0.157
		l-3.906-2.344l-1.25-1.25l-0.312-1.719l0.781-1.874l2.188-0.939l-0.157-2.207l-1.718,0.488l-5.625,0.939l-6.719,0.78
		L684.211,497.656L684.211,497.656z"/>
	<path id="AL" fill="#FFD0D0" d="M622.335,602.813l-1.562-14.689l-2.655-18.125l0.156-13.594l0.782-30l-0.157-16.094l0.159-6.204
		l7.497-0.358l26.875-2.501l9.831-0.859l-0.143,2.11l0.157,2.03l0.625,3.283l3.281,7.655l2.344,9.531l1.406,5.938l1.563,4.688
		l1.406,6.718l2.031,6.093l2.5,3.281l0.469,3.283l1.876,0.78l0.156,2.032l-1.718,4.686l-0.469,3.126l-0.157,1.876l1.563,4.218
		l0.312,5.156l-0.781,2.344l0.625,0.782l1.406,0.78l0.781,3.438h-6.094l-6.562,0.625l-24.687,2.812l-9.844,1.25l-0.312,2.969
		l1.718,1.719l2.5,1.874l0.562,7.671l-6.344,2.487l-2.656-0.314l2.656-1.874V602.5l-2.97-5.782l-2.187-0.625l-1.407,4.22
		l-1.249,2.656l-0.625-0.155H622.335L622.335,602.813z"/>
	<path id="NC" fill="#F2D0FF" d="M821.932,440.146l1.653,4.541l3.437,6.25l2.343,2.344l0.625,2.187l-2.343,0.157l0.781,0.625
		l-0.312,4.063l-2.5,1.248l-0.625,2.032l-1.25,2.812l-3.594,1.562l-2.343-0.312l-1.406-0.157l-1.563-1.25l0.312,1.25v0.937h1.876
		l0.781,1.25l-1.875,6.093h4.062l0.624,1.564l2.188-2.187l1.25-0.47l-1.876,3.438l-2.969,4.688h-1.249l-1.094-0.468l-2.656,0.625
		l-5,2.344l-6.25,5.156l-3.281,4.531l-1.876,6.25l-0.469,2.342l-4.531,0.47l-5.698,2.145l-9.613-7.928l-12.188-7.344l-2.812-0.78
		l-12.187,1.405l-4.219,0.47l-1.563-3.126l-2.187-1.876l-15.938,0.468l-7.031,0.782l-8.75,4.374l-5.937,2.501l-1.563,0.312
		l-5.625,0.939l-6.719,0.78l-6.562,0.47l0.312-4.688l1.719-1.407l2.656-0.625l0.624-3.592l4.062-2.658l3.75-1.405l4.062-3.438
		l4.219-2.03l0.625-2.969l3.749-3.751l0.625-0.155c0,0,0,1.094,0.782,1.094c0.781,0,1.875,0.312,1.875,0.312l2.188-3.438l2.03-0.625
		l2.188,0.314l1.563-3.438l2.813-2.501l0.469-2.03v-3.829l4.375,0.703l6.897-1.248l15.291-1.876l16.562-2.501l19.913-3.647
		l18.524-3.697l11.095-2.812L821.932,440.146L821.932,440.146z M825.697,472.029l2.5-2.421l3.047-2.499l1.484-0.625l0.157-1.953
		l-0.625-5.938l-1.406-2.267l-0.625-1.796l0.703-0.234l2.656,5.313l0.391,4.297l-0.157,3.281l-3.281,1.485l-2.735,2.344
		l-1.093,1.171L825.697,472.029z"/>
	<path id="TN" fill="#FFFFD0" d="M691.399,461.562l-50.157,4.845l-15.232,1.719l-4.467,0.496l-3.739-0.027v3.749l-8.125,0.468
		l-6.719,0.625l-10.724,0.052l-0.256,5.64l-2.067,6.064l-0.962,2.915l-1.303,4.235l-0.313,2.501l-3.906,2.187l1.406,3.438
		l-0.937,4.218l-1.485,1.641l7.891-0.079l23.282-1.874l5.156-0.157l7.812-0.468l26.875-2.501l9.831-0.78l8.139-0.939l8.125-1.094
		l4.688-0.78l0.312-4.688l1.719-1.407l2.656-0.625l0.624-3.592l4.062-2.658l3.75-1.405l4.062-3.438l4.219-2.03l0.625-2.969
		l3.749-3.751l0.625-0.155c0,0,0,1.094,0.782,1.094c0.781,0,1.875,0.312,1.875,0.312l2.188-3.438l2.03-0.625l2.188,0.314
		l1.563-3.438l2.813-2.501l0.469-2.03l0.17-3.802l-2.201,0.05l-2.344,1.876l-7.656,0.157l-11.593,1.837L691.399,461.562
		L691.399,461.562z"/>
	<path id="RI" fill="#F2D0FF" d="M862.491,325.469l-0.467-4.064l-0.781-4.219l-1.641-5.703l5.547-1.485l1.563,1.094l3.282,4.219
		l2.811,4.297l-2.814,1.485l-1.25-0.156l-1.094,1.718l-2.343,1.875L862.491,325.469L862.491,325.469z"/>
	<path id="CT" fill="#D7FFD0" d="M862.96,325.469l-0.935-4.064l-0.781-4.219l-1.563-5.781l-5,1.094l-21.094,4.61l0.625,3.203
		l1.406,7.031v7.813l-1.094,2.187l1.772,2.039l4.789-3.287l3.437-3.125l1.876-2.031l0.781,0.625l2.656-1.407l5-1.094L862.96,325.469
		L862.96,325.469z"/>
	<path id="MA" fill="#FFD0D0" d="M887.531,319.697l2.099-0.663l0.442-1.657l0.994,0.11l0.995,2.21l-1.215,0.442l-3.756,0.11
		L887.531,319.697L887.531,319.697z M878.472,320.47l2.209-2.541h1.547l1.768,1.437l-2.32,0.994l-2.099,0.994L878.472,320.47
		L878.472,320.47z M844.837,299.217l16.875-4.063l2.187-0.625l2.032-3.125l3.611-1.607l2.793,4.265l-2.344,5l-0.312,1.406l1.875,2.5
		l1.094-0.781h1.719l2.188,2.5l3.749,5.781l3.437,0.469l2.188-0.938l1.719-1.718l-0.782-2.657l-2.031-1.562l-1.406,0.781
		l-0.937-1.25l0.469-0.469l2.031-0.156l1.719,0.781l1.875,2.344l0.937,2.812l0.312,2.344l-4.062,1.406l-3.749,1.875l-3.75,4.375
		l-1.875,1.406v-0.938l2.343-1.406l0.469-1.719l-0.781-2.969l-2.813,1.407l-0.781,1.406l0.469,2.187l-2.656,1.406l-2.654-4.375
		l-3.282-4.219l-1.563-1.094l-5.547,1.485l-4.921,1.015l-21.094,4.61l-0.937-5.547l0.625-10.234l5-0.859L844.837,299.217"/>
	<path id="ME" fill="#F2D0FF" d="M909.992,226.406l1.875,2.031l2.188,3.594v1.875l-2.031,4.531l-1.875,0.625l-3.282,2.969
		l-4.688,5.313c0,0-0.625,0-1.249,0c-0.625,0-0.938-2.031-0.938-2.031l-1.718,0.156l-0.937,1.406l-2.344,1.406l-0.937,1.406
		l1.563,1.407l-0.469,0.625l-0.469,2.656l-1.875-0.156v-1.563l-0.313-1.25l-1.406,0.313l-1.719-3.125l-2.031,1.25l1.25,1.406
		l0.312,1.094l-0.781,1.25l0.312,2.969l0.157,1.563l-1.563,2.5l-2.813,0.469l-0.312,2.812l-5.156,2.969l-1.249,0.469l-1.563-1.406
		l-2.969,3.438l0.937,3.125l-1.407,1.25l-0.156,4.219l-1.525,7.366l-2.379-1.117l-0.47-2.969l-3.749-1.094l-0.313-2.656
		l-7.031-22.657l-4.606-14.28l2.36-0.333l1.463,0.396v-2.5l0.781-5.313l2.5-4.531l1.407-3.906l-1.876-2.344v-5.781l0.782-0.937
		l0.781-2.657l-0.156-1.406l-0.157-4.688l1.719-4.688l2.812-8.594l2.031-4.062h1.249l1.25,0.156v1.094l1.25,2.187l2.656,0.625
		l0.782-0.781v-0.937l3.906-2.812l1.719-1.719l1.406,0.156l5.782,2.344l1.875,0.938l8.75,28.906h5.781l0.782,1.875l0.157,4.688
		l2.812,2.187h0.781l0.157-0.468l-0.469-1.094L909.992,226.406L909.992,226.406z M889.76,255.545l1.485-1.485l1.328,1.016
		l0.546,2.344l-1.64,0.859L889.76,255.545L889.76,255.545z M896.245,249.842l1.719,1.797c0,0,1.25,0.078,1.25-0.234
		s0.234-1.953,0.234-1.953l0.86-0.781l-0.781-1.719l-1.953,0.703L896.245,249.842z"/>
	<path id="NH" fill="#FFFFD0" d="M869.544,289.76l0.292-1.479l1.053-3.181l-2.457-0.883l-0.47-2.969l-3.749-1.094l-0.313-2.656
		l-7.031-22.657l-4.448-14.056l-0.866-0.005l-0.625,1.562l-0.625-0.469l-0.937-0.937l-1.406,1.875l-0.925,5.302l0.301,5.478
		l1.875,2.656v3.906l-3.594,3.906l-2.5,1.094v1.094l1.094,1.719v8.281l-0.781,8.907l-0.157,4.688l0.937,1.25l-0.157,4.375
		l-0.469,1.719l1.407,1.953l16.719-3.984l2.187-0.625l2.032-3.125L869.544,289.76L869.544,289.76z"/>
	<path id="VT" fill="#D7FFD0" d="M833.431,301.561l-0.781-5.469l-2.969-10.625l-0.625-0.313l-2.813-1.25l0.782-2.812l-0.782-2.031
		l-2.5-4.375l0.938-3.75l-0.782-5l-2.343-6.25l-0.779-4.758l26.247-6.96l0.313,5.624l1.875,2.656v3.906l-3.594,3.906l-2.5,1.094
		v1.094l1.094,1.719v8.281l-0.781,8.906l-0.157,4.688l0.937,1.25l-0.157,4.375l-0.469,1.719l1.407,1.953l-6.719,1.328
		L833.431,301.561L833.431,301.561z"/>
	<path id="NY" fill="#F2D0FF" d="M818.118,335.624l-1.094-0.938l-2.5-0.156l-2.187-1.875l-2.344-5.156l-2.903-0.9l-2.253-2.069
		l-17.968,3.906l-41.563,8.438l-8.594,1.406l-0.714-6.69l2.587-1.746l1.25-1.094l0.937-1.562l1.719-1.094l1.875-1.719l0.469-1.562
		l2.032-2.656l1.093-0.937l-0.156-0.938l-1.25-2.969l-1.719-0.156l-1.875-5.937l2.813-1.719l4.218-1.406l3.907-1.25l3.125-0.469
		l6.094-0.156l1.875,1.25l1.563,0.156l2.031-1.25l2.5-1.094l5-0.469l2.031-1.719l1.719-3.125l1.563-1.875h2.031l1.875-1.094
		l0.157-2.187l-1.407-2.031l-0.312-1.406l1.094-2.031v-1.406h-1.719l-1.718-0.781l-0.782-1.094l-0.157-2.5l5.625-5.313l0.625-0.781
		l1.406-2.812l2.813-4.375l2.656-3.593l2.031-2.344l2.334-1.764l2.978-1.204l5.313-1.25l3.125,0.156l4.375-1.406l7.312-2.002
		l0.503,4.813l2.343,6.25l0.781,5l-0.937,3.75l2.5,4.375l0.782,2.031l-0.782,2.812l2.813,1.25l0.625,0.313l2.969,10.625l0.469,5
		l-0.469,10.469l0.781,5.313l0.782,3.437l1.406,7.031v7.813l-1.094,2.187l1.777,1.926l-0.217,1.513l-1.875,1.719l0.312,1.25
		l1.25-0.313l1.406-1.25l2.188-2.5l1.093-0.625l1.563,0.625l2.188,0.156l7.656-3.75l2.813-2.657l1.249-1.406l4.062,1.563
		l-3.282,3.438l-3.749,2.812L846.085,345l-2.5,0.937l-5.625,1.875l-3.906,1.094l-1.464-0.515l-0.565-3.236l0.469-2.656l-0.157-2.031
		l-2.5-1.094l-4.375-0.937l-3.75-1.094L818.118,335.624L818.118,335.624z"/>
	<path id="NJ" fill="#FFFFD0" d="M818.118,335.624l-2.031,2.344v2.969l-1.875,2.969l-0.157,1.562l1.25,1.25l-0.157,2.344
		l-2.188,1.094l0.782,2.656l0.157,1.094l2.656,0.313l0.938,2.5l3.437,2.344l2.343,1.563v0.781l-3.125,2.969l-1.563,2.188
		l-1.406,2.656l-2.187,1.25l-1.173,0.703l-0.234,1.172l-0.588,2.52l1.055,2.169l3.125,2.812l4.688,2.188l3.906,0.625l0.157,1.407
		L825.148,385l0.312,2.656h0.781l2.031-2.344l0.782-4.688l2.656-3.906l2.969-6.25l1.094-5.312l-0.625-1.094L834.991,355
		l-1.563-3.281l-1.094,0.781l-2.655,0.313l-0.469-0.469l1.094-0.937l2.03-1.875l0.061-1.057l-0.371-3.319l0.469-2.656l-0.157-2.031
		l-2.5-1.094l-4.375-0.937l-3.75-1.094L818.118,335.624L818.118,335.624z"/>
	<path id="PA" fill="#D7FFD0" d="M813.9,371.093l1.094-0.625l2.187-1.25l1.406-2.656l1.563-2.188l3.125-2.969v-0.781l-2.343-1.562
		l-3.437-2.344l-0.938-2.5l-2.656-0.313l-0.157-1.094l-0.782-2.657l2.188-1.094l0.157-2.344l-1.25-1.25l0.157-1.562l1.875-2.969
		v-2.969l2.266-2.344l-1.328-0.938l-2.5-0.156l-2.187-1.875l-2.344-5.156l-2.903-0.9l-2.253-2.069l-17.968,3.906l-41.563,8.438
		l-8.594,1.406l-0.478-6.847l-5.304,5.441l-1.25,0.469l-4.062,2.908l2.814,18.497l1.631,10.391l3.452,18.617l4.476-0.726
		l11.544-1.452l36.658-7.409l14.378-2.729l8.023-1.568l1.246-1.218l2.031-1.562H813.9L813.9,371.093z"/>
	<path id="DE" fill="#FFD0D0" d="M812.804,374.375l0.783-2.032l0.234-1.25h-1.953l-2.031,1.562l-1.407,1.406l1.407,4.062
		l2.187,5.469l2.031,9.375l1.563,6.094l4.844-0.156l5.936-1.172l-2.189-7.108l-0.937,0.468l-3.437-2.344l-1.719-4.531l-1.875-3.438
		l-2.188-0.937l-2.031-3.438L812.804,374.375L812.804,374.375z"/>
	<path id="MD" fill="#F2D0FF" d="M826.398,397.656l-5.935,1.249l-4.844,0.156l-1.563-6.094l-2.031-9.375l-2.187-5.469l-1.246-4.251
		l-8.023,1.568l-14.378,2.729l-36.198,7.298l1.094,4.844l0.937,5.469l0.312-0.313l2.031-2.344l2.188-2.969l2.343-0.156l1.406-1.407
		l1.719-2.5l1.25,0.625l2.812-0.313l2.5-2.031l1.94-1.405l1.783-0.468l1.59,1.092l2.812,1.406l1.875,1.719l1.173,1.484l3.984,1.641
		v2.812l5.313,1.25l1.875,1.25l0.937-1.875l2.188,1.562l-1.406,3.125l-0.313,2.657l-1.718,2.5v2.031l0.625,1.719l4.894,1.31
		l4.167-0.06l2.97,0.938l2.031,0.312l0.937-2.031l-1.406-2.031v-1.719l-2.344-2.031l-2.031-5.313l1.25-5.156l-0.157-2.031
		l-1.25-1.25c0,0,1.407-1.562,1.407-2.187c0-0.625,0.469-2.031,0.469-2.031l1.875-1.25l1.875-1.562l0.47,0.937l-1.407,1.562
		l-1.249,3.594l0.312,1.094l1.719,0.313l0.469,5.313l-2.031,0.937l0.312,3.438l0.469-0.156l1.094-1.875l1.563,1.719l-1.563,1.25
		l-0.312,3.281l2.5,3.281l3.749,0.469l1.563-0.781l3.125,5l1.719,0.469v3.437l-2.188,4.688l-0.469,6.719l1.406,3.281l1.407,0.156
		l1.875-4.062l0.781-3.438l0.157-6.875l2.969-4.688l2.031-6.719V397.656L826.398,397.656z M810.541,407.108l1.094,2.422l0.156,1.719
		l1.094,1.797c0,0,0.86-0.859,0.86-1.172c0-0.313-0.703-2.969-0.703-2.969l-0.703-2.266L810.541,407.108z"/>
	<path id="WV" fill="#FFFFD0" d="M750.012,385.533l1.074,4.779l0.938,5.469l0.312-0.313l2.031-2.344l2.188-2.969l2.343-0.156
		l1.406-1.407l1.719-2.5l1.25,0.625l2.813-0.313l2.5-2.031l1.94-1.405l1.783-0.468l1.59,1.092l2.812,1.406l1.875,1.719l1.328,1.25
		l-1.015,4.844l-5.469-2.969l-4.375-1.719l-0.157,5.156l-0.469,2.031l-1.563,2.656l-0.624,1.562l-2.97,2.344l-0.469,2.187
		l-3.281,0.313l-0.313,2.969l-1.093,5.313h-2.5l-1.25-0.781l-1.563-2.656l-1.719,0.156l-0.312,4.219l-2.031,6.406l-4.843,10.469
		l0.781,1.25l-0.157,2.656l-2.031,1.876l-1.406-0.314l-3.125,2.344l-2.5-0.937l-1.719,4.531c0,0-3.593,0.78-4.218,0.937
		c-0.625,0.157-2.344-1.25-2.344-1.25l-2.343,2.187l-2.5,0.625l-2.813-0.78l-1.249-1.25l-2.119-2.923l-3.038-1.921l-2.5-2.657
		l-2.812-3.593l-0.625-2.188l-2.5-1.406l-0.782-1.562l-0.234-5.078l2.109-0.078l1.876-0.781l0.157-2.656l1.562-1.406l0.157-4.844
		l0.937-3.75l1.25-0.625l1.249,1.094l0.469,1.719l1.719-0.937l0.469-1.562l-1.094-1.719v-2.344l0.937-1.25l2.188-3.281l1.25-1.406
		l2.031,0.469l2.187-1.562l2.97-3.281l2.187-3.75l0.313-5.469l0.469-4.844v-4.531l-1.094-2.969l0.937-1.406l1.241-1.25l3.374,19.164
		l4.476-0.726L750.012,385.533L750.012,385.533z"/>
	<path id="VA" fill="#FFD0D0" d="M716.399,438.906l1.875,3.438l1.249,1.25l2.813,0.78l2.5-0.623l2.343-2.189
		c0,0,1.719,1.407,2.344,1.25c0.624-0.157,4.218-0.937,4.218-0.937l1.719-4.531l2.5,0.937l3.125-2.344l1.406,0.314l2.031-1.876
		l0.157-2.656l-0.781-1.25l4.843-10.469l2.031-6.406l0.312-4.219l1.719-0.156l1.563,2.657l1.249,0.781h2.5l1.094-5.313l0.313-2.969
		l3.281-0.313l0.469-2.187l2.97-2.344l0.624-1.562l1.563-2.656l0.469-2.031l0.157-5.156l4.375,1.719l5.469,2.969l0.781-4.922
		l4.062,1.953v2.812l5.313,1.25l1.875,1.25l0.937-1.875l2.188,1.563l-1.406,3.125l-0.313,2.657l-1.718,2.5v2.031l0.624,1.719
		l4.895,1.31l1.823,1.503l5,0.313l2.5,2.188l3.125,0.625l1.25,1.25l-0.47,4.375l0.938,0.937l0.156,2.188l1.25,2.031l-0.156,1.719
		l-3.125-1.094v0.937l1.876,1.562v1.094l1.406,1.094l1.25,1.562l0.157,2.187l-2.188,1.407l0.313,0.468l2.5-0.468l3.125-0.625
		l1.094-0.157l3.939,6.792l-4.72,1.645l-11.094,2.812l-18.524,3.697l-19.913,3.647l-16.563,2.501l-15.29,1.876l-6.897,1.248
		l-4.361-0.596l-2.046-0.029l-2.343,1.876l-7.656,0.157l-11.593,1.837l-9.664,0.902l2.664-1.334l5.469-3.281l3.75-2.03v-2.032
		l1.718-1.719l4.376-5.156l4.062-3.438L716.399,438.906L716.399,438.906z"/>
	<path id="KY" fill="#D7FFD0" d="M716.288,439.624l-3.014,3.031l-4.062,3.438l-4.376,5.156l-1.718,1.719V455l-3.75,2.03
		l-5.469,3.281l-2.524,1.359l-50.133,4.736l-15.232,1.719l-4.467,0.496l-3.739-0.027v3.749l-8.125,0.468l-6.719,0.625l-10.081,0.199
		l0.971-1.202l2.107-1.703l1.989-1.103l0.221-3.095l0.884-1.767l-1.553-2.454l0.775-1.843l2.188-1.719l2.03-0.625l2.656,1.25
		l3.438,1.25l1.093-0.314l0.157-2.187l-1.249-2.344l0.312-2.187l1.875-1.405l2.5-0.625l1.563-0.625l-0.781-1.719l-0.625-1.876
		l1.094-0.78l1.015-3.203l2.891-1.641l5.625-0.937l3.437-0.468l1.407,1.874l1.718,0.782l1.719-3.126l2.812-1.405l1.876,1.562
		l0.781,1.094l2.031-0.468l-0.157-3.281l2.813-1.563l1.094-0.781l1.094,1.562h4.531l0.781-2.03l-0.312-2.188l2.812-3.437l4.531-3.75
		l0.469-4.375l2.656-0.313l3.75-1.719l2.656-1.875L666.242,415l-1.406-1.407l0.546-2.109l3.985-0.234l2.343-0.781l2.813,1.562
		l1.563,4.219l5.625,0.312l1.718,1.719l2.031,0.156l2.344-1.406l2.969,0.469l1.249,1.406l2.656-2.5l1.719-1.25h1.563l0.625,2.657
		l1.718,0.937l3.437,2.031l0.157,5.312l0.782,1.562l2.5,1.406l0.624,2.188l2.813,3.593l2.5,2.657L716.288,439.624z"/>
	<path id="OH" fill="#FFD0D0" d="M725.618,340.035l-6.876,4.027l-3.75,2.187l-3.281,3.594l-3.907,3.75l-3.125,0.781l-2.812,0.469
		l-5.313,2.5l-2.031,0.156l-3.281-2.969l-5,0.625l-2.5-1.406l-2.302-1.306l-4.729,0.68l-9.844,1.562l-7.5,1.172l1.25,14.14
		l1.719,13.282l2.5,22.656l0.546,5.547l3.985-0.234l2.343-0.781l2.813,1.562l1.563,4.219l5.625,0.312l1.718,1.719l2.031,0.156
		l2.344-1.406l2.969,0.469l1.249,1.406l2.656-2.5l1.719-1.25h1.563l0.624,2.657l1.719,0.937l3.359,2.266l2.109-0.078l1.876-0.781
		l0.156-2.656l1.563-1.406l0.157-4.844l0.937-3.75l1.25-0.625l1.249,1.094l0.469,1.719l1.719-0.937l0.469-1.563l-1.094-1.718v-2.344
		l0.937-1.25l2.188-3.281l1.25-1.406l2.031,0.469l2.187-1.562l2.969-3.281l2.188-3.75l0.313-5.469l0.469-4.844v-4.531l-1.094-2.969
		l0.937-1.406l1.328-0.704l-1.797-10.391L725.618,340.035L725.618,340.035z"/>
	<path id="MI" fill="#D7FFD0" d="M579.828,230.976l1.768-1.989l2.099-0.773l5.193-3.757l2.209-0.552l0.442,0.442l-4.973,4.972
		l-3.204,1.878l-1.988,0.884L579.828,230.976L579.828,230.976z M663.119,262.029l0.624,2.422l3.125,0.156l1.25-1.172
		c0,0-0.079-1.406-0.391-1.562s-1.563-1.797-1.563-1.797l-2.109,0.234l-1.563,0.156l-0.313,1.094L663.119,262.029z M692.179,322.969
		L689.054,315l-2.187-8.75l-2.344-3.125l-2.5-1.719l-1.563,1.094l-3.75,1.719l-1.875,4.844l-2.656,3.594l-1.093,0.625l-1.407-0.625
		c0,0-2.5-1.406-2.343-2.031c0.157-0.625,0.469-4.844,0.469-4.844l3.282-1.25l0.781-3.281l0.625-2.5l2.343-1.562l-0.312-9.688
		l-1.563-2.188l-1.25-0.781l-0.781-2.031l0.781-0.781l1.563,0.313l0.157-1.562l-2.343-2.188l-1.25-2.5h-2.5l-4.375-1.406
		l-5.313-3.281h-2.656l-0.625,0.625l-0.937-0.468l-2.969-2.188l-2.812,1.719l-2.813,2.187l0.312,3.438l0.938,0.313l2.031,0.469
		l0.469,0.781l-2.5,0.781l-2.5,0.312l-1.407,1.719l-0.312,2.031l0.312,1.563l0.313,5.313l-3.437,2.031l-0.625-0.156V287.5
		l1.249-2.344l0.625-2.344l-0.781-0.781l-1.876,0.781l-0.937,4.062l-2.656,1.094l-1.718,1.875l-0.157,0.938l0.625,0.781l-0.625,2.5
		l-2.188,0.469v1.094l0.782,2.344l-1.094,5.937l-1.563,3.906l0.625,4.531l0.469,1.094l-0.782,2.344l-0.312,0.781l-0.312,2.657
		l3.437,5.781l2.812,6.25l1.407,4.688l-0.782,4.531l-0.937,5.781l-2.343,5l-0.313,2.656l-2.979,3.007l-0.719,0.743l4.481-0.157
		l21.25-2.187l5.937-0.625l0.313,1.172l7.5-1.172l9.844-1.562l5.041-0.445l-1.292-1.116l0.157-1.406l2.031-3.594l1.933-1.68
		L684.366,340l1.544-1.544l1.054-0.331l0.215-3.437l1.484-2.93l1.016,0.586l0.157,0.625l0.781,0.156l1.875-0.938L692.179,322.969z
		 M565.077,259.594l1.789-1l2.656-0.781l3.437-2.187v-0.938l0.625-0.625l5.782-0.938l2.343-1.875l4.219-2.031l0.157-1.25
		l1.875-2.813l1.719-0.781l1.249-1.719l2.188-2.188l4.218-2.344l4.532-0.469l1.093,1.094l-0.312,0.938l-3.594,0.937l-1.406,2.969
		l-2.188,0.781l-0.469,2.344l-2.343,3.125l-0.313,2.5l0.782,0.468l0.937-1.094l3.437-2.812l1.25,1.25h2.187l3.125,0.938l1.406,1.094
		l1.407,2.969l2.656,2.656l3.749-0.156l1.406-0.937l1.563,1.25l1.563,0.469l1.25-0.781h1.094l1.563-0.937l3.906-3.438l3.281-1.094
		l6.407-0.313l4.375-1.875l2.5-1.25l1.407,0.156v5.469l0.469,0.313l2.812,0.781l1.875-0.469l5.938-1.562l1.094-1.094l1.406,0.468
		v6.719l3.125,2.969l1.249,0.625l1.25,0.937l-1.25,0.313l-0.781-0.313l-3.594-0.469l-2.031,0.625l-2.188-0.156l-3.125,1.406h-1.718
		l-5.625-1.25l-5,0.156l-1.876,2.5l-6.719,0.625l-2.343,0.781l-1.094,2.969l-1.25,1.094l-0.469-0.156l-1.407-1.562l-4.375,2.344
		h-0.625l-1.094-1.562l-0.781,0.156l-1.875,4.219l-0.938,3.906l-3.623,7.863l-1.576-1.11l-1.325-1.325l-1.547-9.944l-3.535-1.105
		l-1.325-2.209l-12.153-2.652l-2.431-1.105l-7.955-2.21l-7.955-1.105L565.077,259.594L565.077,259.594z"/>
	<path id="WY" fill="#FFD0D0" d="M361.001,290.783l-11.127-0.935l-31.014-3.185l-15.689-1.989l-27.4-3.977l-19.224-2.873
		l-1.372,10.802l-3.71,23.449l-5.082,29.389l-1.479,10.164l-1.614,11.491l6.306,0.897l16.322,2.21l8.536,1.137l19.881,2.385
		l36.018,3.978l23.644,1.989l4.199-42.868l1.547-24.528L361.001,290.783L361.001,290.783z"/>
	<path id="MT" fill="#FFFFD0" d="M363.184,270.31l0.781-11.243l2.183-24.113l1.326-14.584l1.218-13.755l-30.888-3.179L309.523,200
		l-28.281-3.906l-31.25-5.156l-17.813-3.281l-31.629-6.701l-4.329,20.633l3.315,7.292l-1.326,4.419l1.768,4.419l3.094,1.326
		l3.535,9.944l3.535,3.535l0.442,1.105l3.315,1.105l0.442,1.989l-6.85,17.015v2.431l2.43,3.094h0.884l4.641-2.873l0.663-1.105
		l1.547,0.663l-0.221,5.082l2.652,12.154l2.872,2.431l0.884,0.663l1.768,2.209l-0.441,3.315l0.663,3.315l1.105,0.884l2.21-2.209
		h2.652l3.094,1.547l2.431-0.884h3.977l3.535,1.547l2.652-0.442l0.442-2.872l2.872-0.663l1.326,1.326l0.441,3.094l2.496,2.405
		l1.482-11.023l19.224,2.873l27.4,3.978l15.689,1.988l31.014,3.186l11.088,1.163l1.637-15.376L363.184,270.31L363.184,270.31z"/>
	<path id="ID" fill="#D7FFD0" d="M153.625,323.292l4.589-17.847l4.199-17.126l1.326-4.088l2.431-5.745l-1.215-2.209l-2.431,0.11
		l-0.773-0.994l0.442-1.105l0.331-2.983l4.309-5.303l1.768-0.442l1.105-1.105l0.552-3.094l0.884-0.663l3.757-5.635l3.756-4.199
		l0.221-3.646l-3.315-2.541l-1.27-4.253l0.387-9.336l3.535-15.91l4.309-20.108l3.646-13.038l0.736-3.676l13.647,2.599l-4.329,20.633
		l3.315,7.292l-1.326,4.419l1.768,4.419l3.094,1.326l3.535,9.944l3.535,3.535l0.442,1.105l3.315,1.105l0.442,1.988l-6.85,17.015
		v2.431l2.43,3.094h0.884l4.641-2.873l0.663-1.105l1.547,0.663l-0.221,5.082l2.652,12.153l2.872,2.431l0.884,0.663l1.768,2.209
		l-0.442,3.315l0.663,3.315l1.105,0.884l2.21-2.209h2.652l3.094,1.547l2.431-0.884h3.977l3.535,1.547l2.652-0.442l0.442-2.873
		l2.872-0.662l1.326,1.325l0.442,3.094l2.541,1.988l-3.646,23.644l-4.972,29.279l-4.641-0.773l-8.066-1.326l-9.944-1.768
		l-11.601-1.989l-12.264-2.265l-7.734-1.933l-8.95-1.768l-9.391-1.878L153.625,323.292L153.625,323.292z"/>
	<path id="WA" fill="#FFD0D0" d="M108.117,157.813l4.219,1.406l9.375,2.656l8.282,1.875l19.375,5.469l22.188,5.469l15.584,3.591
		l-0.97,3.754l-3.646,13.038l-4.309,20.108l-3.535,15.91l-0.185,9.376l-13.515-3.299l-14.584-3.425l-14.915,0.11l-0.442-1.325
		l-5.303,1.988l-4.309-0.552l-2.321-1.547l-1.215,0.663l-4.53-0.221l-1.657-1.325l-5.082-1.989l-0.774,0.11l-4.199-1.436
		l-1.878,1.768l-5.966-0.331l-5.745-3.977l0.663-0.774l0.221-7.513l-2.21-3.756l-3.977-0.553l-0.663-2.431l-2.275-0.451
		l-1.855-1.447l-1.719,0.937l-2.187-2.812l0.312-2.812l2.656-0.313l1.563-3.906l-2.5-1.094l0.156-3.593l4.219-0.625l-2.656-2.656
		L76.398,185l0.625-2.812v-7.656l-1.719-3.125l2.187-9.062l2.031,0.469l2.344,2.812l2.656,2.5L87.648,170l4.375,2.031l2.969,0.625
		l2.813,1.406l3.281,0.938l2.188-0.156V172.5l1.25-1.094l2.031-1.25l0.313,1.094l0.312,1.719l-2.187,0.469l-0.313,2.031l1.719,1.406
		l1.093,2.344l0.625,1.875l1.406-0.156l0.157-1.25l-0.938-1.25l-0.469-3.125l0.781-1.718l-0.625-1.406V170l1.719-3.438l-1.094-2.5
		l-2.344-4.688l0.313-0.781L108.117,157.813L108.117,157.813z M98.976,163.591l1.953-0.156l0.469,1.328l1.484-1.562h2.266
		l0.781,1.484l-1.484,1.641l0.625,0.781l-0.703,1.953l-1.328,0.391c0,0-0.86,0.078-0.86-0.235c0-0.312,1.406-2.5,1.406-2.5
		l-1.64-0.547l-0.313,1.406l-0.703,0.625l-1.484-2.187L98.976,163.591L98.976,163.591z"/>
	<path id="TX" fill="#D7FFD0" d="M362.779,473.88l21.931,1.049l30.052,1.105l-1.326,22.981l-0.442,17.236l0.221,1.547l4.199,3.536
		l1.988,1.103l0.663-0.221l0.663-1.988l1.325,1.767h1.989v-1.326l2.652,1.326l-0.442,3.757l3.978,0.221l2.43,1.105l3.978,0.662
		l2.431,1.769l2.209-1.99l3.315,0.664l2.431,3.314h0.884v2.21l2.21,0.662l2.209-2.21l1.768,0.664h2.431l0.884,2.431l4.64,1.767
		l1.326-0.662l1.768-3.978h1.105l1.105,1.988l3.978,0.664l3.535,1.326l2.872,0.883l1.768-0.883l0.663-2.431h4.199l1.988,0.883
		l2.652-1.988h1.106l0.662,1.547h3.978l1.547-1.988l1.768,0.441l1.988,2.431l3.094,1.767l3.093,0.885l2.652,1.216l2.21,1.878
		l2.872-1.326l2.652,1.105l0.65,10.731l0.014,9.378l0.663,9.059l0.662,3.757l2.431,3.978l0.884,4.86l4.199,5.304l0.221,3.095
		l0.663,0.662l-0.663,8.176l-2.872,4.862l1.547,1.988l-0.663,2.431l-0.663,7.071l-1.325,3.093l0.273,3.465l-6.25,1.688l-9.532,4.374
		l-0.937,1.876l-2.5,1.874l-2.031,1.407l-1.249,0.782l-5.469,5.154l-2.656,2.032l-5.156,3.124l-5.469,2.344l-6.094,3.281
		l-1.718,1.407l-5.625,3.438l-3.282,0.625l-3.749,5.311l-3.907,0.314l-0.937,1.876l2.188,1.874l-1.406,5.313l-1.25,4.374
		l-1.094,3.751l-0.781,4.374l0.781,2.344l1.719,6.718l0.937,5.936l1.719,2.658l-0.938,1.405l-2.969,1.876l-5.469-3.749l-5.312-1.094
		l-1.25,0.468l-3.125-0.625l-4.062-2.969l-5-1.094l-7.344-3.281l-2.031-3.751l-1.249-6.25L417.023,680l-0.625-2.187l0.625-0.625
		l0.312-3.283l-1.249-0.623l-0.625-0.939l1.25-4.218l-1.563-2.189l-3.125-1.248l-3.281-4.22l-3.438-6.407l-4.062-2.499l0.157-1.876
		l-5.156-11.875l-0.781-4.063l-1.719-1.876l-0.157-1.405l-5.781-5.156l-2.5-2.969v-1.094l-2.5-2.03l-6.563-1.094l-7.187-0.625
		l-2.969-2.187l-4.375,1.719l-3.438,1.405l-2.187,3.126l-0.938,3.592l-4.219,5.938l-2.344,2.344l-2.5-0.939l-1.719-1.094
		l-1.875-0.625l-3.75-2.187v-0.625l-1.719-1.874l-5-2.032l-7.187-7.5l-2.188-4.531v-7.812l-3.125-6.25l-0.469-2.656l-1.563-0.937
		l-1.093-2.032l-4.844-2.03l-1.25-1.564l-6.875-7.655l-1.25-3.126l-4.532-2.187l-1.406-4.218l-2.5-2.812l-1.875-0.47l-0.628-4.52
		l7.734,0.662l28.064,2.652l28.063,1.547l2.21-22.981l3.757-53.695l1.547-18.119l1.326,0.027 M459.603,699.999l-0.547-6.875
		l-2.656-6.953l-0.546-6.798l1.485-7.969l3.203-6.639l3.359-5.236l3.046-3.438l0.625,0.236l-4.61,6.405l-4.218,6.329l-1.953,6.405
		l-0.312,5.002l0.86,5.936l2.5,6.953l0.469,5.002l0.156,1.405L459.603,699.999z"/>
	<path id="CA" fill="#D7FFD0" d="M150.46,526.094l3.998-0.782l1.436-2.1l0.552-2.652l-3.535-0.552l-0.442-0.774l0.442-1.657
		l0.11-5.634l1.989-0.664l2.762-2.652l0.553-4.75l1.436-3.536l1.878-1.878l3.315-1.657l1.547-1.326l0.111-2.21l-0.995-0.552
		l-0.773-0.995l-1.215-5.634l-2.652-4.752l0.559-3.157l-2.438-3.14l-14.032-21.988l-18.782-28.063l-21.987-32.704l-11.967-17.96
		l1.581-6.347l6.74-25.08l7.844-30.383l-13.037-3.535l-13.037-3.315l-12.153-3.978l-7.292-1.988l-11.048-2.873l-6.815-2.331
		l-1.528,4.566l-0.156,7.188l-5,11.406l-2.969,2.5l-0.312,1.094l-1.719,0.781l-1.406,4.062l-0.781,3.125l2.656,4.062l1.563,4.063
		l1.094,3.438l-0.313,6.25L34.523,350l-0.625,5.625l-0.937,3.594l1.719,3.75l2.656,4.375l2.187,4.688l1.25,3.907l-0.312,3.125
		l-0.313,0.468v2.031l5.469,6.094L45.148,390l-0.625,2.187l-0.625,1.875l0.156,7.969l2.031,3.594l1.875,2.5l2.656,0.469l0.937,2.656
		l-1.094,3.438l-2.031,1.562h-1.093L46.554,420l0.469,2.813l3.125,4.219l1.562,5.156l1.407,4.531l1.25,2.969l3.281,5.625
		l1.407,2.501l0.469,2.812l1.563,0.937v2.344l-0.781,1.876l-1.719,6.873l-0.469,1.876l2.344,2.656l4.062,0.47l4.375,1.719l3.75,2.03
		h2.813l2.813,2.969l2.5,4.688l1.094,2.187l3.75,2.03l4.688,0.782l1.406,2.03l0.625,3.126l-1.407,0.625l0.313,0.937l3.125,0.782
		l2.656,0.155l2.813,4.531l3.75,4.063l0.781,2.187l2.5,4.063l0.312,3.126v9.062l0.469,1.719l9.688,1.405l19.062,2.656
		L150.46,526.094L150.46,526.094z M64.836,477.42l1.25,1.485l-0.157,1.25l-3.125-0.077l-0.546-1.173l-0.625-1.405L64.836,477.42
		L64.836,477.42z M66.71,477.42l1.172-0.625l3.437,2.032l2.969,1.171l-0.859,0.625l-4.375-0.234l-1.563-1.562L66.71,477.42
		L66.71,477.42z M86.711,496.561l1.719,2.267l0.781,0.937l1.484,0.548l0.547-1.407l-0.937-1.719l-2.578-1.953l-1.016,0.157V496.561z
		 M85.304,504.921l1.719,3.047l1.172,1.876l-1.407,0.234l-1.25-1.173c0,0-0.703-1.405-0.703-1.796s0-2.11,0-2.11L85.304,504.921
		L85.304,504.921z"/>
	<path id="AZ" fill="#FFFFD0" d="M150.812,526.195l-2.539,2.087l-0.313,1.405l0.469,0.939l18.281,10.313l11.719,7.344l14.219,8.28
		l16.25,9.688l11.875,2.344l25.838,3.389l1.981-12.864l3.627-26.02l6.732-51.421l4.115-29.775l-24.86-3.711l-26.295-4.419
		l-32.31-6.107l-2.824,17.486l-0.442,0.441l-1.657,2.541l-2.43-0.11l-1.215-2.652l-2.652-0.331l-0.884-1.105h-0.884l-0.884,0.554
		l-1.879,0.993l-0.11,6.74l-0.221,1.657l-0.553,12.154l-1.436,2.1l-0.552,3.203l2.652,4.752l1.215,5.634l0.773,0.995l0.995,0.552
		l-0.111,2.21l-1.547,1.326l-3.315,1.657l-1.878,1.878l-1.436,3.536l-0.553,4.75l-2.762,2.652l-1.989,0.664l-0.11,5.634
		l-0.442,1.657l0.442,0.774l3.535,0.552l-0.552,2.652l-1.436,2.1L150.812,526.195L150.812,526.195z"/>
	<path id="NV" fill="#FFD0D0" d="M153.625,323.292l20.278,4.36l9.391,1.878l8.95,1.768l7.789,2.044l-1.16,5.358l-3.425,16.904
		l-3.646,19.777L189.924,384l-2.099,13.148l-3.204,16.02l-3.094,14.695l-1.902,10.15l-2.848,17.14l-0.442,0.441l-1.657,2.541
		l-2.43-0.11l-1.215-2.652l-2.652-0.331l-0.884-1.105h-0.884l-0.884,0.554l-1.879,0.993l-0.11,6.74l-0.221,1.657l-0.553,12.154
		l-1.433,2.123l-2.434-3.116l-14.032-21.988l-18.782-28.063l-21.987-32.704l-11.967-17.96l1.581-6.347l6.74-25.08l7.623-30.299
		l32.483,7.87l13.258,2.872"/>
	<path id="UT" fill="#F2D0FF" d="M262.954,452.17l-24.748-3.978l-26.296-4.419l-32.384-5.974l2.001-9.936l3.094-14.695l3.204-16.02
		L189.924,384l1.879-8.618l3.646-19.777l3.425-16.904l1.077-5.386l12.292,2.182l11.601,1.989l9.944,1.768l8.066,1.326l4.641,0.773
		l-1.59,10.275l-1.614,11.491l6.306,0.897l16.323,2.21l8.866,1.137l-2.99,21.388l-3.094,21.655l-3.627,27.049l-1.455,10.737
		L262.954,452.17L262.954,452.17z"/>
	<path id="CO" fill="#D7FFD0" d="M380.732,463.66l3.978-63.639l1.547-21.655l-32.262-2.651l-23.644-1.989l-36.018-3.978
		l-19.998-2.431l-2.541,21.434l-3.094,21.655l-3.627,27.05l-1.455,10.737l-0.552,3.757l33.256,3.978l35.702,4.278l31.666,2.129
		l6.436,0.664l11.048,0.552"/>
	<path id="NM" fill="#FFD0D0" d="M292.023,568.437l-0.784-4.676l7.734,0.662l28.064,2.652l28.063,1.547l2.21-22.981l3.756-53.695
		l1.547-18.119l1.326,0.027l-0.014-11.325l-31.901-2.323l-35.702-4.28l-33.311-3.976l-4.06,29.727l-6.732,51.423l-3.627,26.02
		l-1.981,12.864l14.943,1.922l1.25-9.686l16.094,2.499L292.023,568.437L292.023,568.437z"/>
	<path id="OR" fill="#F2D0FF" d="M153.905,322.902l4.309-17.457l4.199-17.126l1.326-4.088l2.431-5.745l-1.215-2.209l-2.431,0.11
		l-0.773-0.994l0.442-1.105l0.331-2.983l4.309-5.303l1.768-0.442l1.105-1.105l0.552-3.094l0.884-0.663l3.757-5.635l3.756-4.199
		l0.221-3.646l-3.315-2.541l-1.013-4.049l-13.571-3.464l-14.584-3.425l-14.915,0.11l-0.442-1.326l-5.303,1.989l-4.309-0.552
		l-2.321-1.547l-1.215,0.663l-4.53-0.221l-1.657-1.326l-5.082-1.988l-0.774,0.11l-4.199-1.436l-1.878,1.768l-5.966-0.331
		l-5.745-3.978l0.663-0.773l0.221-7.513l-2.21-3.756l-3.977-0.553l-0.663-2.431l-2.275-0.451l-5.605,1.99l-2.187,6.25l-3.125,9.687
		l-3.125,6.25l-4.844,13.594l-6.25,13.125l-7.812,12.187l-1.875,2.812l-0.781,8.281l-1.25,5.781l2.152,4.34l6.815,2.331
		l11.048,2.873l7.292,1.988l12.153,3.978l13.037,3.315l13.037,3.756 M153.625,323.292l-45.35-10.691l32.482,7.87l13.258,2.872"/>
	<path id="ND" fill="#D7FFD0" d="M473.982,275.835l-0.663-8.176l-1.768-7.071l-1.768-13.038l-0.441-9.502l-1.768-3.314l-1.547-4.862
		v-9.944l0.663-3.757l-1.89-5.315l-28.402-0.545l-17.969-0.625l-25.625-1.25l-24.111-1.821l-1.218,13.754l-1.326,14.584
		l-2.183,24.113l-0.625,11.737l54.294,3.483L473.982,275.835L473.982,275.835z"/>
	<path id="SD" fill="#F2D0FF" d="M475.424,348.82l-0.922-1.975l-1.625-2.73l1.768-4.199l1.325-5.524l-2.652-1.989l-0.441-2.651
		l0.884-2.431h1.768l0.441-6.629l-0.221-29.389l-0.442-2.873l-3.977-3.314l-1.105-1.768v-1.547l1.988-1.547l1.325-1.326l0.332-3.094
		l-56.237-1.547l-54.294-3.757l-0.741,5.103l-1.559,15.337l-1.3,17.346l-1.547,24.859l15.026,0.994l19.446,1.105l17.235,1.105
		l22.982,1.105l10.386-0.442l1.988,2.21l4.64,2.872l1.106,0.884l4.198-1.326l3.757-0.442l2.652-0.221l1.768,1.326l4.861,1.547
		l2.873,1.547l0.441,1.547l0.884,1.989h1.768L475.424,348.82L475.424,348.82z"/>
	<path id="NE" fill="#FFFFD0" d="M486.799,390.077l1.325,2.431l-0.221,2.209l2.431,3.757l3.093,3.978h-5.966l-42.647-0.442
		l-39.111-1.326l-21.103-0.773l1.657-21.545l-32.262-2.652l4.199-42.537l15.026,0.994l19.446,1.105l17.235,1.105l22.982,1.105
		l10.386-0.442l1.988,2.21l4.64,2.872l1.106,0.884l4.198-1.326l3.757-0.442l2.652-0.221l1.768,1.326l4.861,1.547l2.873,1.547
		l0.441,1.547l0.884,1.988h1.768l1.547-0.11l1.105,5.193l2.652,7.292l0.884,4.64l2.21,3.536l0.663,5.082l1.546,3.977l0.222,6.408
		l1.873,5.317"/>
	<path id="IA" fill="#D7FFD0" d="M566.292,346.324l0.055,1.768l2.21,0.663l0.884,1.105l0.441,1.768l3.757,3.315l0.662,2.21
		l-0.662,3.315l-1.768,3.535l-0.663,2.431l-2.21,1.768l-1.768,0.663l-5.083,1.325l-0.662,1.768l-0.663,1.989l0.663,1.326
		l1.768,1.547l-0.222,3.977l-1.768,1.547l-0.662,1.547v2.651l-1.768,0.442l-1.547,1.105l-0.221,1.326l0.221,1.989l-1.658,1.713
		l-3.204-3.26l-1.105-2.21l-7.513,0.663l-9.502,0.442l-24.528,0.884l-13.037,0.221l-9.059,0.221l-1.053,0.117l-1.599-5.199
		l-0.222-6.408l-1.546-3.978l-0.663-5.082l-2.21-3.535l-0.884-4.641l-2.652-7.292l-1.105-5.193l-1.326-2.099l-1.546-2.652
		l1.768-4.199l1.325-5.524l-2.652-1.989l-0.441-2.651l0.884-2.431h1.657h11.159l47.951-0.663l17.458-0.663l3.977-0.111l0.663,3.204
		l2.209,1.547l0.222,1.326l-1.989,3.315l0.222,3.094l2.43,3.756l2.431,1.105l2.872,0.442L566.292,346.324L566.292,346.324z"/>
	<path id="MS" fill="#F2D0FF" d="M622.208,603.005l-1.123,1.214h-5l-1.407-0.78l-2.031-0.314L606.085,605l-1.718-0.782l-2.5,4.063
		l-1.066,0.753l-1.086-2.406l-1.106-3.757l-3.315-3.093l1.106-7.291l-0.663-0.885l-1.768,0.221l-7.955,0.664l-23.423,0.662
		l-0.442-1.547l0.663-7.735l3.315-5.965l5.082-8.838l-0.884-1.99h1.105l0.663-3.093l-2.21-1.767l0.222-1.769l-1.989-4.419
		l-0.276-5.166l1.326-2.569l-0.387-4.198l-1.326-2.872l1.326-1.326l-1.326-1.988l0.442-1.769l0.884-5.965l2.872-2.652l-0.663-1.988
		l3.536-5.083l2.652-0.885v-2.431l-0.663-1.326l2.652-5.081l2.652-1.105l0.104-3.298l8.385-0.076l23.282-1.874l5.304-0.221
		l0.008,6.157l0.157,16.094l-0.782,30l-0.156,13.594l2.656,18.125L622.208,603.005L622.208,603.005z"/>
	<path id="IN" fill="#F2D0FF" d="M615.618,443.437l-0.157-3.749l0.469-4.376l2.188-2.812l1.718-3.749l2.5-4.063l-0.469-5.625
		l-1.718-2.656l-0.313-3.125l0.782-5.313l-0.469-6.719l-1.25-15.469l-1.249-14.844l-0.938-11.328l2.969,0.86l1.406,0.937
		l1.094-0.312l2.031-1.875l2.734-1.563l4.923-0.157l21.25-2.187l5.937-0.625l0.157,1.094l1.406,14.218l1.719,13.282l2.5,22.656
		l0.469,5.469l-0.469,2.188l1.406,1.406l0.312,1.875l-2.655,1.875l-3.75,1.719l-2.656,0.313l-0.469,4.375l-4.531,3.75l-2.812,3.437
		l0.312,2.188l-0.781,2.03h-4.531L643.587,435l-1.094,0.781l-2.813,1.563l0.157,3.281l-2.031,0.468l-0.781-1.094l-1.876-1.562
		l-2.812,1.405l-1.719,3.126l-1.718-0.782l-1.407-1.874l-3.437,0.468l-5.625,0.937L615.618,443.437L615.618,443.437z"/>
	<path id="IL" fill="#FFD0D0" d="M615.461,443.28v-3.592l0.469-4.376l2.188-2.812l1.718-3.749l2.5-4.063l-0.469-5.625l-1.718-2.656
		l-0.313-3.125l0.782-5.313l-0.469-6.719l-1.25-15.469l-1.249-14.844l-0.782-11.25l-1.25-0.781l-0.782-2.5l-1.249-3.594
		l-1.563-1.719l-1.407-2.5l-0.226-5.305l-9.571,1.268l-26.295,1.657l-8.397-0.414l0.221,2.293l2.21,0.662l0.884,1.105l0.441,1.768
		l3.757,3.315l0.662,2.21l-0.662,3.315l-1.768,3.535l-0.663,2.431l-2.21,1.768l-1.768,0.663l-5.083,1.325l-0.662,1.768l-0.663,1.988
		l0.663,1.326l1.768,1.547l-0.222,3.978l-1.768,1.547l-0.662,1.547v2.652l-1.768,0.442l-1.547,1.105l-0.221,1.326l0.221,1.989
		l-1.658,1.271l-0.994,2.707l0.441,3.535l2.21,7.071l7.071,7.292l5.303,3.535l-0.221,4.199l0.884,1.326l6.187,0.442l2.652,1.326
		l-0.663,3.535l-2.209,5.745l-0.663,3.093l2.21,3.757l6.187,5.083l4.419,0.662l1.988,4.862l1.988,3.093l-0.884,2.872l1.547,3.978
		l1.768,1.99l2.867-0.327l0.554-1.982l2.188-1.719l2.031-0.625l2.656,1.25l3.438,1.25l1.093-0.314l0.157-2.187l-1.249-2.344
		l0.312-2.187l1.875-1.405l2.5-0.625l1.563-0.625l-0.781-1.719l-0.625-1.876l1.094-0.78L615.461,443.28L615.461,443.28z"/>
	<path id="MN" fill="#FFD0D0" d="M473.761,275.835l-0.442-8.176l-1.768-7.071l-1.768-13.038l-0.441-9.502l-1.768-3.314l-1.547-4.862
		v-9.944l0.663-3.757l-1.76-5.269l29.124,0.034l0.312-7.969l0.625-0.156l2.187,0.468l1.876,0.781l0.781,5.313l1.406,5.937
		l1.563,1.562h4.688l0.313,1.406l6.094,0.312v2.031h4.687l0.313-1.25l1.094-1.094l2.187-0.625l1.25,0.937h2.812l3.75,2.5
		l5.156,2.344l2.343,0.469l0.469-0.937l1.406-0.469l0.47,2.812l2.5,1.25l0.469-0.468l1.249,0.156v2.031l2.5,0.938h2.969l1.563-0.781
		l3.125-3.125l2.5-0.469l0.782,1.719l0.469,1.25h0.937l0.937-0.781l8.594-0.313l1.719,2.969h0.625l0.689-1.048l4.291-0.359
		l-0.591,2.203l-3.807,1.776l-8.937,3.925l-4.615,1.94l-2.969,2.5l-2.343,3.438l-2.188,3.75l-1.719,0.781l-4.375,4.844l-1.25,0.156
		l-3.281,2.969l0.665,0.525l-2.723,2.616l-0.221,2.652v8.176l-1.105,1.547l-5.082,3.757l-2.21,5.745l0.442,0.221l2.431,1.989
		l0.662,3.094l-1.768,3.094v3.757l0.442,6.408l2.872,2.872h3.315l1.768,3.094l3.315,0.442l3.756,5.525l6.85,3.977l1.988,2.652
		l0.884,7.292h-3.977l-17.457,0.663l-47.951,0.663h-11.16l0.552-6.629l-0.221-29.389l-0.441-2.873l-3.978-3.314l-1.105-1.768v-1.547
		l1.988-1.547l1.326-1.326L473.761,275.835L473.761,275.835z"/>
	<path id="WI" fill="#FFFFD0" d="M610.321,343.452l0.139-4.077L608.898,335l-0.625-5.937l-1.094-2.344l0.937-2.969l0.782-2.812
		l1.406-2.5l-0.625-3.281l-0.625-3.438l0.47-1.719l1.875-2.344l0.157-2.656l-0.782-1.25l0.625-2.5l0.469-3.125l2.656-5.469
		l2.812-6.563l0.157-2.188l-0.313-0.937l-0.781,0.469l-4.062,6.094l-2.656,3.906l-1.875,1.719l-0.782,2.188l-1.406,0.781
		L604.522,300l-1.406-0.313l-0.157-1.719l1.25-2.344l2.031-4.531l1.719-1.562l1.064-2.215l-1.576-0.875l-1.325-1.325l-1.547-9.944
		l-3.535-1.105l-1.325-2.209l-12.153-2.652l-2.431-1.105l-7.955-2.209l-7.955-1.105l-4.03-5.224l-0.511,1.219l-1.094-0.156
		l-0.625-1.094l-2.656-0.781l-1.093,0.156l-1.719,0.938l-0.937-0.625l0.625-1.875l1.875-2.969l1.094-1.094l-1.876-1.406
		l-2.031,0.781l-2.812,1.875l-7.188,3.125l-2.812,0.625l-2.813-0.469l-0.949-0.849l-2.046,2.74l-0.221,2.652v8.176l-1.105,1.547
		l-5.082,3.757l-2.21,5.745l0.442,0.221l2.431,1.989l0.662,3.094l-1.768,3.094v3.757l0.442,6.408l2.872,2.872h3.315l1.768,3.094
		l3.315,0.442l3.756,5.525l6.85,3.977l1.988,2.652l0.885,7.182l0.662,3.204l2.21,1.547l0.221,1.326l-1.988,3.315l0.221,3.094
		l2.431,3.756l2.43,1.105l2.873,0.442l1.187,2.431l8.867,0l25.743-1.547L610.321,343.452L610.321,343.452z"/>
	<path id="MO" fill="#F2D0FF" d="M555.521,392.949l-3.094-3.094l-1.105-2.21l-7.513,0.663l-9.502,0.442l-24.528,0.884l-13.037,0.221
		l-7.623,0.11l-2.21,0.111l1.215,2.431l-0.221,2.209l2.431,3.757l2.983,3.978l2.983,2.652l2.209,0.221l1.326,0.884v2.873
		l-1.768,1.547l-0.442,2.21l1.988,3.314l2.431,2.873l2.431,1.768l1.326,11.27l-0.663,34.14l0.221,4.529l0.442,6.629l22.538-0.441
		l22.539-0.664l20.109-0.883l10.606-0.441l1.768,2.872l-0.442,2.208l-3.093,2.652l-0.663,2.872l5.966,0.443l4.861-0.664l1.989-6.186
		l-0.138-5.443l2.79-1.407l1.325-1.548l1.989-1.103l0.221-3.095l0.884-1.767l-1.326-2.348l-2.872,0.36l-1.768-1.99l-1.547-3.978
		l0.884-2.872l-1.988-3.093l-1.988-4.862l-4.419-0.662l-6.187-5.083l-2.21-3.757l0.663-3.093l2.209-5.745l0.663-3.535l-2.652-1.326
		l-6.187-0.442l-0.884-1.326l0.221-4.199l-5.303-3.535l-7.071-7.292l-2.21-7.071l-0.441-3.536L555.521,392.949L555.521,392.949z"/>
	<path id="AR" fill="#FFD0D0" d="M589.836,485.071l-4.705,0.908l-5.966-0.443l0.663-2.872l3.093-2.652l0.442-2.208l-1.768-2.874
		l-10.607,0.443l-20.108,0.883l-22.539,0.664l-22.539,0.441l1.547,6.629v7.955l1.326,10.607l0.221,36.571l2.21,1.878l2.872-1.326
		l2.652,1.105l0.635,10.855l21.462-0.027l18.562-0.885l10.44,0.137l1.437-2.569l-0.387-4.198l-1.326-2.872l1.326-1.326l-1.326-1.988
		l0.442-1.769l0.884-5.965l2.872-2.652l-0.663-1.988l3.536-5.083l2.652-0.885v-2.431l-0.663-1.324l2.652-5.083l2.652-1.105
		l-0.287-3.532l2.37-1.09l0.937-4.531l-1.406-3.438l3.906-2.187l0.312-2.501l1.304-4.235L589.836,485.071L589.836,485.071z"/>
	<path id="OK" fill="#FFFFD0" d="M380.456,463.439l-10.33-0.441l-6.215-0.47l0.248,0.194l-0.525,11.159l21.075,1.049l30.052,1.105
		l-1.326,22.981l-0.442,17.236l0.221,1.547l4.199,3.536l1.988,1.103l0.663-0.221l0.663-1.988l1.325,1.767h1.989v-1.326l2.652,1.326
		l-0.442,3.757l3.978,0.221l2.431,1.105l3.977,0.662l2.431,1.769l2.209-1.99l3.315,0.664l2.431,3.314h0.884v2.21l2.21,0.662
		l2.209-2.21l1.768,0.664h2.431l0.884,2.431l4.64,1.767l1.326-0.662l1.768-3.978h1.105l1.105,1.988l3.978,0.664l3.535,1.326
		l2.872,0.883l1.768-0.883l0.663-2.431h4.199l1.988,0.883l2.652-1.988h1.106l0.662,1.547h3.978l1.547-1.988l1.768,0.441l1.988,2.431
		l3.094,1.767l3.093,0.885l2.652,1.547l-0.221-36.902l-1.326-10.607v-7.955l-1.546-6.629l-0.442-6.629l-0.221-4.309l-12.817,0.774
		l-44.857-0.443l-43.532-1.988L380.456,463.439L380.456,463.439z"/>
	<path id="KS" fill="#FFD0D0" d="M505.139,466.532l-12.817,0.664l-44.857-0.443l-43.532-1.988l-23.34-1.216l4.005-63.639
		l21.103,0.773l39.111,1.326l42.647,0.442h5.856l2.983,2.652l2.209,0.221l1.326,0.884v2.872l-1.768,1.547l-0.442,2.21l1.988,3.314
		l2.431,2.873l2.431,1.768l1.326,11.27L505.139,466.532z"/>
	<path id="LA" fill="#FFFFD0" d="M600.929,608.829l-1.214-2.201l-1.106-3.757l-3.315-3.093l1.106-7.291l-0.663-0.885l-1.768,0.221
		l-7.955,0.664l-23.423,0.662l-0.442-1.547l0.663-7.735l3.315-5.965l5.082-8.838l-0.884-1.99h1.105l0.663-3.093l-2.21-1.767
		l0.222-1.769l-1.989-4.419l-0.332-5.304h-10.496l-18.562,0.885l-21.462,0.027l0.028,9.254l0.662,9.059l0.663,3.757l2.431,3.978
		l0.884,4.86l4.199,5.304l0.221,3.095l0.663,0.662l-0.663,8.176l-2.872,4.862l1.547,1.988l-0.663,2.431l-0.663,7.071l-1.326,3.093
		l0.119,3.496l4.53-1.469l7.812-0.312l10.001,3.438l6.249,1.094l3.594-1.407l3.125,1.094l3.125,0.939l0.781-2.032l-3.124-1.094
		l-2.5,0.468l-2.656-1.562c0,0,0.156-1.25,0.781-1.405c0.625-0.157,2.969-0.939,2.969-0.939l1.719,1.407l1.719-0.939l3.124,0.625
		l1.407,2.344l0.312,2.187l4.375,0.314l1.719,1.719l-0.781,1.562l-1.25,0.782l1.563,1.562l8.125,3.438l3.437-1.25l0.937-2.344
		l2.5-0.625l1.719-1.405l1.25,0.937l0.781,2.812l-2.188,0.782l0.625,0.625l3.282-1.25l2.187-3.281l0.782-0.47l-2.031-0.312
		l0.781-1.562l-0.156-1.407l2.031-0.468l1.094-1.25l0.624,0.782c0,0-0.156,2.969,0.625,2.969c0.781,0,4.062,0.625,4.062,0.625
		l3.906,1.874l0.938,1.407h2.812l1.094,0.937l2.188-2.969v-1.405h-1.25l-3.281-2.658l-5.625-0.78l-3.125-2.187l1.094-2.658
		l2.187,0.314l0.157-0.625l-1.719-0.937v-0.47h3.125l1.719-2.967l-1.25-1.876l-0.312-2.656l-1.406,0.155l-1.876,2.032l-0.624,2.499
		l-2.97-0.625l-0.937-1.719l1.719-1.874l1.952-1.719L600.929,608.829L600.929,608.829z"/>
</g>
<g enable-background="new    ">
	<text transform="matrix(0.9953 0 0 1 76.3188 66.8413)" font-family="'Arial-BoldMT'" font-size="13.1178">Washington     </text>
</g>
<g enable-background="new    ">
	<text transform="matrix(0.9953 0 0 1 66.9028 140.6313)" font-family="'Arial-BoldMT'" font-size="13.1178">Oregon     </text>
</g>
<g enable-background="new    ">
	<text transform="matrix(0.9953 0 0 1 44.9321 310.2856)" font-family="'Arial-BoldMT'" font-size="13.1178">California     </text>
</g>
<g enable-background="new    ">
	<text transform="matrix(0.9953 0 0 1 100.1724 243.4331)" font-family="'Arial-BoldMT'" font-size="13.1178">Nevada     </text>
</g>
<g enable-background="new    ">
	<text transform="matrix(0.9953 0 0 1 166.084 172.7964)" font-family="'Arial-BoldMT'" font-size="13.1178">Idaho     </text>
</g>
<g enable-background="new    ">
	<text transform="matrix(0.9953 0 0 1 240.7837 109.0972)" font-family="'Arial-BoldMT'" font-size="13.1178">Montana     </text>
</g>
<g id="text825" enable-background="new    ">
	<text transform="matrix(0.9953 0 0 1 256.2603 200.3511)" font-family="'Arial-BoldMT'" font-size="13.1178">Wyoming     </text>
</g>
<g id="text828" enable-background="new    ">
	<text transform="matrix(0.9953 0 0 1 193.4873 265.9419)" font-family="'Arial-BoldMT'" font-size="13.1178">Utah     </text>
</g>
<g id="text831" enable-background="new    ">
	<text transform="matrix(0.9953 0 0 1 279.4858 288.647)" font-family="'Arial-BoldMT'" font-size="13.1178">Colorado     </text>
</g>
<g id="text834" enable-background="new    ">
	<text transform="matrix(0.9953 0 0 1 167.7505 371.897)" font-family="'Arial-BoldMT'" font-size="13.1178">Arizona     </text>
</g>
<g id="text849" enable-background="new    ">
	<text transform="matrix(0.9953 0 0 1 378.667 238.1919)" font-family="'Arial-BoldMT'" font-size="13.1178">Nebraska     </text>
</g>
<g id="text852" enable-background="new    ">
	<text transform="matrix(0.9953 0 0 1 361.7183 176.3853)" font-family="'Arial-BoldMT'" font-size="13.1178">South Dakota     </text>
</g>
<g id="text855" enable-background="new    ">
	<text transform="matrix(0.9953 0 0 1 359.2075 112.6851)" font-family="'Arial-BoldMT'" font-size="13.1178">North Dakota     </text>
</g>
<g id="text858" enable-background="new    ">
	<text transform="matrix(0.9953 0 0 1 457.1328 136.6519)" font-family="'Arial-BoldMT'" font-size="13.1178">Minnesota     </text>
</g>
<g id="text861" enable-background="new    ">
	<text transform="matrix(0.9953 0 0 1 489.1475 231.2544)" font-family="'Arial-BoldMT'" font-size="13.1178">Iowa     </text>
</g>
<g id="text864" enable-background="new    ">
	<text transform="matrix(0.9953 0 0 1 523.6719 162.5093)" font-family="'Arial-BoldMT'" font-size="13.1178">Wisconsin     </text>
</g>
<g id="text867" enable-background="new    ">
	<text transform="matrix(0.9953 0 0 1 556.3145 267.8345)" font-family="'Arial-BoldMT'" font-size="13.1178">Illinois     </text>
</g>
<g id="text899" enable-background="new    ">
	<text transform="matrix(0.9953 0 0 1 602.7656 267.2036)" font-family="'Arial-BoldMT'" font-size="13.1178">Indiana     </text>
</g>
<g id="text905" enable-background="new    ">
	<text transform="matrix(0.9953 0 0 1 663.0283 252.6978)" font-family="'Arial-BoldMT'" font-size="13.1178">Ohio     </text>
</g>
<g id="text908" enable-background="new    ">
	<text transform="matrix(0.9953 0 0 1 617.2041 194.0444)" font-family="'Arial-BoldMT'" font-size="13.1178">Michigan     </text>
</g>
<g id="text917" enable-background="new    ">
	<text transform="matrix(0.9953 0 0 1 716.3857 227.4702)" font-family="'Arial-BoldMT'" font-size="13.1178">Pennsylvania     </text>
</g>
<g id="text920" enable-background="new    ">
	<text transform="matrix(0.9953 0 0 1 744.6328 185.2144)" font-family="'Arial-BoldMT'" font-size="13.1178">New York     </text>
</g>
<g id="text926" enable-background="new    ">
	<text transform="matrix(0.9953 0 0 1 729.6797 76.7544)" font-family="'Arial-BoldMT'" font-size="13.1178">Vermont     </text>
</g>
<g id="text929" enable-background="new    ">
	<text transform="matrix(0.9953 0 0 1 686.4111 50.2476)" font-family="'Arial-BoldMT'" font-size="13.1178">New Hampshire     </text>
</g>
<g id="text932" enable-background="new    ">
	<text transform="matrix(0.9953 0 0 1 691.667 101.9819)" font-family="'Arial-BoldMT'" font-size="13.1178">Massachusetts </text>
</g>
<g id="text837" enable-background="new    ">
	<text transform="matrix(0.9953 0 0 1 256.8877 385.772)" font-family="'Arial-BoldMT'" font-size="13.1178">New Mexico     </text>
</g>
<g id="text840" enable-background="new    ">
	<text transform="matrix(0.9953 0 0 1 391.2217 456.4087)" font-family="'Arial-BoldMT'" font-size="13.1178">Texas     </text>
</g>
<g id="text843" enable-background="new    ">
	<text transform="matrix(0.9953 0 0 1 410.0537 366.2212)" font-family="'Arial-BoldMT'" font-size="13.1178">Oklahoma     </text>
</g>
<g id="text846" enable-background="new    ">
	<text transform="matrix(0.9953 0 0 1 398.7549 304.4136)" font-family="'Arial-BoldMT'" font-size="13.1178">Kansas     </text>
</g>
<g id="text870" enable-background="new    ">
	<text transform="matrix(0.9953 0 0 1 497.3076 303.7827)" font-family="'Arial-BoldMT'" font-size="13.1178">Missouri     </text>
</g>
<g id="text873" enable-background="new    ">
	<text transform="matrix(0.9953 0 0 1 498.5625 374.4194)" font-family="'Arial-BoldMT'" font-size="13.1178">Arkansas     </text>
</g>
<g id="text876" enable-background="new    ">
	<text transform="matrix(0.9953 0 0 1 512.373 478.4829)" font-family="'Arial-BoldMT'" font-size="13.1178">Louisiana     </text>
</g>
<g id="text879" enable-background="new    ">
	<text transform="matrix(0.9953 0 0 1 545.2754 423.4604)" font-family="'Arial-BoldMT'" font-size="13.1178">Mississippi     </text>
</g>
<g id="text882" enable-background="new    ">
	<text transform="matrix(0.9953 0 0 1 589.584 357.3911)" font-family="'Arial-BoldMT'" font-size="13.1178">Tennessee     </text>
</g>
<g id="text885" enable-background="new    ">
	<text transform="matrix(0.9953 0 0 1 602.7656 410.3687)" font-family="'Arial-BoldMT'" font-size="13.1178">Alabama     </text>
</g>
<g id="text888" enable-background="new    ">
	<text transform="matrix(0.9953 0 0 1 669.7812 417.2935)" font-family="'Arial-BoldMT'" font-size="13.1178">Georgia     </text>
</g>
<g enable-background="new    ">
	<text transform="matrix(0.9953 0 0 1 709.1123 374.8979)" font-family="'Arial-BoldMT'" font-size="13.1178">South        </text>
</g>
<g enable-background="new    ">
	<text transform="matrix(0.9953 0 0 1 709.1123 388.0151)" font-family="'Arial-BoldMT'" font-size="13.1178">Carolina      </text>
</g>
<g id="text907" enable-background="new    ">
	<text transform="matrix(0.9953 0 0 1 720.9629 524.5229)" font-family="'Arial-BoldMT'" font-size="13.1178">Florida     </text>
</g>
<g id="text902" enable-background="new    ">
	<text transform="matrix(0.9953 0 0 1 616.5762 322.0728)" font-family="'Arial-BoldMT'" font-size="13.1178">Kentucky     </text>
</g>
<g id="text911" enable-background="new    ">
	<text transform="matrix(0.9953 0 0 1 732.4014 308.4722)" font-family="'Arial-BoldMT'" font-size="13.1178">Virginia     </text>
</g>
<g id="text914" enable-background="new    ">
	<text transform="matrix(0.9953 0 0 1 705.7891 346.9312)" font-family="'Arial-BoldMT'" font-size="13.1178">North Carolina     </text>
</g>
<g id="text923" enable-background="new    ">
	<text transform="matrix(0.9953 0 0 1 848.8359 102.5942)" font-family="'Arial-BoldMT'" font-size="13.1178">Maine     </text>
</g>
<g id="text935" enable-background="new    ">
	<text transform="matrix(0.9953 0 0 1 878.0322 235.1587)" font-family="'Arial-BoldMT'" font-size="13.1178">Connecticut     </text>
</g>
<g id="text938" enable-background="new    ">
	<text transform="matrix(0.9953 0 0 1 870.5254 210.0562)" font-family="'Arial-BoldMT'" font-size="13.1178">Rhode Island     </text>
</g>
<g id="text941" enable-background="new    ">
	<text transform="matrix(0.9953 0 0 1 878.75 258.8247)" font-family="'Arial-BoldMT'" font-size="13.1178">New Jersey     </text>
</g>
<g id="text944" enable-background="new    ">
	<text transform="matrix(0.9953 0 0 1 892.0811 285.1274)" font-family="'Arial-BoldMT'" font-size="13.1178">Delaware     </text>
</g>
<g id="text947" enable-background="new    ">
	<text transform="matrix(0.9953 0 0 1 893.7656 309.229)" font-family="'Arial-BoldMT'" font-size="13.1178">Maryland     </text>
</g>
<g id="text950" enable-background="new    ">
	<text transform="matrix(0.9953 0 0 1 90.5396 503.7104)" font-family="'Arial-BoldMT'" font-size="13.1178">Alaska     </text>
</g>
<g id="text953" enable-background="new    ">
	<text transform="matrix(0.9953 0 0 1 244.71 558.7065)" font-family="'Arial-BoldMT'" font-size="13.1178">Hawaii     </text>
</g>
<path id="path958" fill="none" stroke="#000000" stroke-width="0.5033" d="M781.669,99.441l47.707,71.898"/>
<path id="path956" fill="none" stroke="#000000" stroke-width="0.5033" d="M782.924,47.725l57.124,85.143"/>
<path id="path959" fill="none" stroke="#000000" stroke-width="0.5033" d="M868.963,205.103l-19.796-21.496"/>
<path id="path960" fill="none" stroke="#000000" stroke-width="0.5033" d="M875.443,230.522l-40.48-42.902"/>
<path id="path961" fill="none" stroke="#000000" stroke-width="0.5033" d="M876.687,253.98l-67.912-16.411"/>
<path id="path962" fill="none" stroke="#000000" stroke-width="0.5033" d="M889.647,280.381l-88.862-22.744"/>
<path id="path963" inkscape:connector-curvature="0" fill="none" stroke="#000000" stroke-width="0.4799" d="M845.965,326.118
	l-69.854-63.759"/>
<g id="text937" enable-background="new    ">
	<text transform="matrix(0.9953 0 0 1 870.0293 356.0151)" font-family="'Arial-BoldMT'" font-size="13.1178">West Virginia     </text>
</g>
<path id="path940" fill="none" stroke="#000000" stroke-width="0.5033" d="M867.277,351.2l-143.726-82.414"/>
<path id="path957" fill="none" stroke="#000000" stroke-width="0.5033" d="M781.669,73.583l37.036,55.5"/>
<g id="text6660" sodipodi:linespacing="125%" enable-background="new    ">
	<text transform="matrix(0.9953 0 0 1 848.2939 330.8765)" font-family="'Arial-BoldMT'" font-size="12.9476">Washington, D.C.  </text>
</g>
<path id="path6662" fill="none" stroke="#000000" stroke-width="0.5033" d="M891.411,305.333l-115.107-52.754"/>
</svg>
