<?xml version="1.0" encoding="utf-8"?>
<!-- Generator: Adobe Illustrator 16.2.1, SVG Export Plug-In . SVG Version: 6.00 Build 0)  -->
<!DOCTYPE svg PUBLIC "-//W3C//DTD SVG 1.1//EN" "http://www.w3.org/Graphics/SVG/1.1/DTD/svg11.dtd">
<svg version="1.1"
	 id="svg2275" xmlns:dc="http://purl.org/dc/elements/1.1/" xmlns:cc="http://creativecommons.org/ns#" xmlns:rdf="http://www.w3.org/1999/02/22-rdf-syntax-ns#" xmlns:svg="http://www.w3.org/2000/svg" xmlns:sodipodi="http://sodipodi.sourceforge.net/DTD/sodipodi-0.dtd" xmlns:inkscape="http://www.inkscape.org/namespaces/inkscape" sodipodi:docname="Map_of_USA_with_state_names.svg" inkscape:version="0.48.0 r9654"
	 xmlns="http://www.w3.org/2000/svg" xmlns:xlink="http://www.w3.org/1999/xlink" x="0px" y="0px" width="958.689px"
	 height="592.79px" viewBox="0 0 958.689 592.79" enable-background="new 0 0 958.689 592.79" xml:space="preserve">
<a xlink:href="#" >
	<polygon fill="#FFFFD0" points="224.081,523.11 225.964,519.641 228.161,519.325 228.475,520.114 226.435,523.11 	"/>
</a>
<a xlink:href="#" >
	<polygon fill="#FFFFD0" points="233.967,519.483 239.93,522.006 241.97,521.69 243.54,517.907 242.912,514.596 238.832,514.122 
		234.909,515.856 233.967,519.483 	"/>
</a>
<a xlink:href="#" >
	<polygon fill="#FFFFD0" points="263.783,529.258 267.393,534.62 269.747,534.303 270.845,533.831 272.257,535.092 275.867,534.934 
		276.808,533.516 273.983,531.782 272.1,528.155 270.06,524.686 264.411,527.524 263.783,529.258 	"/>
</a>
<a xlink:href="#" >
	<polygon fill="#FFFFD0" points="283.399,537.93 284.654,536.038 289.206,536.985 289.833,536.51 295.796,537.141 295.482,538.403 
		292.972,539.823 288.735,539.506 	"/>
</a>
<a xlink:href="#" >
	<polygon fill="#FFFFD0" points="288.578,542.975 290.461,546.76 293.442,545.655 293.756,544.079 292.187,542.03 288.578,541.713 
		288.578,542.975 	"/>
</a>
<a xlink:href="#" >
	<polygon fill="#FFFFD0" points="295.326,541.872 297.522,539.034 302.073,541.399 306.311,542.502 310.547,545.182 
		310.547,547.075 307.095,548.809 302.387,549.754 300.033,548.336 295.326,541.872 	"/>
</a>
<a xlink:href="#" >
	<polygon fill="#FFFFD0" points="311.489,557.008 313.059,555.747 316.354,557.323 323.729,560.792 327.025,562.842 
		328.594,565.206 330.478,569.463 334.4,571.987 334.087,573.247 330.32,576.401 326.24,577.819 324.828,577.188 321.846,578.922 
		319.492,582.077 317.295,584.915 315.569,584.756 312.117,582.235 311.803,577.819 312.431,575.454 310.861,569.936 
		308.821,568.202 308.665,565.68 310.861,564.733 312.901,561.737 313.372,560.792 311.803,559.057 311.489,557.008 	"/>
</a>
<a xlink:href="#" >
	<path fill="#F2D0FF" d="M151.266,459.096l-0.313,83.248l1.569,0.947l2.982,0.156l1.412-1.104h2.511l0.157,2.838l6.748,6.623
		l0.471,2.521l3.295-1.891l0.627-0.158l0.314-2.996l1.413-1.576l1.098-0.158l1.883-1.418l2.981,2.049l0.628,2.838l1.883,1.104
		l1.098,2.365l3.767,1.734l3.295,5.834l2.667,3.783l2.197,2.682l1.412,3.625l4.865,1.734l5.022,2.051l0.941,4.256l0.471,2.996
		l-0.941,3.311l-1.726,2.207l-1.569-0.787l-1.413-2.996l-2.667-1.42l-1.727-1.104l-0.785,0.789l1.413,2.68l0.157,3.627l-1.098,0.473
		l-1.883-1.893l-2.04-1.26l0.471,1.576l1.255,1.734l-0.785,0.787c0,0-0.785-0.314-1.255-0.945s-2.04-3.311-2.04-3.311l-0.941-2.207
		c0,0-0.314,1.262-0.942,0.945c-0.627-0.314-1.255-1.418-1.255-1.418l1.727-1.893l-1.413-1.42v-4.887h-0.785l-0.785,3.311
		l-1.098,0.473l-0.942-3.625l-0.627-3.627l-0.785-0.473l0.314,5.518v1.104l-1.413-1.262l-3.453-5.832l-2.04-0.475l-0.627-3.625
		l-1.569-2.838l-1.569-1.104v-2.209l2.04-1.26l-0.471-0.316l-2.511,0.631l-3.295-2.365l-2.511-2.838l-4.708-2.521l-3.923-2.523
		l1.255-3.152v-1.578l-1.726,1.578l-2.825,1.104l-3.609-1.104l-5.492-2.365h-5.336l-0.627,0.473l-6.277-3.785l-2.04-0.314
		l-2.667-5.676l-3.453,0.314l-3.452,1.42l0.471,4.414l1.099-2.838l0.941,0.316l-1.413,4.256l3.139-2.68l0.628,1.576l-3.767,4.258
		l-1.255-0.316l-0.471-1.893l-1.255-0.787l-1.255,1.104l-2.668-1.734l-2.981,2.049l-1.726,2.051l-3.295,2.049l-4.551-0.158
		l-0.471-2.049l3.609-0.631v-1.262l-2.197-0.631l0.941-2.363l2.197-3.785v-1.734l0.157-0.787l4.237-2.209l0.942,1.262h2.667
		l-1.255-2.521l-3.609-0.316l-4.865,2.682l-2.354,3.311l-1.726,2.521l-1.098,2.207l-4.081,1.42l-2.981,2.523l-0.314,1.576
		l2.197,0.945l0.785,2.051l-2.668,3.152l-6.277,4.1l-7.533,4.1l-2.04,1.104l-5.179,1.104l-5.179,2.207l1.727,1.262l-1.413,1.418
		l-0.471,1.105l-2.668-0.947l-3.138,0.158l-0.785,2.207h-0.942l0.314-2.365l-3.452,1.262l-2.825,0.945l-3.295-1.26l-2.825,1.891
		H42.83l-2.04,1.262l-1.569,0.789l-2.04-0.316l-2.511-1.104l-2.197,0.631l-0.941,0.945l-1.569-1.104v-1.891l2.981-1.262l6.121,0.631
		l4.237-1.578l2.04-2.049l2.825-0.631l1.726-0.789l2.668,0.158l1.569,1.262l0.941-0.314l2.197-2.682l2.982-0.945l3.295-0.631
		l1.255-0.314l0.628,0.473h0.785l1.255-3.627l3.923-1.418l1.883-3.627l2.197-4.414l1.569-1.42l0.314-2.523l-1.569,1.262
		l-3.295,0.631l-0.627-2.365l-1.256-0.314l-0.941,0.945l-0.157,2.838l-1.413-0.158l-1.412-5.676l-1.255,1.262l-1.099-0.473
		l-0.314-1.893l-3.923,0.158l-2.04,1.104l-2.511-0.314l1.413-1.42l0.471-2.521l-0.628-1.893l1.413-0.945l1.255-0.158l-0.628-1.734
		v-4.258l-0.941-0.945l-0.785,1.418h-5.963l-1.412-1.26l-0.628-3.785l-2.04-3.469v-0.945l2.04-0.789l0.157-2.049l1.099-1.104
		l-0.785-0.473l-1.256,0.473l-1.098-2.682l0.941-4.887l4.394-3.152l2.511-1.578l1.883-3.625l2.667-1.262l2.511,1.104l0.313,2.365
		l2.354-0.316l3.139-2.365l1.569,0.631l0.941,0.631h1.569l2.197-1.262L75,496.149c0,0,0.314-2.838,0.942-3.311
		c0.627-0.475,0.941-0.947,0.941-0.947L75.784,490l-2.511,0.787l-3.139,0.789l-1.883-0.473l-3.453-1.734l-4.865-0.158l-3.452-3.627
		l0.471-3.783l0.627-2.365l-2.04-1.734l-1.883-3.627l0.471-0.787l6.591-0.473h2.04l0.941,0.945h0.628l-0.157-1.576l3.766-0.631
		l2.511,0.314l1.412,1.104l-1.412,2.051l-0.471,1.418l2.667,1.578l4.865,1.732l1.727-0.945l-2.197-4.256l-0.941-3.154l0.941-0.789
		l-3.295-1.891l-0.471-1.104l0.471-1.578l-0.785-3.783l-2.825-4.572l-2.354-4.1l2.825-1.893h3.139l1.726,0.631l4.08-0.156
		l3.609-3.469l1.099-2.996l3.609-2.365l1.569,0.945l2.667-0.631l3.609-2.049l1.099-0.158l0.941,0.789l4.394-0.158l2.668-2.996h1.098
		l3.453,2.365l1.883,2.051l-0.471,1.104l0.627,1.104l1.569-1.576l3.766,0.314l0.314,3.627l1.883,1.418l6.905,0.631l6.12,4.1
		l1.412-0.945l5.022,2.521l2.04-0.631l1.883-0.787l4.708,1.891l4.237,2.84V459.096z"/>
</a>
<a xlink:href="#" >
	<polygon fill="#F2D0FF" points="39.534,487.319 41.574,492.522 41.417,493.467 38.592,493.153 36.866,489.211 35.14,487.792 
		32.786,487.792 32.629,485.27 34.355,482.905 35.454,485.27 36.866,486.688 	"/>
</a>
<a xlink:href="#" >
	<polygon fill="#F2D0FF" points="37.023,519.956 40.633,520.745 44.242,521.69 45.026,522.637 43.457,526.262 40.476,526.106 
		37.18,522.637 	"/>
</a>
<a xlink:href="#" >
	<polygon fill="#F2D0FF" points="16.937,506.239 18.035,508.762 19.133,510.338 18.035,511.127 15.995,508.131 15.995,506.239 	"/>
</a>
<a xlink:href="#" >
	<polygon fill="#F2D0FF" points="3.598,577.504 6.893,575.297 10.188,574.35 12.7,574.667 13.17,576.243 15.053,576.715 
		16.937,574.825 16.623,573.247 19.291,572.616 22.115,575.139 21.017,576.874 16.78,577.977 14.112,577.504 10.502,576.401 
		6.266,577.819 4.696,578.135 	"/>
</a>
<a xlink:href="#" >
	<polygon fill="#F2D0FF" points="51.146,573.09 52.716,574.981 54.756,573.405 53.344,572.143 	"/>
</a>
<a xlink:href="#" >
	<polygon fill="#F2D0FF" points="53.971,576.084 55.07,573.877 57.11,574.194 56.325,576.084 	"/>
</a>
<a xlink:href="#" >
	<polygon fill="#F2D0FF" points="76.883,574.194 78.295,575.928 79.237,574.825 78.452,572.932 	"/>
</a>
<a xlink:href="#" >
	<polygon fill="#F2D0FF" points="85.357,562.053 86.456,567.729 89.28,568.518 94.145,565.68 98.382,563.157 96.812,560.792 
		97.283,558.426 95.243,559.688 92.418,558.899 93.988,557.795 95.871,558.584 99.637,556.85 100.108,555.43 97.754,554.643 
		98.539,552.75 95.871,554.643 91.32,558.112 86.612,560.95 85.357,562.053 	"/>
</a>
<a xlink:href="#" >
	<polygon fill="#F2D0FF" points="126.472,542.661 128.826,541.241 127.884,539.506 126.158,540.454 	"/>
</a>
<a xlink:href="#" >
	<polygon fill="#F2D0FF" points="731.268,450.268 733.295,458.268 736.915,467.77 742.094,476.915 745.703,483.063 750.411,488.424 
		754.334,492.049 755.903,494.887 754.805,496.149 754.021,497.411 756.845,504.663 759.67,507.5 762.181,512.704 765.633,518.379 
		770.027,526.42 771.282,533.833 771.753,545.499 772.381,547.233 772.066,550.543 769.713,551.805 770.027,553.698 769.399,555.59 
		769.713,557.954 770.184,559.846 767.516,563 764.534,564.418 760.769,564.577 759.355,566.153 757.002,567.098 755.746,566.625 
		754.648,565.68 754.334,562.842 753.55,559.532 750.254,554.485 746.802,552.278 743.035,551.963 742.251,553.225 739.27,548.967 
		738.642,545.499 736.131,541.557 734.404,540.454 732.835,542.502 731.109,542.188 729.069,537.299 726.244,533.516 
		723.42,528.313 720.909,525.317 717.456,521.692 719.496,519.327 722.635,513.965 722.479,512.389 718.084,511.444 
		716.515,512.075 716.829,512.704 719.34,513.651 717.928,518.065 717.143,518.538 715.416,514.596 714.161,509.866 
		713.847,507.186 715.26,502.614 715.26,493.311 712.278,489.686 711.022,486.69 706.001,485.428 704.117,484.797 702.549,482.276 
		699.253,480.698 698.154,477.387 695.486,476.442 693.133,472.815 689.053,471.397 686.229,469.977 683.717,469.977 
		679.794,470.766 679.637,472.657 680.422,473.604 679.951,474.708 676.97,474.549 673.36,478.018 669.908,479.911 666.142,479.911 
		663.003,481.17 662.689,478.491 661.12,476.598 658.295,475.495 656.726,474.077 648.88,470.292 641.504,468.557 637.267,469.188 
		631.461,469.663 625.654,471.711 622.277,472.309 622.046,464.458 619.535,462.567 617.809,460.833 618.123,457.836 
		628.01,456.575 652.804,453.737 659.395,453.106 665.357,452.95 667.869,456.733 669.281,458.151 676.971,458.309 687.474,457.678 
		708.355,456.417 713.643,455.76 718.085,455.788 718.242,458.625 720.753,459.413 721.066,455.157 719.498,450.741 
		720.596,449.165 726.245,449.954 731.268,450.268 	"/>
</a>
<a xlink:href="#" >
	<polygon fill="#F2D0FF" points="743.273,580.264 745.627,579.633 746.883,579.397 748.295,577.11 750.57,575.534 751.826,576.006 
		753.474,576.323 753.866,577.346 750.492,578.53 746.412,579.948 744.137,581.131 	"/>
</a>
<a xlink:href="#" >
	<polygon fill="#F2D0FF" points="756.377,575.375 757.554,576.401 760.222,574.352 765.4,570.252 769.01,566.467 771.442,560.004 
		772.384,558.348 772.54,555.038 771.834,555.51 770.893,558.27 769.48,562.762 766.342,567.887 762.104,571.987 758.81,573.877 	
		"/>
</a>
<a xlink:href="#" >
	<path id="SC" fill="#FFD0D0" d="M736.759,419.366l-1.726,0.945l-2.511-1.26L731.895,417l-1.255-3.469l-2.197-2.049l-2.511-0.631
		l-1.569-4.73l-2.668-5.834l-4.08-1.891l-2.04-1.893l-1.255-2.523l-2.04-1.891l-2.197-1.262l-2.197-2.838l-2.981-2.207l-4.394-1.734
		l-0.471-1.42l-2.354-2.838l-0.471-1.418l-3.295-5.047l-3.296,0.158l-3.923-2.365l-1.256-1.26l-0.313-1.734l0.784-1.893l2.197-0.947
		l-0.313-2.049l5.963-2.523l8.788-4.414l7.062-0.787l16.007-0.475l2.196,1.893l1.569,3.154l4.237-0.475l12.24-1.418l2.824,0.787
		l12.24,7.412l9.812,7.92l-5.263,5.324l-2.511,5.99l-0.471,6.15l-1.569,0.787l-1.099,2.68l-2.354,0.631l-2.04,3.469l-2.668,2.682
		l-2.196,3.311l-1.569,0.787l-3.453,3.312l-2.824,0.156l0.941,3.154l-4.864,5.361L736.759,419.366L736.759,419.366z"/>
</a>
<a xlink:href="#" >
	<path id="GA" fill="#D7FFD0" d="M667.241,365.76l-4.708,0.787l-8.16,1.104l-8.317,0.867v2.129l0.157,2.051l0.628,3.311l3.295,7.725
		l2.354,9.617l1.412,5.992l1.569,4.73l1.412,6.779l2.04,6.148l2.511,3.311l0.471,3.312l1.884,0.787l0.156,2.051l-1.726,4.729
		l-0.472,3.154l-0.156,1.893l1.569,4.256l0.313,5.203l-0.784,2.365l0.627,0.789l1.413,0.787l0.627,3.311l2.512,3.785l1.412,1.418
		l7.689,0.158l10.503-0.631l20.882-1.262l5.287-0.656l4.442,0.025l0.157,2.84l2.511,0.787l0.313-4.256l-1.568-4.416l1.098-1.576
		l5.649,0.789l4.832,0.309l-0.753-6.143l2.197-9.775l1.412-4.1l-0.471-2.521l3.923-6.779l-0.581-1.578l-1.771,0.945l-2.511-1.26
		L731.895,417l-1.255-3.469l-2.197-2.049l-2.511-0.631l-1.569-4.73l-2.668-5.834l-4.08-1.891l-2.04-1.893l-1.255-2.523l-2.04-1.891
		l-2.197-1.262l-2.197-2.838l-2.981-2.207l-4.394-1.734l-0.471-1.42l-2.354-2.838l-0.471-1.418l-3.295-5.047l-3.296,0.158
		l-3.923-2.365l-1.256-1.262l-0.313-1.734l0.784-1.891l2.197-0.947l-0.157-2.227l-1.726,0.492l-5.649,0.947l-6.748,0.787
		L667.241,365.76L667.241,365.76z"/>
</a>
<a xlink:href="#" >
	<path id="AL" fill="#FFD0D0" d="M605.097,471.87l-1.568-14.822l-2.667-18.289l0.156-13.717l0.785-30.271l-0.157-16.24l0.16-6.26
		l7.529-0.361l26.991-2.523l9.873-0.867l-0.144,2.129l0.157,2.049l0.628,3.312l3.295,7.725l2.354,9.617l1.412,5.992l1.569,4.73
		l1.412,6.779l2.04,6.148l2.511,3.311l0.471,3.312l1.884,0.787l0.156,2.051l-1.726,4.729l-0.471,3.154l-0.157,1.893l1.569,4.256
		l0.313,5.203l-0.784,2.365l0.628,0.789l1.412,0.787l0.784,3.469h-6.12l-6.591,0.631l-24.794,2.838l-9.887,1.262l-0.313,2.996
		l1.726,1.734l2.511,1.891l0.564,7.74l-6.371,2.51l-2.668-0.316l2.668-1.891v-0.947l-2.982-5.834l-2.196-0.631l-1.413,4.258
		l-1.255,2.68l-0.628-0.156H605.097L605.097,471.87z"/>
</a>
<a xlink:href="#" >
	<path fill="#F2D0FF" d="M805.559,307.729l1.66,4.582l3.452,6.307l2.354,2.365l0.628,2.207l-2.354,0.158l0.784,0.631l-0.313,4.1
		l-2.511,1.26l-0.628,2.051l-1.256,2.838l-3.609,1.576l-2.354-0.314L800,335.331l-1.569-1.262l0.313,1.262v0.945h1.884l0.784,1.262
		l-1.883,6.148h4.08l0.627,1.578l2.197-2.207l1.256-0.475l-1.884,3.469l-2.981,4.73h-1.255l-1.099-0.473l-2.668,0.631l-5.021,2.365
		l-6.277,5.203l-3.295,4.572l-1.884,6.307l-0.471,2.363l-4.551,0.475l-5.723,2.164l-9.654-8l-12.241-7.41l-2.824-0.787l-12.24,1.418
		l-4.237,0.475l-1.569-3.154l-2.196-1.893l-16.007,0.473l-7.062,0.789l-8.788,4.414l-5.963,2.523l-1.569,0.314l-5.649,0.947
		l-6.748,0.787l-6.591,0.475l0.313-4.73l1.727-1.42l2.668-0.631l0.627-3.625l4.08-2.682l3.767-1.418l4.08-3.469l4.237-2.049
		l0.628-2.996l3.766-3.785l0.628-0.156c0,0,0,1.104,0.785,1.104c0.784,0,1.883,0.314,1.883,0.314l2.197-3.469l2.039-0.631
		l2.197,0.316l1.569-3.469l2.825-2.523l0.471-2.049v-3.863l4.394,0.709l6.927-1.26l15.357-1.893l16.634-2.523l19.999-3.68
		l18.604-3.73l11.143-2.838L805.559,307.729L805.559,307.729z"/>
</a>
<a xlink:href="#" >
	<polygon fill="#F2D0FF" points="809.34,339.901 811.851,337.458 814.911,334.936 816.401,334.305 816.559,332.334 815.931,326.342 
		814.519,324.055 813.891,322.243 814.597,322.006 817.265,327.368 817.657,331.704 817.5,335.014 814.205,336.512 811.458,338.877 
		810.36,340.059 	"/>
</a>
<a xlink:href="#" >
	<path id="TN" fill="#FFFFD0" d="M674.46,329.338l-50.374,4.889l-15.298,1.734l-4.486,0.5l-3.755-0.027v3.783l-8.16,0.473
		l-6.748,0.631l-10.771,0.053l-0.257,5.691l-2.076,6.119l-0.966,2.941l-1.309,4.273l-0.314,2.523l-3.923,2.207l1.412,3.469
		l-0.941,4.256l-1.491,1.656l7.925-0.08l23.383-1.891l5.179-0.158l7.846-0.473l26.991-2.523l9.873-0.787l8.174-0.947l8.16-1.104
		l4.708-0.787l0.313-4.73l1.727-1.42l2.668-0.631l0.627-3.625l4.08-2.682l3.767-1.418l4.08-3.469l4.237-2.049l0.628-2.996
		l3.766-3.785l0.628-0.156c0,0,0,1.104,0.785,1.104c0.784,0,1.883,0.314,1.883,0.314l2.197-3.469l2.039-0.631l2.197,0.316
		l1.569-3.469l2.825-2.523l0.471-2.049l0.171-3.836l-2.211,0.051l-2.354,1.893l-7.689,0.158l-11.644,1.854L674.46,329.338
		L674.46,329.338z"/>
</a>
<a xlink:href="#" >
	<path id="RI" fill="#F2D0FF" d="M846.293,192.013l-0.469-4.101l-0.784-4.257l-1.648-5.754l5.571-1.498l1.569,1.104l3.296,4.257
		l2.823,4.336l-2.826,1.498l-1.255-0.157l-1.099,1.734l-2.354,1.892L846.293,192.013L846.293,192.013z"/>
</a>
<a xlink:href="#" >
	<path id="CT" fill="#D7FFD0" d="M846.764,192.013l-0.939-4.101l-0.784-4.257l-1.569-5.833l-5.021,1.104l-21.186,4.651l0.628,3.232
		l1.412,7.095v7.883l-1.099,2.207l1.779,2.057l4.81-3.317l3.452-3.153l1.884-2.05l0.784,0.631l2.668-1.419l5.021-1.104
		L846.764,192.013L846.764,192.013z"/>
</a>
<a xlink:href="#" >
	<polygon fill="#FFD0D0" points="871.441,186.188 873.55,185.519 873.994,183.847 874.992,183.958 875.991,186.188 874.771,186.634 
		870.998,186.745 871.441,186.188 	"/>
</a>
<a xlink:href="#" >
	<polygon fill="#FFD0D0" points="862.343,186.968 864.562,184.404 866.115,184.404 867.891,185.854 865.561,186.857 863.452,187.86 
		862.343,186.968 	"/>
</a>
<a xlink:href="#" >
	<polyline fill="#FFD0D0" points="828.562,165.523 845.511,161.424 847.707,160.793 849.748,157.64 853.375,156.018 856.18,160.322 
		853.825,165.367 853.512,166.786 855.395,169.309 856.493,168.521 858.22,168.521 860.417,171.043 864.183,176.876 867.635,177.35 
		869.832,176.403 871.559,174.669 870.773,171.989 868.733,170.412 867.321,171.201 866.38,169.939 866.851,169.466 
		868.891,169.309 870.617,170.097 872.5,172.462 873.441,175.3 873.755,177.665 869.675,179.084 865.909,180.976 862.143,185.391 
		860.26,186.81 860.26,185.863 862.613,184.444 863.084,182.71 862.3,179.714 859.475,181.134 858.69,182.553 859.161,184.76 
		856.494,186.178 853.828,181.763 850.532,177.506 848.963,176.402 843.392,177.9 838.449,178.925 817.264,183.576 816.322,177.979 
		816.95,167.652 821.972,166.785 828.562,165.523 	"/>
</a>
<a xlink:href="#" >
	<path fill="#F2D0FF" d="M893.999,92.053l1.883,2.049l2.197,3.626v1.892l-2.04,4.572l-1.883,0.63l-3.296,2.996l-4.708,5.361
		c0,0-0.628,0-1.255,0c-0.628,0-0.942-2.05-0.942-2.05l-1.726,0.158l-0.941,1.419l-2.354,1.419l-0.941,1.419l1.569,1.419
		l-0.471,0.63l-0.471,2.68l-1.883-0.157v-1.577l-0.314-1.261l-1.412,0.315l-1.727-3.153l-2.04,1.261l1.256,1.419l0.313,1.104
		l-0.784,1.261l0.313,2.996l0.157,1.577l-1.569,2.522l-2.825,0.473l-0.313,2.838l-5.179,2.996l-1.255,0.473l-1.569-1.419
		l-2.981,3.469l0.941,3.153l-1.413,1.261l-0.156,4.257l-1.531,7.433l-2.39-1.127l-0.472-2.996l-3.766-1.104l-0.314-2.68
		l-7.062-22.862l-4.626-14.409l2.37-0.336l1.47,0.399v-2.522l0.784-5.361l2.511-4.572l1.413-3.941l-1.884-2.365v-5.833l0.785-0.946
		l0.784-2.681l-0.156-1.419l-0.157-4.73l1.727-4.73l2.824-8.671l2.04-4.099h1.255l1.256,0.157v1.104l1.256,2.207l2.667,0.631
		l0.785-0.789v-0.946l3.923-2.838l1.727-1.734l1.412,0.158l5.807,2.365l1.883,0.946l8.788,29.168h5.806l0.785,1.892l0.157,4.73
		l2.824,2.207h0.784l0.157-0.473l-0.471-1.104L893.999,92.053L893.999,92.053z"/>
</a>
<a xlink:href="#" >
	<polygon fill="#F2D0FF" points="873.68,121.455 875.171,119.957 876.505,120.982 877.054,123.347 875.406,124.214 873.68,121.455 	
		"/>
</a>
<a xlink:href="#" >
	<path fill="#F2D0FF" d="M880.192,115.7l1.727,1.813c0,0,1.255,0.079,1.255-0.236s0.235-1.971,0.235-1.971l0.863-0.789l-0.784-1.734
		l-1.962,0.709L880.192,115.7z"/>
</a>
<a xlink:href="#" >
	<path id="NH" fill="#FFFFD0" d="M853.376,155.98l0.293-1.492l1.058-3.21l-2.468-0.891l-0.472-2.996l-3.766-1.104l-0.314-2.68
		l-7.062-22.862l-4.467-14.184l-0.87-0.005l-0.628,1.577l-0.628-0.473l-0.941-0.946l-1.412,1.892l-0.929,5.35l0.303,5.527
		l1.883,2.68v3.942l-3.609,3.941l-2.511,1.104v1.104l1.099,1.734v8.356l-0.784,8.987l-0.157,4.73l0.941,1.261l-0.157,4.415
		l-0.471,1.734l1.413,1.971l16.791-4.021l2.196-0.63l2.041-3.153L853.376,155.98L853.376,155.98z"/>
</a>
<a xlink:href="#" >
	<path id="VT" fill="#D7FFD0" d="M817.106,167.888l-0.784-5.518l-2.981-10.721l-0.628-0.315l-2.825-1.261l0.785-2.838l-0.785-2.05
		l-2.511-4.415l0.942-3.784l-0.785-5.045l-2.354-6.307l-0.782-4.801l26.36-7.023l0.314,5.675l1.883,2.68v3.942l-3.609,3.941
		l-2.511,1.104v1.104l1.099,1.734v8.356l-0.784,8.987l-0.157,4.73l0.941,1.261l-0.157,4.415l-0.471,1.734l1.413,1.971l-6.748,1.34
		L817.106,167.888L817.106,167.888z"/>
</a>
<a xlink:href="#" >
	<path id="NY" fill="#F2D0FF" d="M801.728,202.26l-1.099-0.946l-2.511-0.158l-2.196-1.892l-2.354-5.203l-2.916-0.908l-2.263-2.088
		l-18.046,3.941l-41.743,8.514l-8.631,1.419l-0.717-6.751l2.599-1.762l1.255-1.104l0.941-1.576l1.727-1.104l1.883-1.734l0.471-1.577
		l2.041-2.68l1.098-0.946l-0.156-0.946l-1.256-2.996l-1.727-0.158l-1.883-5.991l2.825-1.734l4.236-1.419l3.924-1.261l3.139-0.473
		l6.12-0.158l1.883,1.261l1.569,0.158l2.04-1.261l2.511-1.104l5.021-0.473l2.04-1.734l1.727-3.153l1.569-1.892h2.04l1.883-1.104
		l0.157-2.207l-1.413-2.05l-0.313-1.419l1.099-2.05v-1.419h-1.727l-1.726-0.788l-0.785-1.104l-0.157-2.522l5.649-5.361l0.628-0.788
		l1.412-2.838l2.825-4.415l2.668-3.626l2.04-2.365l2.344-1.78l2.991-1.215l5.336-1.261l3.139,0.158l4.394-1.419l7.344-2.02
		l0.505,4.856l2.354,6.307l0.784,5.045l-0.941,3.784l2.511,4.415l0.785,2.05l-0.785,2.838l2.825,1.261l0.628,0.315l2.981,10.721
		l0.471,5.045l-0.471,10.563l0.784,5.361l0.785,3.468l1.412,7.095v7.883l-1.099,2.207l1.785,1.944l-0.218,1.526l-1.883,1.734
		l0.313,1.261l1.256-0.315l1.412-1.261l2.197-2.523l1.098-0.63l1.569,0.63l2.197,0.158l7.689-3.784l2.825-2.681l1.255-1.419
		l4.08,1.577l-3.296,3.469l-3.766,2.838l-6.905,5.203l-2.511,0.946l-5.649,1.892l-3.923,1.104l-1.471-0.52l-0.567-3.266l0.471-2.68
		l-0.157-2.049l-2.511-1.104l-4.394-0.946l-3.767-1.104L801.728,202.26L801.728,202.26z"/>
</a>
<a xlink:href="#" >
	<path id="NJ" fill="#FFFFD0" d="M801.728,202.26l-2.04,2.365v2.996l-1.883,2.996l-0.157,1.577l1.256,1.261l-0.157,2.365
		l-2.197,1.104l0.785,2.68l0.157,1.104l2.667,0.315l0.942,2.522l3.452,2.365l2.354,1.577v0.788l-3.139,2.996l-1.569,2.208
		l-1.412,2.68l-2.196,1.261l-1.178,0.709l-0.235,1.183l-0.591,2.542l1.06,2.188l3.139,2.838l4.708,2.208l3.923,0.63l0.157,1.419
		l-0.784,0.946l0.313,2.68h0.784l2.04-2.365l0.785-4.73l2.668-3.942l2.981-6.307l1.099-5.36l-0.628-1.104l-0.157-9.145l-1.569-3.311
		l-1.099,0.789l-2.667,0.315l-0.471-0.473l1.099-0.946l2.039-1.892l0.062-1.067l-0.373-3.349l0.471-2.68l-0.157-2.05l-2.511-1.104
		l-4.394-0.946l-3.767-1.104L801.728,202.26L801.728,202.26z"/>
</a>
<a xlink:href="#" >
	<path id="PA" fill="#D7FFD0" d="M797.491,238.05l1.099-0.631l2.196-1.261l1.412-2.68l1.569-2.208l3.139-2.996v-0.788l-2.354-1.577
		l-3.452-2.365l-0.942-2.522l-2.667-0.315l-0.157-1.104l-0.785-2.681l2.197-1.104l0.157-2.365l-1.256-1.262l0.157-1.577l1.883-2.996
		v-2.996l2.275-2.365l-1.334-0.946l-2.511-0.158l-2.196-1.892l-2.354-5.203l-2.916-0.908l-2.263-2.088l-18.046,3.941l-41.743,8.514
		l-8.631,1.419l-0.48-6.909l-5.327,5.491l-1.256,0.473l-4.079,2.935l2.826,18.665l1.638,10.485l3.467,18.786l4.495-0.732
		l11.594-1.465l36.816-7.476l14.44-2.753l8.058-1.582l1.251-1.229l2.04-1.577H797.491L797.491,238.05z"/>
</a>
<a xlink:href="#" >
	<path id="DE" fill="#FFD0D0" d="M796.391,241.362l0.786-2.051l0.235-1.261h-1.961l-2.04,1.577l-1.413,1.419l1.413,4.099
		l2.196,5.519l2.04,9.46l1.569,6.149l4.865-0.158l5.962-1.182l-2.198-7.173l-0.941,0.473l-3.452-2.365l-1.727-4.572l-1.883-3.469
		l-2.197-0.946l-2.04-3.469L796.391,241.362L796.391,241.362z"/>
</a>
<a xlink:href="#" >
	<path fill="#F2D0FF" d="M810.043,264.854l-5.961,1.26l-4.865,0.158l-1.569-6.149l-2.04-9.46l-2.196-5.519l-1.251-4.29l-8.058,1.583
		l-14.44,2.753l-36.354,7.364l1.099,4.888l0.941,5.519l0.313-0.315l2.04-2.365l2.197-2.996l2.354-0.157l1.412-1.419l1.727-2.522
		l1.256,0.631l2.824-0.315l2.511-2.05l1.948-1.417l1.791-0.473l1.597,1.102l2.824,1.419l1.883,1.734l1.178,1.498l4.001,1.656v2.838
		l5.336,1.261l1.883,1.261l0.941-1.892l2.197,1.577l-1.412,3.153l-0.314,2.681l-1.726,2.522v2.05l0.628,1.734l4.915,1.322
		l4.185-0.06l2.982,0.946l2.04,0.315l0.941-2.049l-1.412-2.05v-1.734l-2.354-2.049l-2.04-5.361l1.256-5.203l-0.157-2.049
		l-1.256-1.262c0,0,1.413-1.577,1.413-2.207c0-0.631,0.471-2.05,0.471-2.05l1.883-1.261l1.883-1.577l0.472,0.946l-1.413,1.577
		l-1.255,3.626l0.313,1.104l1.727,0.315l0.471,5.361l-2.04,0.946l0.313,3.469l0.471-0.158l1.099-1.892l1.569,1.734l-1.569,1.261
		l-0.313,3.311l2.511,3.311l3.766,0.473l1.569-0.789l3.139,5.045l1.727,0.473v3.468l-2.197,4.73l-0.471,6.78l1.412,3.311
		l1.413,0.158l1.883-4.099l0.784-3.469l0.157-6.938l2.981-4.73l2.04-6.78V264.854L810.043,264.854z"/>
</a>
<a xlink:href="#" >
	<path fill="#F2D0FF" d="M794.118,274.391l1.099,2.444l0.156,1.734l1.099,1.813c0,0,0.863-0.867,0.863-1.182
		c0-0.315-0.706-2.996-0.706-2.996l-0.706-2.286L794.118,274.391z"/>
</a>
<a xlink:href="#" >
	<path id="WV" fill="#FFFFD0" d="M733.326,252.621l1.079,4.822l0.942,5.519l0.313-0.315l2.04-2.365l2.197-2.996l2.354-0.157
		l1.412-1.419l1.727-2.522l1.255,0.631l2.825-0.315l2.511-2.05l1.948-1.417l1.791-0.473l1.597,1.102l2.824,1.419l1.883,1.734
		l1.334,1.261l-1.02,4.888l-5.493-2.996l-4.394-1.734l-0.157,5.203l-0.471,2.05l-1.569,2.68l-0.627,1.577l-2.982,2.365l-0.471,2.207
		l-3.295,0.315l-0.314,2.996l-1.098,5.361h-2.511l-1.256-0.789l-1.569-2.68l-1.727,0.158l-0.313,4.257l-2.04,6.464l-4.864,10.564
		l0.784,1.262l-0.157,2.68l-2.04,1.893l-1.412-0.316l-3.139,2.365l-2.511-0.945l-1.727,4.572c0,0-3.608,0.787-4.236,0.945
		s-2.354-1.262-2.354-1.262l-2.354,2.207l-2.511,0.631l-2.825-0.787l-1.255-1.262l-2.128-2.949l-3.051-1.938l-2.511-2.681
		l-2.824-3.626l-0.628-2.208l-2.511-1.419l-0.785-1.577l-0.235-5.124l2.118-0.079l1.884-0.789l0.157-2.68l1.568-1.419l0.157-4.888
		l0.941-3.784l1.256-0.63l1.255,1.104l0.471,1.734l1.727-0.946l0.471-1.577l-1.099-1.734v-2.365l0.941-1.261l2.197-3.311
		l1.256-1.419l2.04,0.473l2.196-1.577l2.982-3.311l2.196-3.784l0.314-5.518l0.471-4.888v-4.572l-1.099-2.996l0.941-1.419
		l1.246-1.262l3.389,19.337l4.495-0.732L733.326,252.621L733.326,252.621z"/>
</a>
<a xlink:href="#" >
	<path id="VA" fill="#FFD0D0" d="M699.568,306.477l1.883,3.469l1.255,1.262l2.825,0.787l2.511-0.629l2.354-2.209
		c0,0,1.727,1.42,2.354,1.262c0.627-0.158,4.236-0.945,4.236-0.945l1.727-4.572l2.511,0.945l3.139-2.365l1.412,0.316l2.04-1.893
		l0.157-2.68l-0.784-1.262l4.864-10.564l2.04-6.464l0.313-4.257l1.727-0.158l1.569,2.681l1.255,0.788h2.511l1.099-5.361l0.314-2.996
		l3.295-0.315l0.471-2.207l2.982-2.365l0.627-1.577l1.569-2.68l0.471-2.05l0.157-5.203l4.394,1.734l5.493,2.996l0.784-4.967
		l4.08,1.971v2.838l5.336,1.261l1.883,1.261l0.941-1.892l2.197,1.577l-1.412,3.153l-0.314,2.681l-1.726,2.522v2.05l0.627,1.734
		l4.916,1.322l1.831,1.516l5.021,0.315l2.511,2.208l3.139,0.63l1.256,1.261l-0.472,4.415l0.942,0.946l0.156,2.208l1.256,2.049
		l-0.157,1.734l-3.139-1.104v0.946l1.884,1.577v1.104l1.412,1.104l1.255,1.576l0.157,2.207l-2.197,1.42l0.314,0.473l2.511-0.473
		l3.139-0.631l1.099-0.158l3.956,6.854l-4.74,1.66l-11.142,2.838l-18.604,3.73l-19.999,3.68l-16.635,2.523l-15.356,1.893
		l-6.927,1.26l-4.38-0.602l-2.055-0.029l-2.354,1.893l-7.689,0.158l-11.644,1.854l-9.706,0.91l2.676-1.346l5.492-3.311l3.767-2.049
		v-2.051l1.726-1.734l4.395-5.203l4.08-3.469L699.568,306.477L699.568,306.477z"/>
</a>
<a xlink:href="#" >
	<path id="KY" fill="#D7FFD0" d="M699.457,307.202l-3.027,3.059l-4.08,3.469l-4.395,5.203l-1.726,1.734v2.051l-3.767,2.049
		l-5.492,3.311l-2.535,1.371l-50.35,4.779l-15.298,1.734l-4.486,0.5l-3.755-0.027v3.783l-8.16,0.473l-6.748,0.631l-10.125,0.201
		l0.976-1.213l2.116-1.719l1.998-1.113l0.222-3.123l0.888-1.783l-1.56-2.477l0.778-1.859l2.197-1.734l2.039-0.631l2.668,1.262
		l3.453,1.262l1.098-0.316l0.157-2.207l-1.255-2.365l0.313-2.207l1.883-1.418l2.511-0.631l1.569-0.631l-0.784-1.734l-0.628-1.893
		l1.099-0.787l1.02-3.232l2.903-1.656l5.649-0.945l3.452-0.473l1.413,1.891l1.726,0.789l1.727-3.154l2.824-1.418l1.884,1.576
		l0.784,1.104l2.04-0.473l-0.157-3.311l2.825-1.577l1.099-0.788l1.099,1.576h4.551l0.784-2.049l-0.313-2.208l2.824-3.468
		l4.551-3.784l0.471-4.415l2.668-0.315l3.767-1.734l2.668-1.892l-0.314-1.892l-1.412-1.419l0.549-2.128l4.002-0.236l2.354-0.789
		l2.825,1.577l1.569,4.257l5.649,0.315l1.726,1.734l2.04,0.158l2.354-1.419l2.981,0.473l1.255,1.419l2.668-2.522l1.727-1.262h1.569
		l0.628,2.681l1.726,0.946l3.452,2.05l0.157,5.36l0.785,1.577l2.511,1.419l0.627,2.208l2.825,3.626l2.511,2.681L699.457,307.202z"/>
</a>
<a xlink:href="#" >
	<path id="OH" fill="#FFD0D0" d="M708.827,206.711l-6.906,4.064l-3.767,2.207l-3.295,3.626l-3.924,3.784l-3.139,0.789l-2.824,0.473
		l-5.336,2.522l-2.04,0.158l-3.295-2.996l-5.021,0.63l-2.511-1.419l-2.312-1.317l-4.749,0.686l-9.887,1.577l-7.532,1.183
		l1.255,14.269l1.727,13.402l2.511,22.861l0.549,5.597l4.002-0.236l2.354-0.789l2.825,1.577l1.569,4.257l5.649,0.315l1.726,1.734
		l2.04,0.158l2.354-1.419l2.981,0.473l1.255,1.419l2.668-2.522l1.727-1.262h1.569l0.627,2.681l1.727,0.946l3.374,2.286l2.118-0.079
		l1.884-0.789l0.156-2.68l1.569-1.419l0.157-4.888l0.941-3.784l1.256-0.63l1.255,1.104l0.471,1.734l1.727-0.946l0.471-1.577
		l-1.099-1.734v-2.365l0.941-1.261l2.197-3.311l1.256-1.419l2.04,0.473l2.196-1.577l2.981-3.311l2.197-3.784l0.314-5.518
		l0.471-4.888v-4.572l-1.099-2.996l0.941-1.419l1.334-0.71l-1.805-10.485L708.827,206.711L708.827,206.711z"/>
</a>
<a xlink:href="#" >
	<polygon fill="#D7FFD0" points="562.406,96.664 564.182,94.657 566.29,93.877 571.506,90.086 573.725,89.529 574.169,89.975 
		569.175,94.992 565.957,96.887 563.96,97.779 562.406,96.664 	"/>
</a>
<a xlink:href="#" >
	<path fill="#D7FFD0" d="M646.058,127.998l0.627,2.444l3.139,0.158l1.256-1.183c0,0-0.079-1.419-0.393-1.577
		s-1.569-1.813-1.569-1.813l-2.118,0.236l-1.569,0.158l-0.314,1.104L646.058,127.998z"/>
</a>
<a xlink:href="#" >
	<path fill="#D7FFD0" d="M675.243,189.49l-3.139-8.041l-2.196-8.829l-2.354-3.153l-2.511-1.734l-1.569,1.104l-3.767,1.734
		l-1.883,4.888l-2.668,3.626l-1.098,0.63l-1.413-0.63c0,0-2.511-1.419-2.354-2.05s0.471-4.888,0.471-4.888l3.296-1.261l0.784-3.311
		l0.628-2.522l2.354-1.577l-0.313-9.775l-1.569-2.208l-1.256-0.788l-0.784-2.05l0.784-0.788l1.569,0.315l0.157-1.577l-2.354-2.208
		l-1.256-2.522h-2.511l-4.394-1.419l-5.336-3.311h-2.668l-0.628,0.63l-0.941-0.473l-2.981-2.208l-2.824,1.734l-2.825,2.207
		l0.313,3.469l0.942,0.315l2.04,0.473l0.471,0.788l-2.511,0.789l-2.511,0.315l-1.413,1.734l-0.313,2.05l0.313,1.577l0.314,5.361
		l-3.452,2.049l-0.628-0.158V153.7l1.255-2.365l0.628-2.365l-0.784-0.788l-1.884,0.788l-0.941,4.099l-2.668,1.104l-1.726,1.892
		l-0.157,0.946l0.628,0.788l-0.628,2.523l-2.197,0.473v1.104l0.785,2.365l-1.099,5.991l-1.569,3.942l0.628,4.572l0.471,1.104
		l-0.785,2.365l-0.313,0.788l-0.313,2.681l3.452,5.833l2.824,6.307l1.413,4.73l-0.785,4.572l-0.941,5.833l-2.354,5.045l-0.314,2.68
		l-2.992,3.034l-0.722,0.75l4.5-0.158l21.342-2.207l5.963-0.631l0.314,1.183l7.532-1.183l9.887-1.577l5.062-0.449l-1.298-1.126
		l0.157-1.419l2.04-3.626l1.941-1.695l-0.216-4.927l1.551-1.558l1.059-0.334l0.216-3.468l1.49-2.957l1.021,0.591l0.157,0.631
		l0.784,0.158l1.883-0.946L675.243,189.49z"/>
</a>
<a xlink:href="#" >
	<polygon fill="#D7FFD0" points="547.591,125.541 549.388,124.532 552.056,123.743 555.508,121.536 555.508,120.59 556.136,119.959 
		561.942,119.013 564.296,117.121 568.533,115.072 568.69,113.811 570.573,110.972 572.3,110.184 573.555,108.45 575.752,106.242 
		579.988,103.877 584.54,103.404 585.638,104.508 585.324,105.454 581.715,106.4 580.303,109.396 578.105,110.184 577.635,112.549 
		575.281,115.702 574.967,118.225 575.752,118.698 576.693,117.594 580.146,114.756 581.401,116.018 583.598,116.018 
		586.736,116.964 588.148,118.067 589.562,121.063 592.229,123.743 595.995,123.585 597.407,122.64 598.977,123.901 
		600.546,124.374 601.802,123.585 602.9,123.585 604.47,122.64 608.393,119.171 611.688,118.067 618.122,117.752 622.516,115.86 
		625.026,114.599 626.439,114.756 626.439,120.274 626.91,120.59 629.734,121.378 631.617,120.905 637.581,119.329 638.68,118.225 
		640.092,118.698 640.092,125.478 643.23,128.473 644.485,129.104 645.741,130.05 644.485,130.365 643.701,130.05 640.092,129.577 
		638.052,130.208 635.854,130.05 632.716,131.469 630.99,131.469 625.341,130.208 620.319,130.365 618.436,132.888 611.688,133.519 
		609.334,134.307 608.235,137.303 606.98,138.406 606.51,138.249 605.097,136.672 600.703,139.037 600.075,139.037 598.977,137.46 
		598.192,137.618 596.31,141.875 595.367,145.816 591.729,153.751 590.146,152.631 588.814,151.294 587.261,141.26 583.71,140.145 
		582.379,137.916 570.173,135.24 567.731,134.125 559.742,131.895 551.753,130.78 547.592,125.541 	"/>
</a>
<a xlink:href="#" >
	<path id="WY" fill="#FFD0D0" d="M342.631,157.012l-11.175-0.944l-31.148-3.214l-15.757-2.007l-27.519-4.013l-19.308-2.899
		l-1.378,10.9l-3.727,23.661l-5.104,29.655l-1.486,10.256l-1.621,11.595l6.333,0.905l16.393,2.23l8.573,1.147l19.967,2.406
		l36.174,4.014l23.747,2.007l4.217-43.257l1.553-24.75L342.631,157.012L342.631,157.012z"/>
</a>
<a xlink:href="#" >
	<path id="MT" fill="#FFFFD0" d="M344.824,136.354l0.785-11.345l2.192-24.331l1.332-14.716l1.224-13.879l-31.022-3.208
		l-28.404-3.468l-28.404-3.942l-31.385-5.203l-17.89-3.311l-31.766-6.761l-4.348,20.82l3.329,7.358l-1.332,4.459l1.775,4.459
		l3.107,1.338l3.551,10.034l3.551,3.567l0.444,1.115l3.329,1.115l0.444,2.007l-6.88,17.169v2.453l2.441,3.122h0.888l4.661-2.899
		l0.666-1.115l1.553,0.669l-0.222,5.128l2.663,12.264l2.885,2.453l0.888,0.669l1.775,2.229l-0.443,3.345l0.666,3.345l1.11,0.892
		l2.219-2.229h2.663l3.107,1.561l2.441-0.892h3.995l3.551,1.561l2.663-0.446l0.444-2.898l2.885-0.669l1.332,1.338l0.443,3.122
		l2.506,2.427l1.489-11.123l19.308,2.899l27.519,4.014l15.757,2.006l31.148,3.214l11.136,1.173l1.644-15.516L344.824,136.354
		L344.824,136.354z"/>
</a>
<a xlink:href="#" >
	<path id="ID" fill="#D7FFD0" d="M134.357,189.816l4.609-18.009l4.217-17.281l1.332-4.125l2.441-5.797l-1.221-2.229l-2.441,0.111
		l-0.776-1.003l0.444-1.115l0.333-3.01l4.328-5.351l1.775-0.446l1.11-1.115l0.555-3.122l0.888-0.669l3.773-5.686l3.772-4.237
		l0.222-3.679l-3.329-2.564l-1.276-4.292l0.388-9.421l3.551-16.054l4.328-20.29l3.662-13.156l0.739-3.709l13.706,2.622l-4.348,20.82
		l3.329,7.358l-1.332,4.459l1.775,4.459l3.107,1.338l3.551,10.034l3.551,3.567l0.444,1.115l3.329,1.115l0.444,2.006l-6.88,17.169
		v2.453l2.441,3.122h0.888l4.661-2.899l0.666-1.115l1.553,0.669l-0.222,5.128l2.663,12.263l2.885,2.453l0.888,0.669l1.776,2.229
		l-0.444,3.345l0.666,3.345l1.11,0.892l2.219-2.229h2.663l3.107,1.561l2.441-0.892h3.995l3.551,1.561l2.663-0.446l0.444-2.899
		l2.885-0.668l1.332,1.337l0.444,3.122l2.552,2.006l-3.662,23.858l-4.993,29.544l-4.661-0.78l-8.101-1.338l-9.987-1.784
		l-11.651-2.007l-12.317-2.286l-7.767-1.951l-8.988-1.784l-9.432-1.895L134.357,189.816L134.357,189.816z"/>
</a>
<a xlink:href="#" >
	<polygon fill="#FFD0D0" points="88.652,22.837 92.889,24.256 102.304,26.937 110.622,28.829 130.08,34.347 152.364,39.865 
		168.015,43.489 167.041,47.277 163.378,60.433 159.051,80.723 155.5,96.777 155.314,106.237 141.741,102.909 127.093,99.453 
		112.113,99.564 111.669,98.227 106.343,100.233 102.016,99.676 99.685,98.115 98.465,98.784 93.915,98.561 92.25,97.223 
		87.146,95.216 86.37,95.328 82.153,93.878 80.267,95.662 74.274,95.328 68.504,91.314 69.17,90.534 69.392,82.953 67.173,79.162 
		63.178,78.604 62.512,76.152 60.228,75.697 58.365,74.236 56.639,75.182 54.442,72.344 54.755,69.506 57.423,69.191 58.993,65.25 
		56.482,64.146 56.639,60.52 60.876,59.889 58.208,57.208 56.795,50.271 57.423,47.433 57.423,39.708 55.697,36.554 57.894,27.41 
		59.934,27.883 62.288,30.721 64.956,33.243 68.094,35.135 72.488,37.185 75.47,37.815 78.294,39.234 81.59,40.181 83.787,40.023 
		83.787,37.658 85.042,36.554 87.083,35.293 87.396,36.396 87.71,38.131 85.513,38.604 85.199,40.653 86.926,42.072 88.024,44.438 
		88.652,46.33 90.064,46.172 90.221,44.911 89.279,43.649 88.809,40.496 89.593,38.762 88.966,37.343 88.966,35.135 90.692,31.667 
		89.593,29.144 87.239,24.414 87.553,23.625 88.652,22.837 	"/>
</a>
<a xlink:href="#" >
	<path fill="#FFD0D0" d="M79.472,28.668l1.961-0.158l0.471,1.34l1.491-1.577h2.275l0.785,1.498l-1.491,1.656l0.628,0.788
		l-0.707,1.971l-1.333,0.395c0,0-0.863,0.079-0.863-0.237c0-0.315,1.412-2.522,1.412-2.522l-1.647-0.552l-0.314,1.419l-0.706,0.63
		l-1.491-2.207L79.472,28.668L79.472,28.668z"/>
</a>
<a xlink:href="#" >
	<polyline fill="#D7FFD0" points="344.417,341.768 366.442,342.827 396.625,343.942 395.293,367.131 394.85,384.524 
		395.071,386.084 399.288,389.653 401.285,390.766 401.951,390.543 402.617,388.538 403.948,390.321 405.946,390.321 
		405.946,388.983 408.609,390.321 408.165,394.112 412.16,394.334 414.601,395.45 418.596,396.118 421.037,397.903 423.256,395.895 
		426.585,396.565 429.026,399.909 429.914,399.909 429.914,402.139 432.134,402.807 434.353,400.577 436.128,401.247 
		438.569,401.247 439.457,403.7 444.117,405.483 445.449,404.815 447.225,400.801 448.334,400.801 449.443,402.807 453.438,403.477 
		456.989,404.815 459.874,405.706 461.649,404.815 462.315,402.362 466.532,402.362 468.529,403.252 471.192,401.247 
		472.303,401.247 472.968,402.807 476.963,402.807 478.517,400.801 480.292,401.247 482.289,403.7 485.396,405.483 488.503,406.375 
		491.166,407.602 493.386,409.497 496.271,408.159 498.934,409.274 499.586,420.102 499.6,429.565 500.266,438.706 500.931,442.497 
		503.372,446.51 504.26,451.415 508.477,456.766 508.698,459.889 509.364,460.557 508.698,468.807 505.813,473.713 507.367,475.719 
		506.701,478.172 506.035,485.307 504.704,488.428 504.979,491.924 498.701,493.627 489.128,498.042 488.187,499.934 
		485.676,501.825 483.636,503.245 482.381,504.034 476.888,509.235 474.221,511.286 469.042,514.438 463.549,516.803 
		457.429,520.114 455.703,521.534 450.054,525.002 446.758,525.633 442.992,530.993 439.068,531.309 438.127,533.202 
		440.324,535.092 438.912,540.454 437.656,544.868 436.558,548.653 435.773,553.067 436.558,555.432 438.284,562.211 
		439.226,568.202 440.952,570.883 440.01,572.301 437.028,574.194 431.536,570.411 426.201,569.307 424.945,569.78 421.807,569.149 
		417.727,566.153 412.705,565.049 405.329,561.739 403.289,557.954 402.034,551.647 398.896,549.756 398.268,547.549 
		398.896,546.918 399.209,543.606 397.954,542.977 397.326,542.03 398.582,537.774 397.013,535.565 393.874,534.305 
		390.579,530.047 387.126,523.583 383.046,521.061 383.203,519.168 378.024,507.186 377.24,503.086 375.514,501.194 
		375.356,499.776 369.55,494.573 367.04,491.577 367.04,490.473 364.529,488.424 357.938,487.321 350.719,486.69 347.737,484.483 
		343.344,486.217 339.891,487.635 337.694,490.79 336.752,494.415 332.516,500.407 330.162,502.772 327.651,501.825 
		325.925,500.721 324.042,500.09 320.275,497.883 320.275,497.252 318.549,495.362 313.527,493.311 306.309,485.743 304.112,481.17 
		304.112,473.288 300.973,466.981 300.502,464.301 298.933,463.356 297.835,461.305 292.97,459.256 291.715,457.678 284.81,449.954 
		283.555,446.799 279.003,444.592 277.591,440.336 275.081,437.499 273.197,437.024 272.567,432.463 280.334,433.131 
		308.52,435.807 336.704,437.368 338.923,414.178 342.696,359.997 344.25,341.713 345.582,341.741 	"/>
</a>
<a xlink:href="#" >
	<polygon fill="#D7FFD0" points="441.66,569.936 441.11,562.999 438.442,555.983 437.894,549.124 439.385,541.083 442.602,534.383 
		445.976,529.1 449.035,525.631 449.663,525.87 445.033,532.333 440.797,538.719 438.835,545.182 438.521,550.229 439.385,556.219 
		441.896,563.235 442.366,568.282 442.522,569.7 	"/>
</a>
<a xlink:href="#" >
	<polygon fill="#D7FFD0" points="131.179,394.456 135.194,393.667 136.636,391.547 137.191,388.872 133.64,388.315 133.196,387.534 
		133.64,385.862 133.751,380.176 135.749,379.506 138.522,376.831 139.078,372.038 140.52,368.469 142.406,366.575 145.735,364.903 
		147.289,363.565 147.4,361.334 146.401,360.778 145.625,359.774 144.404,354.088 141.741,349.293 142.302,346.108 139.854,342.94 
		125.762,320.752 106.898,292.436 84.816,259.436 72.797,241.313 74.385,234.909 81.154,209.601 89.033,178.942 75.939,175.375 
		62.845,172.03 50.639,168.017 43.315,166.01 32.219,163.111 25.375,160.759 23.841,165.367 23.684,172.62 18.663,184.129 
		15.681,186.652 15.367,187.755 13.641,188.544 12.229,192.643 11.444,195.796 14.111,199.896 15.681,203.995 16.779,207.464 
		16.465,213.77 14.739,216.766 14.111,222.442 13.17,226.068 14.896,229.852 17.564,234.267 19.761,238.997 21.016,242.938 
		20.703,246.092 20.389,246.564 20.389,248.614 25.881,254.763 25.41,257.128 24.783,259.335 24.155,261.228 24.312,269.269 
		26.352,272.895 28.235,275.417 30.903,275.891 31.844,278.571 30.746,282.04 28.706,283.616 27.607,283.616 26.823,287.4 
		27.293,290.238 30.432,294.495 32.001,299.698 33.414,304.27 34.669,307.266 37.964,312.942 39.377,315.465 39.848,318.303 
		41.417,319.249 41.417,321.614 40.632,323.506 38.906,330.442 38.435,332.334 40.789,335.014 44.869,335.489 49.263,337.223 
		53.029,339.272 55.854,339.272 58.679,342.268 61.189,346.999 62.288,349.206 66.054,351.254 70.762,352.043 72.174,354.092 
		72.802,357.247 71.39,357.877 71.704,358.823 74.842,359.612 77.51,359.768 80.334,364.34 84.101,368.44 84.885,370.647 
		87.396,374.747 87.71,377.901 87.71,387.045 88.181,388.78 97.91,390.198 117.055,392.877 131.179,394.456 	"/>
</a>
<a xlink:href="#" >
	<polygon fill="#D7FFD0" points="45.184,345.34 46.439,346.838 46.282,348.1 43.143,348.022 42.594,346.838 41.966,345.42 
		45.184,345.34 	"/>
</a>
<a xlink:href="#" >
	<polygon fill="#D7FFD0" points="47.066,345.34 48.244,344.709 51.696,346.76 54.677,347.942 53.814,348.573 49.42,348.336 
		47.851,346.76 47.066,345.34 	"/>
</a>
<a xlink:href="#" >
	<polygon fill="#D7FFD0" points="67.153,364.655 68.879,366.942 69.664,367.887 71.155,368.44 71.704,367.02 70.763,365.286 
		68.173,363.315 67.153,363.473 	"/>
</a>
<a xlink:href="#" >
	<path fill="#D7FFD0" d="M65.741,373.09l1.726,3.074l1.177,1.893l-1.413,0.236l-1.255-1.184c0,0-0.706-1.418-0.706-1.812
		s0-2.129,0-2.129L65.741,373.09L65.741,373.09z"/>
</a>
<a xlink:href="#" >
	<path id="AZ" fill="#FFFFD0" d="M131.532,394.557l-2.55,2.105l-0.314,1.418l0.471,0.947l18.36,10.406l11.77,7.41l14.28,8.355
		l16.32,9.775l11.927,2.365l25.95,3.42l1.989-12.98l3.643-26.256l6.761-51.887l4.133-30.045l-24.967-3.744l-26.409-4.459
		l-32.45-6.162l-2.836,17.645l-0.444,0.445l-1.665,2.564l-2.441-0.111l-1.221-2.676l-2.663-0.334l-0.888-1.115H147.4l-0.888,0.559
		l-1.887,1.002l-0.111,6.801l-0.222,1.672l-0.555,12.264l-1.442,2.119l-0.555,3.232l2.663,4.795l1.221,5.686l0.776,1.004
		l0.999,0.557l-0.111,2.23l-1.553,1.338l-3.329,1.672l-1.886,1.895l-1.442,3.568l-0.555,4.793l-2.774,2.676l-1.998,0.67
		l-0.111,5.686l-0.444,1.672l0.444,0.781l3.551,0.557l-0.555,2.676l-1.442,2.119L131.532,394.557L131.532,394.557z"/>
</a>
<a xlink:href="#" >
	<path id="NV" fill="#FFD0D0" d="M134.357,189.816l20.366,4.4l9.432,1.895l8.988,1.784l7.823,2.062l-1.165,5.407l-3.44,17.058
		l-3.662,19.956l-1.887,8.696l-2.108,13.267l-3.218,16.166l-3.107,14.828l-1.911,10.242l-2.861,17.295l-0.444,0.445l-1.665,2.564
		l-2.441-0.111l-1.221-2.676l-2.663-0.334l-0.888-1.115H147.4l-0.888,0.559l-1.887,1.002l-0.111,6.801l-0.222,1.672l-0.555,12.264
		l-1.439,2.143l-2.445-3.145l-14.092-22.188l-18.864-28.317l-22.082-33l-12.019-18.123l1.588-6.404l6.769-25.307l7.656-30.573
		l32.624,7.941l13.316,2.898"/>
</a>
<a xlink:href="#" >
	<path id="UT" fill="#F2D0FF" d="M244.16,319.862l-24.855-4.014l-26.41-4.459l-32.524-6.028l2.009-10.026l3.107-14.828l3.218-16.166
		l2.108-13.267l1.887-8.696l3.662-19.956l3.44-17.058l1.082-5.435l12.345,2.202l11.651,2.007l9.987,1.784l8.101,1.338l4.661,0.78
		l-1.597,10.368l-1.621,11.595l6.333,0.905l16.394,2.23l8.905,1.147l-3.002,21.582l-3.107,21.852l-3.643,27.294l-1.461,10.834
		L244.16,319.862L244.16,319.862z"/>
</a>
<a xlink:href="#" >
	<path id="CO" fill="#D7FFD0" d="M362.448,331.456l3.995-64.216l1.553-21.852l-32.401-2.675l-23.747-2.007l-36.174-4.014
		l-20.084-2.453l-2.552,21.628l-3.107,21.851l-3.643,27.295l-1.461,10.834l-0.555,3.791l33.4,4.014l35.857,4.316l31.803,2.148
		l6.464,0.67l11.096,0.557"/>
</a>
<a xlink:href="#" >
	<path id="NM" fill="#FFD0D0" d="M273.354,437.182l-0.787-4.719l7.767,0.668l28.185,2.676l28.185,1.561l2.22-23.189l3.772-54.182
		l1.554-18.283l1.332,0.027l-0.014-11.428l-32.039-2.344l-35.857-4.318l-33.456-4.012l-4.077,29.996l-6.761,51.889l-3.643,26.256
		l-1.989,12.98l15.008,1.939l1.255-9.773l16.164,2.521L273.354,437.182L273.354,437.182z"/>
</a>
<a xlink:href="#" >
	<path id="OR" fill="#F2D0FF" d="M134.357,189.816l4.609-18.009l4.217-17.281l1.332-4.125l2.441-5.797l-1.221-2.229l-2.441,0.111
		l-0.776-1.003l0.444-1.115l0.333-3.01l4.328-5.351l1.775-0.446l1.11-1.115l0.555-3.122l0.888-0.669l3.773-5.686l3.772-4.237
		l0.222-3.679l-3.329-2.564l-1.018-4.085l-13.629-3.496l-14.647-3.456l-14.98,0.111l-0.444-1.338l-5.326,2.007l-4.328-0.557
		l-2.331-1.561l-1.22,0.669l-4.55-0.223l-1.665-1.338l-5.104-2.006l-0.777,0.111l-4.217-1.449l-1.886,1.784l-5.992-0.334
		l-5.77-4.014l0.666-0.78l0.222-7.581l-2.219-3.791l-3.995-0.558l-0.666-2.453l-2.285-0.455l-5.629,2.008l-2.197,6.307l-3.139,9.775
		l-3.139,6.307L41.26,113.81l-6.277,13.244l-7.846,12.298l-1.883,2.838l-0.785,8.356l-1.255,5.833l2.162,4.379l6.844,2.352
		l11.096,2.899l7.324,2.006l12.206,4.014l13.094,3.345l13.094,3.791l28.886,6.949L134.357,189.816z"/>
</a>
<a xlink:href="#" >
	<path id="ND" fill="#D7FFD0" d="M456.102,141.929l-0.666-8.25l-1.775-7.135l-1.775-13.156l-0.443-9.588l-1.775-3.344l-1.554-4.906
		V85.517l0.666-3.791l-1.898-5.363l-28.525-0.55l-18.047-0.631l-25.736-1.261l-24.216-1.837l-1.224,13.879l-1.332,14.716
		l-2.192,24.331l-0.628,11.844l54.529,3.515L456.102,141.929L456.102,141.929z"/>
</a>
<a xlink:href="#" >
	<path id="SD" fill="#F2D0FF" d="M457.55,215.575l-0.926-1.993l-1.632-2.754l1.775-4.237l1.331-5.574l-2.663-2.007l-0.443-2.675
		l0.888-2.453h1.775l0.443-6.689l-0.222-29.655l-0.444-2.899l-3.994-3.344l-1.109-1.784v-1.561l1.997-1.561l1.331-1.338l0.333-3.122
		l-56.48-1.561l-54.529-3.791l-0.744,5.149l-1.566,15.476l-1.306,17.503l-1.553,25.084l15.091,1.003l19.53,1.115l17.31,1.115
		l23.081,1.115l10.431-0.446l1.997,2.23l4.66,2.898l1.11,0.892l4.216-1.338l3.773-0.446l2.663-0.223l1.775,1.338l4.882,1.561
		l2.886,1.561l0.443,1.561l0.888,2.007h1.775L457.55,215.575L457.55,215.575z"/>
</a>
<a xlink:href="#" >
	<path id="NE" fill="#FFFFD0" d="M468.974,257.206l1.331,2.453l-0.222,2.229l2.441,3.791l3.106,4.014h-5.992l-42.832-0.446
		l-39.281-1.338l-21.194-0.78l1.665-21.74l-32.401-2.676l4.217-42.922l15.091,1.003l19.53,1.115l17.31,1.115l23.081,1.115
		l10.431-0.446l1.997,2.23l4.66,2.898l1.11,0.892l4.216-1.338l3.773-0.446l2.663-0.223l1.775,1.338l4.882,1.561l2.886,1.561
		l0.443,1.561l0.888,2.006h1.775l1.554-0.111l1.109,5.24l2.663,7.358l0.888,4.682l2.22,3.568l0.666,5.128l1.553,4.013l0.223,6.466
		l1.881,5.365"/>
</a>
<a xlink:href="#" >
	<path id="IA" fill="#D7FFD0" d="M548.812,213.057l0.056,1.784l2.22,0.669l0.888,1.115l0.443,1.784l3.773,3.345l0.665,2.229
		l-0.665,3.345l-1.775,3.567l-0.666,2.453l-2.22,1.784l-1.775,0.669l-5.104,1.337l-0.665,1.784l-0.666,2.007l0.666,1.338
		l1.775,1.561l-0.223,4.013l-1.775,1.561l-0.665,1.561v2.675l-1.775,0.446l-1.554,1.115l-0.222,1.338l0.222,2.007l-1.665,1.728
		l-3.218-3.289l-1.109-2.229l-7.546,0.669l-9.543,0.446l-24.634,0.892l-13.094,0.223l-9.099,0.223l-1.058,0.118l-1.605-5.247
		l-0.223-6.466l-1.553-4.014l-0.666-5.128l-2.22-3.567l-0.888-4.683l-2.663-7.358l-1.109-5.24l-1.332-2.118l-1.553-2.676
		l1.775-4.237l1.331-5.574l-2.663-2.007l-0.443-2.675l0.888-2.453h1.664h11.207l48.158-0.669l17.533-0.669l3.994-0.112l0.666,3.233
		l2.219,1.561l0.223,1.338l-1.998,3.345l0.223,3.122l2.44,3.791l2.441,1.115l2.885,0.446L548.812,213.057L548.812,213.057z"/>
</a>
<a xlink:href="#" >
	<path id="MS" fill="#F2D0FF" d="M604.97,472.063l-1.128,1.225h-5.021l-1.413-0.787l-2.04-0.316l-6.591,1.893l-1.726-0.789
		l-2.511,4.1l-1.07,0.76l-1.091-2.428l-1.11-3.791l-3.329-3.121l1.11-7.357l-0.666-0.893l-1.775,0.223l-7.989,0.67l-23.524,0.668
		l-0.444-1.561l0.666-7.805l3.329-6.02l5.104-8.918l-0.888-2.008h1.109l0.666-3.121l-2.22-1.783l0.223-1.785l-1.998-4.459
		l-0.277-5.213l1.332-2.592l-0.389-4.236l-1.332-2.898l1.332-1.338l-1.332-2.006l0.444-1.785l0.888-6.02l2.885-2.676l-0.666-2.006
		l3.552-5.129l2.663-0.893v-2.453l-0.666-1.338l2.663-5.127l2.663-1.115l0.104-3.328l8.421-0.076l23.383-1.891l5.327-0.223
		l0.008,6.213l0.157,16.24l-0.785,30.271l-0.156,13.717l2.668,18.289L604.97,472.063L604.97,472.063z"/>
</a>
<a xlink:href="#" >
	<path id="IN" fill="#F2D0FF" d="M598.351,311.049l-0.157-3.783l0.471-4.416l2.197-2.838l1.726-3.783l2.511-4.1l-0.471-5.676
		l-1.726-2.68l-0.314-3.153l0.785-5.361l-0.471-6.78l-1.256-15.609l-1.255-14.978l-0.942-11.431l2.981,0.868l1.412,0.946
		l1.099-0.315l2.04-1.892l2.746-1.577l4.944-0.158l21.342-2.207l5.963-0.631l0.157,1.104l1.412,14.347l1.727,13.402l2.511,22.861
		l0.471,5.519l-0.471,2.208l1.412,1.419l0.313,1.892l-2.667,1.892l-3.767,1.734l-2.668,0.315l-0.471,4.415l-4.551,3.784
		l-2.824,3.468l0.313,2.208l-0.784,2.049h-4.551l-1.099-1.576l-1.099,0.788l-2.825,1.577l0.157,3.311l-2.04,0.473l-0.784-1.104
		l-1.884-1.576l-2.824,1.418l-1.727,3.154l-1.726-0.789l-1.413-1.891l-3.452,0.473l-5.649,0.945L598.351,311.049L598.351,311.049z"
		/>
</a>
<a xlink:href="#" >
	<path id="IL" fill="#FFD0D0" d="M598.193,310.891v-3.625l0.471-4.416l2.197-2.838l1.726-3.783l2.511-4.1l-0.471-5.676l-1.726-2.68
		l-0.314-3.153l0.785-5.361l-0.471-6.78l-1.256-15.609l-1.255-14.978l-0.785-11.352l-1.256-0.788l-0.785-2.522l-1.255-3.626
		l-1.569-1.734l-1.413-2.522l-0.227-5.354l-9.612,1.28l-26.409,1.672l-8.434-0.418l0.222,2.313l2.22,0.668l0.888,1.115l0.443,1.784
		l3.773,3.345l0.665,2.229l-0.665,3.345l-1.775,3.567l-0.666,2.453l-2.22,1.784l-1.775,0.669l-5.104,1.337l-0.665,1.784
		l-0.666,2.006l0.666,1.338l1.775,1.561l-0.223,4.014l-1.775,1.561l-0.665,1.561v2.676l-1.775,0.446l-1.554,1.115l-0.222,1.338
		l0.222,2.007l-1.665,1.282l-0.998,2.731l0.443,3.567l2.22,7.135l7.102,7.358l5.326,3.567l-0.222,4.237l0.888,1.338l6.214,0.446
		l2.663,1.338l-0.666,3.567l-2.219,5.797l-0.666,3.121l2.22,3.791l6.214,5.129l4.438,0.668l1.997,4.906l1.997,3.121l-0.888,2.898
		l1.554,4.014l1.775,2.008l2.879-0.33l0.557-2l2.197-1.734l2.04-0.631l2.667,1.262l3.453,1.262l1.098-0.316l0.157-2.207
		l-1.255-2.365l0.313-2.207l1.883-1.418l2.511-0.631l1.569-0.631l-0.784-1.734l-0.628-1.893l1.099-0.787L598.193,310.891
		L598.193,310.891z"/>
</a>
<a xlink:href="#" >
	<path id="MN" fill="#FFD0D0" d="M455.88,141.929l-0.444-8.25l-1.775-7.135l-1.775-13.156l-0.443-9.588l-1.775-3.344l-1.554-4.906
		V85.517l0.666-3.791l-1.768-5.317l29.25,0.034l0.313-8.041l0.628-0.157l2.196,0.473l1.884,0.789l0.784,5.361l1.412,5.991
		l1.569,1.577h4.708l0.314,1.419l6.12,0.315v2.05h4.707l0.314-1.261l1.099-1.104l2.196-0.631l1.256,0.946h2.824l3.767,2.523
		l5.179,2.365l2.354,0.473l0.471-0.946l1.412-0.473l0.472,2.838l2.511,1.261l0.471-0.473l1.255,0.157v2.05l2.511,0.946h2.981
		l1.569-0.789l3.139-3.153l2.511-0.473l0.785,1.734l0.471,1.262h0.941l0.941-0.789l8.631-0.315l1.727,2.996h0.628l0.692-1.057
		l4.31-0.362l-0.594,2.223l-3.823,1.792l-8.976,3.96l-4.635,1.958l-2.981,2.522l-2.354,3.469l-2.197,3.784l-1.727,0.788
		l-4.394,4.888l-1.256,0.158l-3.295,2.996l0.668,0.53l-2.734,2.64l-0.222,2.676v8.25l-1.109,1.561l-5.104,3.791l-2.22,5.797
		l0.444,0.223l2.441,2.007l0.665,3.122l-1.775,3.122v3.791l0.444,6.466l2.885,2.898h3.329l1.775,3.122l3.329,0.446l3.772,5.575
		l6.88,4.013l1.997,2.676l0.888,7.358h-3.994l-17.532,0.669l-48.158,0.669h-11.208l0.555-6.689l-0.222-29.655l-0.443-2.899
		l-3.995-3.344l-1.109-1.784v-1.561l1.997-1.561l1.332-1.338L455.88,141.929L455.88,141.929z"/>
</a>
<a xlink:href="#" >
	<path id="WI" fill="#FFFFD0" d="M593.031,210.159l0.14-4.114l-1.569-4.415l-0.628-5.991l-1.099-2.365l0.941-2.996l0.785-2.838
		l1.412-2.523l-0.628-3.311l-0.628-3.469l0.472-1.734l1.883-2.365l0.157-2.68l-0.785-1.261l0.628-2.523l0.471-3.153l2.668-5.518
		l2.824-6.622l0.157-2.208l-0.314-0.946l-0.784,0.473l-4.08,6.149l-2.668,3.941l-1.883,1.734l-0.785,2.208l-1.412,0.788
		l-1.099,1.892l-1.412-0.315l-0.157-1.734l1.256-2.365l2.04-4.572l1.727-1.577l1.068-2.235l-1.583-0.883l-1.331-1.337l-1.554-10.034
		l-3.551-1.115l-1.331-2.229l-12.206-2.676l-2.441-1.115l-7.989-2.229l-7.989-1.115l-4.048-5.271l-0.514,1.23l-1.099-0.158
		l-0.628-1.104l-2.668-0.789l-1.098,0.158l-1.727,0.946l-0.941-0.631l0.628-1.892l1.883-2.996l1.099-1.104l-1.884-1.419l-2.04,0.788
		l-2.824,1.892l-7.219,3.153l-2.824,0.631l-2.825-0.473l-0.953-0.856l-2.055,2.765l-0.222,2.676v8.25l-1.109,1.561l-5.104,3.791
		l-2.22,5.797l0.444,0.223l2.441,2.007l0.665,3.122l-1.775,3.122v3.791l0.444,6.466l2.885,2.898h3.329l1.775,3.122l3.329,0.446
		l3.772,5.575l6.88,4.013l1.997,2.676l0.889,7.247l0.665,3.233l2.22,1.561l0.222,1.338l-1.997,3.345l0.222,3.122l2.441,3.791
		l2.44,1.115l2.886,0.446l1.192,2.453l8.905,0l25.854-1.561L593.031,210.159L593.031,210.159z"/>
</a>
<a xlink:href="#" >
	<path id="MO" fill="#F2D0FF" d="M537.993,260.104l-3.107-3.122l-1.109-2.229l-7.546,0.669l-9.543,0.446l-24.634,0.892
		l-13.094,0.223l-7.656,0.111l-2.22,0.112l1.221,2.453l-0.222,2.229l2.441,3.791l2.996,4.014l2.996,2.676l2.219,0.223l1.332,0.892
		v2.899l-1.775,1.561l-0.444,2.23l1.997,3.344l2.441,2.899l2.441,1.784l1.332,11.372l-0.666,34.449l0.222,4.57l0.444,6.689
		l22.636-0.445l22.637-0.67l20.196-0.891l10.652-0.445l1.775,2.898l-0.444,2.229l-3.106,2.676l-0.666,2.898l5.992,0.447l4.882-0.67
		l1.998-6.242l-0.139-5.492l2.802-1.42l1.331-1.562l1.998-1.113l0.222-3.123l0.888-1.783l-1.332-2.369l-2.885,0.363l-1.775-2.008
		l-1.554-4.014l0.888-2.898l-1.997-3.121l-1.997-4.906l-4.438-0.668l-6.214-5.129l-2.22-3.791l0.666-3.121l2.219-5.797l0.666-3.567
		l-2.663-1.338l-6.214-0.446l-0.888-1.338l0.222-4.237l-5.326-3.567l-7.102-7.358l-2.22-7.135l-0.443-3.568L537.993,260.104
		L537.993,260.104z"/>
</a>
<a xlink:href="#" >
	<path id="AR" fill="#FFD0D0" d="M572.457,353.061l-4.726,0.916l-5.992-0.447l0.666-2.898l3.106-2.676l0.444-2.229l-1.775-2.9
		l-10.653,0.447l-20.195,0.891l-22.637,0.67l-22.637,0.445l1.554,6.689v8.027l1.332,10.703l0.222,36.902l2.22,1.895l2.885-1.338
		l2.663,1.115l0.638,10.953l21.555-0.027l18.643-0.893l10.485,0.139l1.443-2.592l-0.389-4.236l-1.332-2.898l1.332-1.338
		l-1.332-2.006l0.444-1.785l0.888-6.02l2.885-2.676l-0.666-2.006l3.552-5.129l2.663-0.893v-2.453l-0.666-1.336l2.663-5.129
		l2.663-1.115l-0.288-3.564l2.38-1.1l0.941-4.572l-1.412-3.469l3.923-2.207l0.313-2.523l1.31-4.273L572.457,353.061L572.457,353.061
		z"/>
</a>
<a xlink:href="#" >
	<path id="OK" fill="#FFFFD0" d="M362.17,331.233l-10.375-0.445l-6.242-0.475l0.25,0.195l-0.527,11.26l21.167,1.059l30.182,1.115
		l-1.332,23.189l-0.444,17.393l0.222,1.561l4.217,3.568l1.997,1.113l0.666-0.223l0.666-2.006l1.331,1.783h1.998v-1.338l2.663,1.338
		l-0.444,3.791l3.995,0.223l2.441,1.115l3.994,0.668l2.441,1.785l2.219-2.008l3.329,0.67l2.441,3.344h0.888v2.23l2.22,0.668
		l2.219-2.23l1.775,0.67h2.441l0.888,2.453l4.66,1.783l1.332-0.668l1.775-4.014h1.109l1.109,2.006l3.995,0.67l3.551,1.338
		l2.885,0.891l1.775-0.891l0.666-2.453h4.217l1.997,0.891l2.663-2.006h1.11l0.665,1.561h3.995l1.554-2.006l1.775,0.445l1.997,2.453
		l3.107,1.783l3.106,0.893l2.663,1.561l-0.222-37.236l-1.332-10.703v-8.027l-1.553-6.689l-0.444-6.689l-0.222-4.348l-12.872,0.781
		l-45.051-0.447l-43.72-2.006L362.17,331.233L362.17,331.233z"/>
</a>
<a xlink:href="#" >
	<path id="KS" fill="#FFD0D0" d="M487.394,334.354l-12.872,0.67l-45.051-0.447l-43.72-2.006l-23.441-1.227l4.022-64.216l21.194,0.78
		l39.281,1.338l42.832,0.446h5.882l2.996,2.676l2.219,0.223l1.332,0.892v2.898l-1.775,1.561l-0.444,2.23l1.997,3.344l2.441,2.899
		l2.441,1.784l1.332,11.372L487.394,334.354z"/>
</a>
<a xlink:href="#" >
	<path id="LA" fill="#FFFFD0" d="M583.598,477.94l-1.219-2.221l-1.11-3.791l-3.329-3.121l1.11-7.357l-0.666-0.893l-1.775,0.223
		l-7.989,0.67l-23.524,0.668l-0.444-1.561l0.666-7.805l3.329-6.02l5.104-8.918l-0.888-2.008h1.109l0.666-3.121l-2.22-1.783
		l0.223-1.785l-1.998-4.459l-0.333-5.352h-10.541l-18.643,0.893l-21.555,0.027l0.028,9.338l0.665,9.141l0.666,3.791l2.441,4.014
		l0.888,4.904l4.217,5.352l0.222,3.123l0.666,0.668l-0.666,8.25l-2.885,4.906l1.554,2.006l-0.666,2.453l-0.666,7.135l-1.332,3.121
		l0.119,3.527l4.55-1.482l7.846-0.314l10.044,3.469l6.276,1.104l3.609-1.42l3.139,1.104l3.139,0.947l0.784-2.051l-3.138-1.104
		l-2.511,0.473l-2.668-1.576c0,0,0.156-1.262,0.784-1.418c0.628-0.158,2.981-0.947,2.981-0.947l1.727,1.42l1.727-0.947l3.138,0.631
		l1.413,2.365l0.313,2.207l4.394,0.316l1.727,1.734l-0.784,1.576l-1.256,0.789l1.569,1.576l8.16,3.469l3.452-1.262l0.941-2.365
		l2.511-0.631l1.727-1.418l1.256,0.945l0.784,2.838l-2.197,0.789l0.628,0.631l3.296-1.262l2.196-3.311l0.785-0.475l-2.04-0.314
		l0.784-1.576l-0.156-1.42l2.04-0.473l1.099-1.262l0.627,0.789c0,0-0.156,2.996,0.628,2.996s4.08,0.631,4.08,0.631l3.923,1.891
		l0.942,1.42h2.824l1.099,0.945l2.197-2.996v-1.418h-1.256l-3.295-2.682l-5.649-0.787l-3.139-2.207l1.099-2.682l2.196,0.316
		l0.157-0.631l-1.727-0.945v-0.475h3.139l1.727-2.994l-1.256-1.893l-0.313-2.68l-1.412,0.156l-1.884,2.051l-0.627,2.521
		l-2.982-0.631l-0.941-1.734l1.727-1.891l1.961-1.734L583.598,477.94L583.598,477.94z"/>
</a>
</svg>
